SplineFontDB: 3.0
FontName: Maritime_Tropical_Neue_Bold
FullName: Maritime Tropical Neue Bold
FamilyName: Maritime Tropical Neue
Weight: Bold
Copyright: 
UComments: "2012-6-14: Created." 
Version: 001.000
ItalicAngle: 0
UnderlinePosition: -205
UnderlineWidth: 102
Ascent: 1500
Descent: 548
LayerCount: 2
Layer: 0 0 "Back"  1
Layer: 1 0 "Fore"  0
XUID: [1021 548 483398849 16748575]
FSType: 0
OS2Version: 0
OS2_WeightWidthSlopeOnly: 0
OS2_UseTypoMetrics: 1
CreationTime: 1339705680
ModificationTime: 1363294418
PfmFamily: 65
TTFWeight: 700
TTFWidth: 5
LineGap: 184
VLineGap: 0
OS2TypoAscent: 0
OS2TypoAOffset: 1
OS2TypoDescent: 0
OS2TypoDOffset: 1
OS2TypoLinegap: 184
OS2WinAscent: 0
OS2WinAOffset: 1
OS2WinDescent: 0
OS2WinDOffset: 1
HheadAscent: 0
HheadAOffset: 1
HheadDescent: 0
HheadDOffset: 1
OS2Vendor: 'PfEd'
Lookup: 4 0 1 "'liga' Standard Ligatures lookup 0"  {"'liga' Standard Ligatures lookup 0-1"  } ['liga' ('DFLT' <'dflt' > 'grek' <'dflt' > 'latn' <'dflt' > ) ]
Lookup: 258 0 0 "'kern' Horizontal Kerning lookup 2"  {"'kern' Horizontal Kerning lookup 2-1" [600,50,2] } ['kern' ('DFLT' <'dflt' > 'grek' <'dflt' > 'latn' <'dflt' > ) ]
MarkAttachClasses: 1
DEI: 91125
LangName: 1033 
Encoding: UnicodeBmp
UnicodeInterp: none
NameList: Adobe Glyph List
DisplaySize: -96
AntiAlias: 1
FitToEm: 0
WinInfo: 0 19 9
BeginPrivate: 0
EndPrivate
Grid
-2048 -870 m 0
 4096 -870 l 0
  Named: "g" 
-2048 864.843 m 0
 4096 864.843 l 0
-2048 732.843 m 0
 4096 732.843 l 0
-2048 624.229 m 0
 4096 624.229 l 0
-2048 449.229 m 4
 4096 449.229 l 4
-2048 1440 m 0
 4096 1440 l 0
-2036.7 972 m 0
 4107.3 972 l 0
EndSplineSet
TeXData: 1 0 0 359936 179968 119978 479846 -1048576 119978 783286 444596 497025 792723 393216 433062 380633 303038 157286 324010 404750 52429 2506097 1059062 262144
BeginChars: 65539 462

StartChar: b
Encoding: 98 98 0
Width: 1139
VWidth: 0
Flags: W
VStem: 100.021 190<7.17676 39 870.704 1412.25>
LayerCount: 2
Fore
SplineSet
100.021 1400.98 m 0
 97.7285 1479 288.142 1461.02 290.021 1394.98 c 0
 297.644 1127 299.644 1017 305.021 776 c 1
 422.644 956 698.606 1062.68 913.644 915 c 0
 1162.64 744 1164.64 332 1006.64 126 c 0
 807.427 -133.739 378.644 -8 298.721 39 c 1
 300.644 -42 105.644 -38 106.722 30 c 0
 114.459 518.003 116.644 835 100.021 1400.98 c 0
310.644 210 m 1
 391.644 162 699.994 78.1807 841.644 237 c 0
 940.644 348 931.644 624.229 844.644 717 c 0
 751.773 816.031 593.222 835.46 457.644 702 c 0
 329.644 576 308.566 330 310.644 210 c 1
EndSplineSet
EndChar

StartChar: c
Encoding: 99 99 1
Width: 893
VWidth: 0
Flags: W
LayerCount: 2
Fore
SplineSet
727.559 756 m 0
 682.559 783 554.559 818 452.559 787 c 0
 251.406 725.865 180.559 515 252.559 337 c 0
 313.95 185.227 518.559 133 778.559 237 c 0
 885.49 279.772 897.851 70.292 810.892 39 c 0
 546.892 -56 182.469 -38.6211 58.5586 279 c 0
 -39.8506 531.255 80.4072 879.83 389.981 970.621 c 0
 537.892 1014 739.58 965.354 786.892 933 c 0
 886.559 864.843 802.669 710.934 727.559 756 c 0
EndSplineSet
EndChar

StartChar: d
Encoding: 100 100 2
Width: 1039
VWidth: 0
Flags: W
VStem: 728.532 184.273<959.799 1410.81> 736.376 201.873<199.542 583.4>
LayerCount: 2
Fore
SplineSet
715.754 1373.75 m 0x40
 710.462 1501.71 919.326 1454.29 912.805 1372.32 c 0x80
 901.486 1230.08 925.534 208.427 938.249 64.6416 c 0
 947.417 -39.0239 752.213 -76 738.041 48.0779 c 1
 489.9 -81.7714 141.346 -17.6078 44.2363 298 c 0
 -35.3936 556.797 138.243 895.309 453.326 965.621 c 0
 569.8 991.612 662.986 979.094 725.482 954.453 c 1
 721.964 1146.71 718.357 1310.81 715.754 1373.75 c 0x40
728.532 779.635 m 1
 668.719 799.261 571.242 811.409 479.236 781 c 0
 294.971 720.098 185.236 529 242.236 349 c 0
 296.936 176.263 497.309 93.9692 736.376 220.923 c 1x40
 734.926 363.953 731.937 575.219 728.532 779.635 c 1
EndSplineSet
EndChar

StartChar: e
Encoding: 101 101 3
Width: 960
VWidth: 0
Flags: W
HStem: 449.229 175<28.2607 69.4893 265.857 682.683>
LayerCount: 2
Fore
SplineSet
387.221 207 m 0
 530.382 107.779 721.221 197 819.221 285 c 0
 880.396 339.933 974.705 204.703 917.221 137 c 0
 827.221 31 519.513 -72.5938 327.221 21 c 0
 168.008 98.4933 75.9857 269.796 65.5582 448.486 c 1
 60.7982 448.73 56.019 448.977 51.2207 449.229 c 0
 -39.7373 454.002 -30.9316 632.359 67.2207 624.229 c 0
 72.1597 623.82 77.0791 623.416 81.9784 623.018 c 1
 97.5665 684.154 123.773 742.725 161.221 795 c 0
 391.663 1116.68 891.027 988.085 907.221 747 c 0
 924.824 484.918 694.537 430.089 246.359 441.322 c 1
 257.37 352.191 302.345 265.825 387.221 207 c 0
265.857 610.604 m 1
 543.875 596.928 721.045 618.357 711.221 732.843 c 0
 703.824 819.054 490.001 837.894 379.221 761 c 0
 326.727 724.563 288.153 671.153 265.857 610.604 c 1
EndSplineSet
EndChar

StartChar: f
Encoding: 102 102 4
Width: 833
VWidth: 0
Flags: W
HStem: 448.436 173.698<378.017 690.922>
VStem: 168.433 182<628.249 1168.81>
LayerCount: 2
Fore
SplineSet
168.433 930 m 0
 159.353 1113.58 183.003 1334.6 361.433 1413 c 0
 559.432 1500 780.703 1410 901.432 1332 c 0
 999.703 1268.51 902.664 1102.34 827.432 1155 c 0
 737.432 1218 594.947 1301.35 479.433 1251 c 0
 362.433 1200 346.034 1050.91 350.433 940 c 0
 354.986 825.18 360.341 722.404 366.499 622.135 c 1
 485.689 622.623 602.663 625.746 657.432 630 c 0
 739.416 636.369 787.492 459.438 659.432 458 c 0
 612.606 457.474 497.682 453.072 378.017 448.436 c 1
 386.636 326.144 396.441 199.382 407.433 51 c 0
 413.433 -30 231.433 -51 225.433 45 c 0
 215.871 197.994 206.973 323.453 198.694 441.609 c 1
 156.87 440.09 119.218 438.816 89.4326 438 c 0
 -53.4121 434.088 -20.6035 635.506 87.4326 628 c 0
 114.806 626.099 148.647 624.704 186.215 623.746 c 1
 179.89 719.769 173.971 818.033 168.433 930 c 0
EndSplineSet
EndChar

StartChar: g
Encoding: 103 103 5
Width: 936
VWidth: 0
Flags: W
LayerCount: 2
Fore
SplineSet
700.207 105.612 m 1
 500.618 -126 146.618 -18 60.6182 243 c 0
 -52.6875 586.869 138.618 901 443.618 967 c 0
 652.703 1012.24 829.519 936 867.519 842 c 0
 879.418 812.562 858.922 781.843 831.298 770.518 c 1
 891.765 220.935 894.736 -155.83 864.519 -470 c 0
 811.618 -1020 156.376 -933.615 31.6182 -668 c 0
 0.618164 -602 86.7119 -480.557 120.618 -532 c 0
 236.618 -708 566.618 -772 655.519 -564 c 0
 720.955 -410.897 713.707 -170.961 700.207 105.612 c 1
649.519 752 m 0
 648.756 761.911 649.879 770.688 652.44 778.297 c 1
 630.59 794.843 598.618 815 490.618 799 c 0
 339.428 776.602 122.618 547 244.618 285 c 0
 316.344 130.966 546.618 116 686.618 300 c 1
 675.515 462.43 663.412 571.371 649.519 752 c 0
EndSplineSet
EndChar

StartChar: h
Encoding: 104 104 6
Width: 1062
VWidth: 0
Flags: W
VStem: 80.0039 190.592<763.888 1419.72> 94.0312 186.543<2.88703 525.169> 782.912 194.603<26.7525 578.24>
LayerCount: 2
Fore
SplineSet
782.912 42.6094 m 0xa0
 796.607 415.265 798.491 547.124 768.049 668 c 0
 723.988 842.949 545.976 837.29 415.07 680.88 c 0
 274.256 512.629 284.253 319.321 280.574 130.096 c 0
 279.622 81.2305 303.049 0 209.185 -12.2832 c 0
 139.919 -21.3477 94.2393 29.2539 94.0312 83.8564 c 0x60
 92.0732 597.072 87.2393 820.016 80.0039 1402.09 c 0
 79.0332 1480.14 263.955 1466.02 263.138 1399.96 c 0
 259.871 1136.15 268.049 1012 270.596 763.888 c 1
 381.049 972 601.266 1038 793.062 958.992 c 0
 1011.15 869.148 984.554 449.081 977.515 56.6348 c 0
 975.902 -33.3506 779.824 -41.3584 782.912 42.6094 c 0xa0
EndSplineSet
EndChar

StartChar: i
Encoding: 105 105 7
Width: 460
VWidth: 0
Flags: W
VStem: 133.899 197.051<391.975 962.058> 149.521 201.012<26.4102 614.526>
LayerCount: 2
Fore
SplineSet
100.899 1335 m 0x00
 111.899 1414 233.899 1461 292.899 1407 c 0
 356.899 1348 344.899 1216 262.899 1185 c 0
 181.899 1155 89.8994 1250 100.899 1335 c 0x00
133.899 925 m 0x80
 128.607 1052.96 337.472 1005.54 330.95 923.569 c 0x80
 319.632 781.33 337.818 218.879 350.533 75.0938 c 0
 360.073 -32.7822 148.303 -68.4414 149.521 74.4521 c 0x40
 150.766 220.501 141.257 747.11 133.899 925 c 0x80
EndSplineSet
EndChar

StartChar: a
Encoding: 97 97 8
Width: 1000
VWidth: 0
Flags: W
VStem: 763 169<26.6698 259.053>
LayerCount: 2
Fore
SplineSet
686.5 784.116 m 1
 655 779 653.132 829.924 543 817 c 0
 347 794 123 506 223 264 c 0
 286.216 111.018 586 114 659 460 c 0
 676.365 542.309 687 672 679.4 742 c 0
 677.619 758.41 680.053 772.524 686.5 784.116 c 1
733 267 m 1
 609 -119 165.755 -60.2471 56 198 c 0
 -80 518 186 926 475.49 975 c 0
 686.415 1010.7 790.49 961 828.49 867 c 0
 834.94 851.044 831.274 834.253 821.817 820.197 c 1
 838.277 813.723 853.203 798.485 855.4 773 c 0
 876 534 909 215 932 67 c 0
 944.068 -10.6553 771 -34 763 29 c 0
 756.551 79.7881 735 218 733 267 c 1
EndSplineSet
EndChar

StartChar: j
Encoding: 106 106 9
Width: 637
VWidth: 0
Flags: W
VStem: 277.036 190.1<445.296 963.08>
LayerCount: 2
Fore
SplineSet
277.036 936 m 0
 266.847 1021.09 459.991 1002.88 467.136 939 c 0
 528.602 389.417 541.491 -175.764 500.036 -470 c 0
 421.136 -1030 -176.106 -928.615 -300.864 -663 c 0
 -331.864 -597 -276.771 -452.557 -242.864 -504 c 0
 -126.864 -680 181.16 -739.508 270.136 -546 c 0
 366.235 -337 343.136 384 277.036 936 c 0
223.136 1335 m 0
 234.136 1414 356.136 1461 415.136 1407 c 0
 479.136 1348 467.136 1216 385.136 1185 c 0
 304.136 1155 212.136 1250 223.136 1335 c 0
EndSplineSet
EndChar

StartChar: k
Encoding: 107 107 10
Width: 1006
VWidth: 0
Flags: W
HStem: -3 201<709.624 955.602> 818 172<715.158 838.717>
VStem: 100.378 192<846.5 1406.55> 129.378 198.6<31.1317 349.34>
LayerCount: 2
Fore
SplineSet
100.378 1365 m 0xe0
 90.2324 1492.66 287.832 1457.09 292.378 1375 c 0xe0
 299.541 1245.63 304.752 959.34 307.604 739.392 c 1
 448.512 874.301 658.271 956 775.824 990 c 0
 863.614 1015.39 930.839 850.672 832.824 818 c 0
 688.824 770 525.824 704 402.824 581 c 0
 394.51 572.686 390.279 558.77 396.824 549 c 0
 534.824 343 767.378 134 973.378 198 c 0
 1056.52 223.83 1062.33 -36.8037 841.824 -3 c 0
 685.271 21 486.966 117.765 321.107 353.553 c 1
 322.824 264 331.56 152.884 327.978 71.9043 c 0
 323.191 -36.2861 126.932 -66.8779 129.378 76 c 0xd0
 136.824 511 124.378 1063 100.378 1365 c 0xe0
EndSplineSet
EndChar

StartChar: l
Encoding: 108 108 11
Width: 426
VWidth: 0
Flags: W
VStem: 100.099 197.05<865.143 1421.26> 125.581 201.013<26.4102 593.851>
LayerCount: 2
Fore
SplineSet
100.099 1384.2 m 0x80
 94.8066 1512.16 303.671 1464.74 297.149 1382.77 c 0x80
 285.831 1240.53 313.879 218.879 326.594 75.0938 c 0
 336.134 -32.7822 124.363 -68.4414 125.581 74.4521 c 0x40
 126.826 220.501 107.456 1206.31 100.099 1384.2 c 0x80
EndSplineSet
EndChar

StartChar: m
Encoding: 109 109 12
Width: 1761
VWidth: 0
Flags: W
VStem: 80.0312 202.8<760.785 935.806> 92.9609 199.001<8.40196 522.676> 806.868 211.162<28.359 479.277> 1483.16 190<25.3438 577.359>
LayerCount: 2
Fore
SplineSet
806.868 45 m 0xb0
 806.868 417.907 800.868 501.229 776.868 624.229 c 0
 737.808 824.414 546.472 831.911 419.868 672 c 0
 279.905 495.215 301.892 319 291.962 130 c 0
 289.396 81.1924 277.972 2.19629 221.891 -11 c 0
 153.892 -27 91.3652 33.4199 92.9609 88 c 0x70
 107.961 601 90.1611 637.785 80.0312 924.785 c 0
 77.2783 1002.79 257.868 1014 273.031 923.785 c 0
 281.195 875.212 280.96 816.555 282.831 760.785 c 1
 375.868 958 598.882 1039.31 787.962 954 c 0
 860.15 921.431 905.63 861 934.195 773.589 c 1
 1062.44 947.932 1284.72 1033.26 1468.16 955.215 c 0
 1724.87 846 1682.87 474 1673.16 61.2148 c 0
 1671.04 -28.7598 1480.31 -32.7607 1483.16 51.2148 c 0
 1495.87 426 1489.22 538.68 1463.87 657 c 0
 1427.87 825 1178.87 810 1076.87 681 c 0
 1031.18 623.221 1015.32 556.802 995.868 486 c 1
 1008.12 342.033 1018.03 233.965 1018.03 66 c 0
 1018.03 -26 806.868 -45 806.868 45 c 0xb0
EndSplineSet
EndChar

StartChar: n
Encoding: 110 110 13
Width: 1056
VWidth: 0
Flags: W
VStem: 88.1162 186.543<2.88703 525.169 763.888 946.768> 776.997 194.603<26.7525 578.24>
LayerCount: 2
Fore
SplineSet
776.997 42.6094 m 0
 790.692 415.265 792.576 547.124 762.134 668 c 0
 718.073 842.949 540.061 837.29 409.155 680.88 c 0
 268.341 512.629 278.338 319.321 274.659 130.096 c 0
 273.707 81.2305 297.134 0 203.27 -12.2832 c 0
 134.004 -21.3477 88.958 29.2598 88.1162 83.8564 c 0
 84.1338 342 80.1338 803 80 937.13 c 0
 79.9219 1015.19 263.134 1001.06 263.134 935 c 0
 263.134 864.843 264.134 831 264.681 763.888 c 1
 375.134 972 595.351 1038 787.147 958.992 c 0
 1005.24 869.148 978.639 449.081 971.6 56.6348 c 0
 969.987 -33.3506 773.909 -41.3584 776.997 42.6094 c 0
EndSplineSet
EndChar

StartChar: o
Encoding: 111 111 14
Width: 1032
VWidth: 0
Flags: W
LayerCount: 2
Fore
SplineSet
486.932 795 m 0
 340.932 775 203.932 621.229 219.932 472 c 0
 238.912 294.97 376.951 146.652 554.932 157 c 0
 726.932 167 850.856 384.508 810.932 529 c 0
 768.932 681 706.932 789 490.317 794.816 c 0
 489.159 794.848 488.025 795.149 486.932 795 c 0
476.526 988 m 0
 502.719 990.381 523.656 981.899 538.072 968.562 c 1
 781.312 944.559 952.898 798.738 993.526 592 c 0
 1060.93 249 874.526 -8 564.526 -18 c 0
 292.322 -26.7812 48.5264 148 26.5264 450 c 0
 4.97168 745.891 214.552 964.184 476.526 988 c 0
EndSplineSet
EndChar

StartChar: p
Encoding: 112 112 15
Width: 1117
VWidth: 0
Flags: W
VStem: 110.772 188.055<-376.175 31.9705 203.994 804.163> 116.263 201.012<-827.042 -243.495>
LayerCount: 2
Fore
SplineSet
100.263 929 m 0x80
 96.0847 1030.03 225.395 1021.73 276.808 973.426 c 1
 431.398 1007.48 607.195 1011.83 714.877 981 c 0
 1029.26 891 1157.76 553.628 1060.26 285 c 0
 949.435 -20.3477 651.263 -39 373.263 11 c 0
 348.063 15.5325 323.026 22.8459 298.827 31.9705 c 1x80
 303.673 -343.944 311.152 -709.117 317.275 -778.358 c 0
 326.815 -886.234 115.044 -921.894 116.263 -779 c 0x40
 116.93 -700.705 114.398 -266.62 110.772 146.692 c 1
 109.567 147.811 108.397 148.914 107.263 150 c 0
 54.184 200.82 75.0886 282.857 109.321 304.5 c 1
 106.468 600.416 103.168 858.753 100.263 929 c 0x80
296.643 219.366 m 1
 335.28 204.613 375.675 193.751 415.263 189 c 0
 640.263 162 799.263 192 865.263 342 c 0
 935.067 500.648 859.263 714 709.263 783 c 0
 577.159 843.768 431.495 825.339 294.179 794.608 c 1
 293.158 660.087 294.284 446.599 296.643 219.366 c 1
EndSplineSet
EndChar

StartChar: q
Encoding: 113 113 17
Width: 1079
VWidth: 0
Flags: W
HStem: -618 105<1231.46 1334.25>
VStem: 772.375 181.668<372.733 768.53>
LayerCount: 2
Fore
SplineSet
954.043 880 m 0
 939.043 222 955.043 -381 994.043 -639 c 1
 1078.04 -570 1164.44 -534.329 1268.04 -513 c 0
 1370.04 -492 1401.32 -583.02 1308.04 -618 c 0
 1220.04 -651 1022.04 -816 980.043 -870 c 0
 942.936 -917.709 824.137 -873.55 815.043 -783 c 0
 789.406 -527.716 776.265 -224.23 772.375 95.9722 c 1
 460.632 -132.188 89.0406 27.7248 41.043 242 c 0
 -30.0771 559.498 137.043 902 507.133 977.621 c 0
 609.72 998.582 712.725 977.187 787.464 936.68 c 1
 820.979 987.108 956.193 974.313 954.043 880 c 0
775.731 738.056 m 1
 714.294 783.957 648.849 809.841 569.043 803 c 0
 356.065 784.745 144.455 493.693 239.043 287 c 0
 310.786 130.228 601.405 138.2 771.119 317.171 c 1
 771.187 456.544 772.809 597.658 775.731 738.056 c 1
EndSplineSet
EndChar

StartChar: r
Encoding: 114 114 18
Width: 845
VWidth: 0
Flags: W
HStem: 786 200.787<549.43 842.318>
VStem: 116.236 192.515<5.27199 511.387>
LayerCount: 2
Fore
SplineSet
821.751 786 m 0
 700.751 792 501.751 780 403.751 616 c 0
 299.723 441.912 306.493 326.247 308.751 137 c 0
 309.333 88.1289 331.751 12 244.609 -3.06836 c 0
 145.037 -20.2861 117.739 38.0859 116.236 92.668 c 0
 108.028 390.759 112.751 575 74.333 912.384 c 0
 65.502 989.939 234.911 1015.48 252.051 936.205 c 0
 263.618 882.696 277.751 794 282.725 708.308 c 1
 369.751 928 592.145 982.164 799.525 986.787 c 0
 905.594 989.15 917.851 781.234 821.751 786 c 0
EndSplineSet
EndChar

StartChar: s
Encoding: 115 115 19
Width: 856
VWidth: 0
Flags: W
HStem: 783 176<245.253 715.929>
LayerCount: 2
Fore
SplineSet
664.643 783 m 0
 508.643 836 245.566 826.803 242.643 742 c 0
 238.643 626 735.643 561 806.643 380 c 0
 889.289 169.312 756.643 7 543.643 -11 c 0
 344.353 -27.8418 136.643 12 50.6426 138 c 0
 -26.7031 251.321 87.4209 367.579 174.643 278 c 0
 248.643 202 358.643 158 474.643 164 c 0
 562.729 168.557 679.041 221.078 626.643 314 c 0
 552.643 445.229 107.86 483 40.6426 682 c 0
 23.9258 731.49 16.0732 849.438 128.643 914 c 0
 264.643 992 551.171 1003.88 691.425 959 c 0
 791.425 927 751.174 753.602 664.643 783 c 0
EndSplineSet
EndChar

StartChar: t
Encoding: 116 116 20
Width: 873
VWidth: 0
Flags: W
HStem: 772 199<37.5971 332.132>
VStem: 321.433 197.049<976.477 1393.71> 336.273 186.524<269.895 784.635> 347.864 201.013<30.6406 607.354>
LayerCount: 2
Fore
SplineSet
321.433 1363 m 0xc0
 316.141 1490.96 525.004 1443.54 518.482 1361.57 c 0xc0
 514.556 1312.23 515.481 1160.12 518.895 976.477 c 1
 647.312 981.454 762.859 987.538 807.432 991 c 0
 889.416 997.368 937.492 811.438 809.432 810 c 0
 770.463 809.562 653.848 802.989 522.797 795.402 c 1xa0
 530.24 487.554 541.964 157.487 548.877 79.3242 c 0
 558.416 -28.5518 346.646 -64.2109 347.864 78.6826 c 0x90
 348.543 158.281 342.816 479.769 336.273 784.635 c 1xa0
 229.439 778.574 132.665 773.431 80.4326 772 c 0
 -62.4121 768.088 -29.6035 978.505 78.4326 971 c 0
 130.308 967.398 226.048 967.948 332.132 970.501 c 1
 327.971 1150.2 323.946 1302.24 321.433 1363 c 0xc0
EndSplineSet
EndChar

StartChar: u
Encoding: 117 117 21
Width: 1073
VWidth: 0
Flags: W
VStem: 80.2285 192.001<389.016 957.233> 104.229 180<232.408 810.357> 779.229 184<540.691 962.312>
LayerCount: 2
Fore
SplineSet
80.2285 917 m 0xa0
 72.2285 1045 277.229 1001 272.229 919 c 0xa0
 268.229 848 273.694 504.965 284.229 348 c 0
 294.229 199 396.265 168.063 483.229 182 c 0
 639.229 207 783.229 505 779.229 923 c 0
 778.004 1051 968.229 1006 963.229 924 c 0
 955.229 782 977.229 226 993.229 83 c 0
 1005.23 -25 807.229 -64 805.229 79 c 0
 804.229 142 803.229 198 799.229 346 c 1
 757.229 169 624.229 6 473.229 -7 c 0
 222.229 -29 117.229 130 104.229 293 c 0x60
 92.0439 445.779 86.2285 822 80.2285 917 c 0xa0
EndSplineSet
EndChar

StartChar: v
Encoding: 118 118 22
Width: 917
VWidth: 0
Flags: W
VStem: 738.552 192<826.327 954.233>
LayerCount: 2
Fore
SplineSet
-11.4492 906 m 0
 -43.8477 987.132 155.249 1039.89 187.552 954 c 0
 317.309 609 368.309 510 503.552 236 c 1
 605.309 509 634.309 642 738.552 951 c 0
 768.112 1038.62 950.51 975.015 930.552 917 c 0
 815.309 582 764.309 391 617.552 39 c 0
 582.073 -46.0957 429.552 -31 397.552 35 c 0
 233.888 372.56 132.309 546 -11.4492 906 c 0
EndSplineSet
EndChar

StartChar: w
Encoding: 119 119 23
Width: 1375
VWidth: 0
Flags: W
VStem: -13.2275 177.999<774.129 955.557>
LayerCount: 2
Fore
SplineSet
-13.2275 901 m 0
 -34.2275 990 137.772 1039 164.772 937 c 0
 246.772 628 258.772 508 382.772 226 c 1
 461.772 458 488.772 676 584.772 820 c 0
 623.772 878 766.772 865 788.772 799 c 0
 854.772 598 911.772 383 985.772 233 c 1
 1132.77 692 1115.77 864.843 1245.77 990 c 0
 1314.34 1056.02 1429.26 971.99 1376.77 900 c 0
 1271.77 756 1252.77 533 1114.77 56 c 0
 1089.77 -31 926.772 -40 885.772 35 c 0
 798.772 191 751.772 393 665.772 622 c 1
 597.772 487 555.772 227 498.772 44 c 0
 470.772 -44 286.772 -42 245.772 56 c 0
 158.772 263 67.7725 556 -13.2275 901 c 0
EndSplineSet
EndChar

StartChar: x
Encoding: 120 120 24
Width: 896
VWidth: 0
Flags: W
LayerCount: 2
Fore
SplineSet
668.216 955 m 0
 727.216 1069 904.216 954 858.216 886 c 0
 819.275 828.563 696.697 659.529 570.751 484.888 c 1
 697.31 319.065 818.878 163.061 858.216 110 c 0
 923.216 23 740.216 -86 666.216 36 c 0
 637.378 83.4314 554.546 196.807 457.385 327.284 c 1
 366.829 200.922 288.111 89.5361 255.216 38 c 0
 197.216 -53 -22.7842 -9 60.2158 107 c 0
 103.426 167.401 220.034 320.629 340.732 483.233 c 1
 212.909 653.643 86.6219 821.313 39.2158 891 c 0
 -32.7842 997 190.216 1034 228.216 961 c 0
 254.326 909.985 347.238 781.357 454.645 638.182 c 1
 551.765 771.905 636.404 893.704 668.216 955 c 0
EndSplineSet
EndChar

StartChar: y
Encoding: 121 121 25
Width: 900
VWidth: 0
Flags: W
LayerCount: 2
Fore
SplineSet
538.584 0 m 0
 468.584 92 104.733 661.345 -19.416 861 c 0
 -82.2197 962 107.503 1035.14 165.584 939 c 0
 249.363 800.317 478.884 436.429 603.408 239.344 c 1
 649.046 524.248 690.062 806.704 697.816 908.864 c 0
 707.51 1036.57 906.905 972.786 891.584 892 c 0
 858.584 718 699.584 -351 666.584 -495 c 0
 642.393 -600.562 436.396 -609.207 474.557 -471.497 c 0
 491.622 -409.913 525.487 -227.464 561.851 -12.9658 c 1
 552.366 -11.6074 544.293 -7.50334 538.584 0 c 0
EndSplineSet
EndChar

StartChar: z
Encoding: 122 122 26
Width: 958
VWidth: 0
Flags: W
HStem: 0 192<362.005 906.169> 770 191<64.2193 332.298>
LayerCount: 2
Fore
SplineSet
96.5713 770 m 0
 2.86133 762.63 6.50195 958.497 76.5713 961 c 0
 356.571 971 505.571 982 789.571 972 c 0
 909.646 967.771 943.502 851.418 884.016 790 c 0
 730.016 631 465.016 339 353.571 184 c 1
 533.016 199 744.016 201 878.571 192 c 0
 955.717 186.84 948.541 -3.65039 876.571 0 c 0
 600.571 14 492.571 16 182.571 0 c 0
 86.6992 -4.94824 38.7783 86.1318 80.0156 139 c 0
 197.016 289 516.016 668 640.571 784 c 1
 477.016 792 300.016 786 96.5713 770 c 0
EndSplineSet
EndChar

StartChar: A
Encoding: 65 65 27
Width: 1163
VWidth: 0
Flags: W
HStem: 460.627 161.581<398.622 790.371>
LayerCount: 2
Fore
SplineSet
1048.44 459.359 m 1
 1104.29 294.234 1152.63 150.811 1180.97 63 c 0
 1199.81 4.61523 1022.41 -66.3223 991.967 21 c 0
 967.368 91.5643 908.952 265.352 843.99 460.627 c 1
 680.907 460.667 485.69 453.052 331.252 438.729 c 1
 268.335 256.998 211.431 99.0345 178.87 29 c 0
 140.185 -54.208 -49.957 -0.119141 -15.1309 80 c 0
 20.7364 162.514 78.7874 309.149 142.972 477.827 c 1
 128.811 523.367 149.811 586.671 193.565 611.97 c 1
 303.783 906.716 419.52 1232.42 466.97 1395.58 c 0
 487.452 1466.01 710.229 1479.51 737.97 1391.58 c 0
 801.144 1191.35 903.205 888.663 996.079 614.116 c 1
 1006.28 613.503 1015.82 612.874 1024.63 612.229 c 0
 1098.89 606.796 1136.93 479.018 1048.44 459.359 c 1
790.371 622.209 m 1
 707.085 873.813 625.101 1124.44 597.97 1213.58 c 1
 552.184 1089.74 473.953 856.269 395.573 626.231 c 1
 519.891 627.114 664.879 625.495 790.371 622.209 c 1
EndSplineSet
EndChar

StartChar: B
Encoding: 66 66 28
Width: 1164
VWidth: 0
Flags: W
HStem: 685 237<299 565.426>
VStem: 120 179<249.704 685 922 1271.79> 131 183<16.8259 92>
LayerCount: 2
Fore
SplineSet
299 685 m 1xc0
 300 450 306 423 310 264 c 1
 462 185 672 149 810 206 c 0
 909.104 246.934 935.669 367.573 903 467 c 0
 834 677 542 684 299 685 c 1xc0
297 1268 m 1
 294 1206 299 1077 299 922 c 1
 522 911 715 1001 682 1154 c 0
 666.494 1225.89 549 1294 297 1268 c 1
141 1432 m 0
 166.185 1447.8 197 1447 218 1440 c 1
 542 1477 817 1409 877 1204 c 0
 926 1036 786 849 577 820 c 1
 768 822 961 772 1081 560 c 0
 1188 370 1095.72 115.038 922 35 c 0
 731 -53 501 -14 313 92 c 1
 313 83 314 75 314 69 c 0
 322 -39 127 -72 131 71 c 0xa0
 135 209 124 1043 120 1292 c 1
 85 1311 90 1400 141 1432 c 0
EndSplineSet
EndChar

StartChar: C
Encoding: 67 67 29
Width: 1226
VWidth: 0
Flags: W
LayerCount: 2
Fore
SplineSet
895.251 1239 m 0
 825.251 1287 673.595 1267.9 598.251 1245 c 0
 292.251 1152 130.251 681 265.251 414 c 0
 408.131 131.415 811.251 120 1126.25 336 c 0
 1187.8 378.203 1229.25 198 1178.25 159 c 0
 806.251 -125 226.251 -60 70.251 348 c 0
 -45.749 652 44.251 1272 540.251 1426 c 0
 699.251 1475 881.251 1461 952.251 1408 c 0
 1034.25 1346 968.251 1189 895.251 1239 c 0
EndSplineSet
EndChar

StartChar: D
Encoding: 68 68 30
Width: 1325
VWidth: 0
Flags: W
VStem: 100 194.498<859.788 1286.79> 123.804 195.621<267.771 737.26>
LayerCount: 2
Fore
SplineSet
100 1387 m 0x80
 97.0214 1459.02 161.887 1475.48 218.006 1461.5 c 1
 607.118 1485.08 907.632 1416.99 1146 1123 c 0
 1341 883 1344 448 1131 208 c 0
 936.144 -11.3144 619.505 -46.7246 310.41 24.2679 c 1
 262.225 -37.0959 124.499 -38.0632 125.482 77.252 c 0
 125.488 77.9882 125.494 78.7457 125.499 79.5243 c 0
 117.978 82.2932 110.477 85.1188 103 88 c 0
 2.96268 126.546 41.221 274.65 123.804 267.771 c 1x40
 119.051 605.106 105.797 1246.84 100 1387 c 0x80
319.425 207.446 m 1
 550.883 153.295 824.241 160.421 963 316 c 0
 1161 538 1097.67 864.581 969 1027 c 0
 799.995 1240.33 570.435 1293.32 294.498 1286.79 c 1x80
 293.192 1043.19 307.95 476.219 319.425 207.446 c 1
EndSplineSet
EndChar

StartChar: E
Encoding: 69 69 31
Width: 1236
VWidth: 0
Flags: W
HStem: 0 190<317 422.715 884.075 1145.08> 701 184<302.376 847.64> 1277 166<291 1156.92>
VStem: 100 202<881.553 1268>
LayerCount: 2
Fore
SplineSet
100 1382 m 0
 95 1472 210 1474 250 1439 c 1
 632 1437 803 1426 1160 1443 c 0
 1202 1445 1210 1281 1139 1277 c 0
 832.004 1259.7 619 1264 291 1268 c 1
 294 1211 296 1017 302 878 c 1
 310 883 320 886 332 885 c 0
 644 871 749 877 1059 901 c 0
 1149 908 1123 721 1049 717 c 0
 735 700 646 705 330 701 c 0
 317 701 307 705 299 712 c 1
 302 426 314 305 317 190 c 1
 602 180 860 179 1145 201 c 0
 1235 208 1209 16 1135 12 c 0
 829 -5 555 3 249 0 c 1
 209 -14 121 11 123 92 c 0
 127 238 113 1142 100 1382 c 0
EndSplineSet
EndChar

StartChar: F
Encoding: 70 70 32
Width: 1162
VWidth: 0
Flags: W
HStem: 701 184<302.376 847.64> 1277 166<291 1156.92>
VStem: 100 202<897.371 1268> 123 191<27.3333 582.006>
LayerCount: 2
Fore
SplineSet
123 62 m 0xd0
 127 208 113 1142 100 1382 c 0
 95 1472 210 1474 250 1439 c 1
 632 1437 803 1426 1160 1443 c 0
 1202 1445 1210 1281 1139 1277 c 0
 832.004 1259.7 619 1264 291 1268 c 1
 294 1211 296 1017 302 878 c 1xe0
 310 883 320 886 332 885 c 0
 644 871 749 877 1059 901 c 0
 1149 908 1123 721 1049 717 c 0
 735 700 646 705 330 701 c 0
 317 701 307 705 299 712 c 1
 302 426 311.366 184.009 314 69 c 0
 317 -62 121 -19 123 62 c 0xd0
EndSplineSet
EndChar

StartChar: G
Encoding: 71 71 33
Width: 1466
VWidth: 0
Flags: W
HStem: 722.649 179.351<792.737 1189.07>
VStem: 1219.06 175<-0.908852 308.18>
LayerCount: 2
Fore
SplineSet
1053.06 1208 m 0
 971.062 1236 910.844 1302.94 687.062 1250 c 0
 222.062 1140 115.411 642.805 291.062 392 c 0
 492.062 105 1134.06 20 1189.07 722.649 c 1
 1096.83 723.96 1005.06 725 849.062 707 c 0
 769.541 697.824 746.006 871.438 832.062 881 c 0
 994.062 899 1212.06 901 1287.16 902 c 0
 1362.16 902.999 1396 772.568 1391.16 722 c 0
 1369.06 491 1368.06 280 1394.06 28 c 0
 1400.23 -31.7578 1228.57 -49.5557 1219.06 17 c 0
 1205.06 115 1201.06 212 1202.08 317.505 c 1
 960.062 -213 300.92 -2.6084 126.062 301 c 0
 -74.9375 650 -7.9375 1218 619.062 1411 c 0
 823.522 1473.94 1072.13 1425.9 1129.06 1342 c 0
 1167.06 1286 1091.34 1194.93 1053.06 1208 c 0
EndSplineSet
EndChar

StartChar: H
Encoding: 72 72 34
Width: 1415
VWidth: 0
Flags: W
HStem: 695.141 199.263<303.721 838.613> 725.636 182.096<593.109 1100.85>
VStem: 100.099 199.027<904.109 1411.61> 125.581 201.013<26.4102 610.37> 1100.85 185.113<917.704 1375> 1114.39 201.01<18.6406 586.081>
LayerCount: 2
Fore
SplineSet
100.099 1384.2 m 0xa0
 94.8066 1512.16 303.671 1464.74 297.149 1382.77 c 0
 292.568 1325.2 294.436 1123.58 299.126 894.404 c 1xa0
 461.418 889.288 903.526 899.777 1100.85 907.732 c 1
 1096.33 1120.87 1091.73 1308.16 1088.91 1376.43 c 0
 1083.62 1504.39 1292.48 1456.97 1285.96 1375 c 0x68
 1274.64 1232.76 1302.69 211.109 1315.4 67.3242 c 0
 1324.94 -40.5518 1113.17 -76.2109 1114.39 66.6826 c 0
 1115.03 141.066 1110.31 433.274 1104.56 725.636 c 1x44
 911.755 719.035 469.275 700.673 303.721 695.141 c 1
 310.842 415.749 320.487 144.157 326.594 75.0938 c 0
 336.134 -32.7822 124.363 -68.4414 125.581 74.4521 c 0x94
 126.826 220.501 107.456 1206.31 100.099 1384.2 c 0xa0
EndSplineSet
EndChar

StartChar: I
Encoding: 73 73 35
Width: 426
VWidth: 0
Flags: W
VStem: 100.099 197.05<865.143 1421.26> 125.581 201.013<26.4102 593.851>
LayerCount: 2
Fore
SplineSet
100.099 1384.2 m 0x80
 94.8066 1512.16 303.671 1464.74 297.149 1382.77 c 0x80
 285.831 1240.53 313.879 218.879 326.594 75.0938 c 0
 336.134 -32.7822 124.363 -68.4414 125.581 74.4521 c 0x40
 126.826 220.501 107.456 1206.31 100.099 1384.2 c 0x80
EndSplineSet
EndChar

StartChar: J
Encoding: 74 74 36
Width: 1177
VWidth: 0
Flags: W
HStem: -291 201<35.8115 588.907> 1259 174<24.0873 878.735>
LayerCount: 2
Fore
SplineSet
30 1433 m 0
 391 1440 582 1428 919.946 1440 c 0
 984.047 1442.28 1055.92 1397.58 1058.95 1338 c 0
 1085.95 807 1194.95 375 963.946 21 c 0
 770.77 -275.037 442.19 -334.911 68.9463 -291 c 0
 -33.0537 -279 -24.0537 -78 50.9463 -90 c 0
 347.482 -137.446 600 -118 773.946 87 c 0
 965.078 312.253 935.946 601 875.946 1264 c 1
 568 1258 356 1247 52 1259 c 0
 -31.9883 1262.32 -39.5713 1431.65 30 1433 c 0
EndSplineSet
EndChar

StartChar: K
Encoding: 75 75 37
Width: 1135
VWidth: 0
Flags: W
HStem: -1 195<920.571 1075.16>
VStem: 100 198<995.654 1388.81> 123 190<17.2754 585.494>
LayerCount: 2
Fore
SplineSet
100 1364 m 0xc0
 90 1492 282 1456 287 1374 c 0
 294 1245 295 1209 298 989 c 1xc0
 463 1122 685 1297 886 1440 c 0
 961 1493 1074 1323 988 1266 c 0
 718 1087 533 954 417 824 c 0
 408.982 815.016 402.335 800.226 409 790 c 0
 570 543 827 203 1061 194 c 0
 1148 191 1170.56 -62.0605 956 -1 c 0
 703 71 472 350 306 586 c 1
 306 418 317 139 313 58 c 0
 308 -50 116 -81 123 62 c 0xa0
 144 497 124 1062 100 1364 c 0xc0
EndSplineSet
EndChar

StartChar: L
Encoding: 76 76 38
Width: 1080
VWidth: 0
Flags: W
HStem: 32 189<732.352 1044.52>
VStem: 118 185<174.495 1426.54>
LayerCount: 2
Fore
SplineSet
106 1395 m 0
 105 1523 309 1473 301 1391 c 0
 290 1277 305 245 303 179 c 1
 501 152 832 173 1009 221 c 0
 1106 247 1101 52 1021 32 c 0
 814 -19 463 -12 301 -12 c 0
 192 -12 115 4 118 121 c 0
 122 267 107 1211 106 1395 c 0
EndSplineSet
EndChar

StartChar: M
Encoding: 77 77 39
Width: 1649
VWidth: 0
Flags: W
VStem: 100.109 184<853.879 1167> 115.37 189<8.72774 544.352> 1349.11 169<903.213 1153> 1362.37 187<12.6962 566.614>
LayerCount: 2
Fore
SplineSet
378.109 1393 m 0x80
 519.109 1027 627.968 795 783.708 675 c 0
 815.979 650.134 840.062 641.231 870.708 663 c 0
 1026.97 774 1160.11 1108 1280.11 1396 c 0
 1314.07 1477.49 1517.22 1468.79 1518.11 1410 c 0xa0
 1527.11 815 1527.85 605.607 1549.37 46 c 0
 1552.37 -32 1365.37 -31 1362.37 32 c 0x10
 1342.48 449.774 1352.11 735 1349.11 1153 c 1
 1273.97 953 1080.97 562 942.968 463 c 0
 877.878 416.305 811.646 407.817 743.968 459 c 0
 583.968 580 416.109 829 284.109 1167 c 1xa0
 294.968 764 319.109 429 304.37 31 c 0
 302.399 -22.2236 114.401 -41.0703 115.37 16 c 0x40
 124.109 531 125.849 818 100.109 1367 c 0
 93.9551 1498.26 348.959 1468.67 378.109 1393 c 0x80
EndSplineSet
EndChar

StartChar: N
Encoding: 78 78 40
Width: 1381
VWidth: 0
Flags: W
VStem: 100.051 177<895.72 1186.82> 128.851 192<-3.71655 545.803> 1084.05 188<907.13 1447.92>
LayerCount: 2
Fore
SplineSet
1245.05 44.8242 m 0xa0
 1211.9 -28.1045 1073.68 -48.8066 993.051 20.8242 c 0
 795.051 191.824 555.941 732 277.051 1186.82 c 1xa0
 293.941 732 300.941 516 320.851 21 c 0
 322.986 -32.1006 129.941 -60 128.851 22 c 0x60
 121.269 591.971 130.051 858.824 100.051 1398.82 c 0
 97.8008 1439.33 170.578 1477.53 205.051 1479.82 c 0
 235.051 1481.82 240.051 1473.82 248.051 1467.82 c 1
 284.051 1472.82 316.941 1460 338.051 1427.82 c 0
 641.941 971 950.651 245.334 1074.05 226.824 c 0
 1134.05 217.824 1095.94 816 1084.05 1412.82 c 0
 1082.29 1501.09 1272.05 1501.65 1272.05 1412.82 c 0
 1272.06 676.812 1305.05 176.824 1245.05 44.8242 c 0xa0
EndSplineSet
EndChar

StartChar: O
Encoding: 79 79 41
Width: 1292
VWidth: 0
Flags: W
LayerCount: 2
Fore
SplineSet
572.172 1263.04 m 0
 244 1170 196.27 790.384 226 612 c 0
 274 324 496 154 685 181 c 0
 879.882 208.84 1106.25 348.013 1085 756 c 0
 1070 1044 868 1296 598 1275 c 0
 596.844 1274.91 573.235 1263.34 572.172 1263.04 c 0
567.356 1455.05 m 0
 592.66 1462.23 614.874 1454.24 630.688 1442.6 c 1
 997 1464 1237.89 1184.69 1263.38 800.816 c 0
 1304 189 997.5 17 692.508 -10.3008 c 0
 421.246 -34.582 111.497 148.087 38.1514 559.473 c 0
 -13.9209 851.541 74.084 1315.15 567.356 1455.05 c 0
EndSplineSet
EndChar

StartChar: P
Encoding: 80 80 42
Width: 1110
VWidth: 0
Flags: W
HStem: 471.189 177.305<309.946 730.581>
VStem: 100 194.425<856.897 1253.67> 119.231 190.715<-2.815 471.189 723.835 1175.03>
LayerCount: 2
Fore
SplineSet
100 1385 m 0xc0
 95.7577 1487.58 229.139 1477.45 278.861 1427.17 c 1
 434.795 1462.37 613.566 1467.2 722.555 1436 c 0
 1036.94 1346 1131.23 1032.41 1054 782 c 0
 955 461 647.139 426.851 365.941 462 c 0
 346.492 464.431 327.827 467.526 309.946 471.189 c 1
 315.782 282.449 322.068 125.958 326.495 75.8936 c 0
 336.035 -31.9824 124.264 -67.6416 125.482 75.252 c 0
 125.977 133.37 123.208 324.468 119.231 544.716 c 1xa0
 115.371 547.127 111.607 549.556 107.941 552 c 0
 35.7846 600.105 52.4007 731.541 115.856 723.835 c 1
 110.273 1008.94 103.654 1296.64 100 1385 c 0xc0
304.858 648.494 m 1
 338.152 640.698 370.59 635.961 400 634 c 0
 535 625 748 644 838 794 c 0
 934.884 955.473 828.857 1199.6 691 1256 c 0
 563.935 1307.98 395.173 1273.79 294.425 1241.72 c 1xc0
 294.64 1094.48 299.083 865.728 304.858 648.494 c 1
EndSplineSet
EndChar

StartChar: Q
Encoding: 81 81 43
Width: 1347
VWidth: 0
Flags: W
LayerCount: 2
Fore
SplineSet
582.172 1263.04 m 0
 254 1170 206.27 790.384 236 612 c 0
 284 324 506 154 695 181 c 0
 741.356 187.622 789.494 200.544 835.657 221.885 c 1
 823.131 235.455 812.132 247.955 803 259 c 0
 746.408 327.45 899.834 453.493 956 388 c 0
 966.424 375.845 978.766 361.703 992.641 346.12 c 1
 1061.46 435.406 1104.85 566.798 1095 756 c 0
 1080 1044 878 1296 608 1275 c 0
 606.844 1274.91 583.235 1263.34 582.172 1263.04 c 0
577.356 1455.05 m 0
 602.66 1462.23 624.874 1454.24 640.688 1442.6 c 1
 1007 1464 1247.89 1184.69 1273.38 800.816 c 0
 1292.63 510.828 1233.9 319.648 1134.31 195.85 c 1
 1214.62 115.709 1302.97 36.7928 1372 -2 c 0
 1419.59 -28.7451 1385 -158 1265 -116 c 0
 1191.42 -90.247 1084.83 -10.5171 989.694 73.044 c 1
 901.903 22.9701 802.125 -1.38371 702.508 -10.3008 c 0
 431.246 -34.582 121.497 148.087 48.1514 559.473 c 0
 -3.9209 851.541 84.084 1315.15 577.356 1455.05 c 0
EndSplineSet
EndChar

StartChar: R
Encoding: 82 82 44
Width: 1106
VWidth: 0
Flags: W
VStem: 102.032 200.032<920.056 1246.99> 123.464 198<33.4707 607.482>
LayerCount: 2
Fore
SplineSet
102.032 1246.99 m 1x80
 97.8398 1246 93.6504 1245 89.4639 1244 c 0
 12.4492 1225.51 -8.93359 1392.85 53.4639 1405 c 0
 72.2363 1408.65 91.5098 1412.31 111.221 1415.87 c 1
 129.69 1447.74 229.211 1447.83 258.745 1430.09 c 1
 481.303 1462.65 820.919 1452.27 973 1310 c 0
 1066 1223 1101.4 1089.11 1033 935 c 0
 950.004 748 636 722 490 723 c 1
 700 437 841 293 1087.46 70 c 0
 1132.5 29.2441 955.796 -80.501 849.464 25 c 0
 662 211 536 350 302.064 663.654 c 1x80
 309.26 423.42 317.372 140.928 321.464 82 c 0
 328.968 -26.0361 119.552 -58.8447 123.464 84 c 0x40
 127.105 216.918 108.883 959.37 102.032 1246.99 c 1x80
298.968 1264.48 m 1
 295.348 1158.78 295 1055 301 911 c 1
 555.43 887.305 772 923 835 995 c 0
 881.119 1047.71 879.97 1142.23 838 1187 c 0
 748 1283 490.746 1297.43 298.968 1264.48 c 1
EndSplineSet
EndChar

StartChar: S
Encoding: 83 83 45
Width: 1012
VWidth: 0
Flags: W
LayerCount: 2
Fore
SplineSet
767.593 1215 m 0
 662.593 1284 422.985 1288.12 311.593 1230 c 0
 242.593 1194 207.968 1106.2 242.593 1032 c 0
 320.593 864.843 923.135 693 977.593 438 c 0
 1048.3 106.88 716.456 -13 515.318 -13 c 0
 315.318 -13 134.593 50 44.5928 192 c 0
 -28.8555 307.885 123.39 432.457 185.593 324 c 0
 302.593 120 803.593 135 779.593 363 c 0
 757.866 569.402 147.42 695.357 50.8604 979 c 0
 2.86035 1120 56.8604 1273 188.86 1360 c 0
 377.908 1484.6 717.601 1464.99 837.86 1380 c 0
 945.402 1304 838.239 1168.57 767.593 1215 c 0
EndSplineSet
EndChar

StartChar: T
Encoding: 84 84 46
Width: 1220
VWidth: 0
Flags: W
HStem: 1267.3 172<31.3684 105.501 810.368 1193.25>
VStem: 491.218 193.211<725.334 1254.33> 504.231 198<26.7695 608.087>
LayerCount: 2
Fore
SplineSet
38.2314 1439.3 m 0xc0
 530.231 1421.3 722.582 1433.85 1176.23 1451.3 c 0
 1254.23 1454.3 1269.6 1290.9 1203.23 1285.3 c 0
 989.1 1267.22 853.326 1258.05 684.429 1255.25 c 1xc0
 673.457 1029.19 692.795 211.195 702.231 75.2988 c 0
 709.735 -32.7373 500.319 -65.5459 504.231 77.2988 c 0xa0
 508.009 215.172 494.538 1002.31 491.218 1254.33 c 1
 338.987 1254.67 230.757 1259.6 38.2314 1267.3 c 0
 -36.7686 1270.3 -54.8994 1442.71 38.2314 1439.3 c 0xc0
EndSplineSet
EndChar

StartChar: U
Encoding: 85 85 47
Width: 1337
VWidth: 0
Flags: W
VStem: 94.834 200.001<862.558 1433.47> 1027.83 195<902.601 1438.33>
LayerCount: 2
Fore
SplineSet
94.834 1400.45 m 0
 99.4609 1491.13 298.905 1494.11 294.835 1397.45 c 0
 282.835 1112.45 162.031 183.93 667.833 183.449 c 0
 1140.06 183 1075.83 1001.45 1027.83 1388.45 c 0
 1014.46 1496.29 1214.74 1500.25 1222.83 1427.45 c 0
 1264.83 1049.45 1290.73 475.092 1090.83 197.449 c 0
 874.835 -102.55 459.835 -48.5498 264.834 176.449 c 0
 53.5391 420.251 79.834 1106.45 94.834 1400.45 c 0
EndSplineSet
EndChar

StartChar: V
Encoding: 86 86 48
Width: 1252
VWidth: 0
Flags: W
VStem: -22.3721 201<1273.09 1413.16>
LayerCount: 2
Fore
SplineSet
-22.3721 1361.12 m 0
 -50.2764 1443.91 152.627 1498.12 178.628 1410.12 c 0
 280.945 1063.82 494.971 549 650.971 241 c 1
 770.387 592.229 959.476 1079.33 1092.62 1416.12 c 0
 1126.62 1502.12 1297.73 1431.35 1275.62 1374.12 c 0
 1139.62 1022.12 908.387 435 765.971 42 c 0
 734.56 -44.6807 572.971 -28 540.971 38 c 0
 377.307 375.56 97.627 1005.12 -22.3721 1361.12 c 0
EndSplineSet
EndChar

StartChar: W
Encoding: 87 87 49
Width: 1869
VWidth: 0
Flags: W
LayerCount: 2
Fore
SplineSet
-20.9648 1366 m 0
 -55.1719 1450.59 138.304 1500.54 176.035 1402 c 0
 323.456 1017 450.439 620.8 538.035 220 c 1
 611.456 405 792.035 821 888.035 965 c 0
 926.594 1022.84 1076.51 1012.44 1109.04 951 c 0
 1217.04 747 1330.04 473 1390.04 221 c 1
 1479.46 545 1656.04 1215 1719.04 1413 c 0
 1747.99 1503.99 1914.88 1403.48 1893.04 1317 c 0
 1818.04 1020 1677.03 522 1539.04 45 c 0
 1513.8 -42.1836 1263.07 -57.4111 1250.04 27 c 0
 1211.46 277 1095.46 537 991.035 750 c 1
 898.035 603 748.035 237 691.035 54 c 0
 663.512 -34.3613 397.212 -39.0488 378.035 66 c 0
 311.439 430.8 144.035 958 -20.9648 1366 c 0
EndSplineSet
EndChar

StartChar: X
Encoding: 88 88 50
Width: 1113
VWidth: 0
Flags: W
LayerCount: 2
Fore
SplineSet
866.834 1405.1 m 0
 932.872 1514.83 1103.19 1393.83 1052.61 1329 c 0
 1010.74 1275.32 838.272 1008.11 661.928 729.558 c 1
 848.43 443.974 1032.83 166.677 1074.6 110.648 c 0
 1139.33 23.8271 956.711 -85.6504 882.759 36.624 c 0
 850.456 90.0369 709.851 309.426 551.642 554.684 c 1
 398.886 311.541 263.945 92.7879 234.961 39.083 c 0
 183.527 -56.2207 -34.9658 -2.97168 44.7295 115.64 c 0
 84.5202 174.86 259.705 447.524 439.212 728.748 c 1
 260.517 1005.06 86.1683 1273.03 39.0566 1342.82 c 0
 -32.6006 1448.97 191.151 1486.2 228.616 1413 c 0
 255.786 1359.92 392.936 1143.95 549.692 902.064 c 1
 697.438 1134.17 829.125 1342.45 866.834 1405.1 c 0
EndSplineSet
EndChar

StartChar: Y
Encoding: 89 89 51
Width: 1106
VWidth: 0
Flags: W
LayerCount: 2
Fore
SplineSet
567.833 16 m 0
 507.833 -96 293.941 13.7109 348.419 75.293 c 0
 420.746 157.055 519.833 372 554.314 444.277 c 1
 427.368 695 115.368 1171 -14.6318 1326 c 0
 -67.8115 1389.41 97.7324 1511.56 161.368 1419 c 0
 293.368 1227 516.167 892.698 661.413 641 c 1
 793.783 957.912 915.69 1284.67 926.833 1380 c 0
 939.405 1487.56 1169.38 1459.1 1125.83 1323 c 0
 1084.08 1192.53 915.851 786.834 770.185 455.912 c 1
 771.402 453.608 772.619 451.304 773.833 449 c 0
 804.762 390.285 761.073 343.493 719.739 341.793 c 1
 671.833 240 613.247 100.773 567.833 16 c 0
EndSplineSet
EndChar

StartChar: Z
Encoding: 90 90 52
Width: 1172
VWidth: 0
Flags: W
HStem: -1 177<259.556 518.096 976.271 1121.83> 1239 186<61.3641 332.279 624.164 850.555>
LayerCount: 2
Fore
SplineSet
96.5547 1239 m 0
 2.89062 1231.08 6.48535 1422.5 76.5547 1425 c 0
 356.556 1435 731.556 1444 1015.56 1434 c 0
 1135.64 1429.77 1138.94 1307.38 1081.56 1244 c 0
 836.175 973 488.175 529 259.556 176 c 1
 531.556 196 818.556 200 1092.56 185 c 0
 1169.76 180.773 1162.53 -3.65039 1090.56 0 c 0
 814.556 14 444.556 15 134.556 -1 c 0
 38.6826 -5.94824 14.501 130.471 50.5547 187 c 0
 287.175 558 622.999 995 850.555 1245 c 1
 594.556 1255 403.999 1265 96.5547 1239 c 0
EndSplineSet
EndChar

StartChar: zero
Encoding: 48 48 53
Width: 1349
VWidth: 0
Flags: W
LayerCount: 2
Fore
SplineSet
531 1254 m 0
 523.788 1252.92 517.033 1254.4 510.833 1257.86 c 1
 504.937 1250.01 497.698 1242.64 489 1236 c 0
 248.931 1052.72 218.609 775.44 248 597 c 0
 290 342 491 162 692 177 c 0
 940.381 195.536 1148.03 374.692 1109 765 c 0
 1076 1095 912 1311 531 1254 c 0
478.929 1410.87 m 1
 485.585 1424.7 495.952 1434.37 510.615 1436.6 c 0
 1010.62 1512.6 1268.93 1224 1292.93 770 c 0
 1324.4 174.713 1025.43 17 720.436 -10.3008 c 0
 449.174 -34.582 139.424 148.087 66.0791 559.473 c 0
 14.0068 851.541 110 1237 413 1405 c 0
 437.281 1418.46 459.999 1418.89 478.929 1410.87 c 1
EndSplineSet
EndChar

StartChar: one
Encoding: 49 49 54
Width: 466
VWidth: 0
Flags: W
VStem: 119.646 197.05<865.143 1421.26> 145.128 201.013<26.4102 593.851>
LayerCount: 2
Fore
SplineSet
119.646 1384.2 m 0x80
 114.354 1512.16 323.218 1464.74 316.696 1382.77 c 0x80
 305.378 1240.53 333.426 218.879 346.141 75.0938 c 0
 355.681 -32.7822 143.91 -68.4414 145.128 74.4521 c 0x40
 146.373 220.501 127.003 1206.31 119.646 1384.2 c 0x80
EndSplineSet
EndChar

StartChar: two
Encoding: 50 50 55
Width: 1071
VWidth: 0
Flags: W
LayerCount: 2
Fore
SplineSet
729 956 m 0
 793.436 1108 769.561 1222.03 671 1260 c 0
 549 1307 303 1283 144 1151 c 0
 79.3262 1097.31 2.41016 1259.94 74.9863 1320 c 0
 248.986 1464 482.738 1462.14 677.986 1437 c 0
 942 1403 1016.28 1181.12 908 913 c 0
 845 757 513 394 327.55 178 c 1
 479.986 196 776.986 200 960.55 188 c 0
 1050.41 182.126 1044.13 -2.12988 964.55 6 c 0
 758.986 27 423.986 15 177.55 0 c 0
 73.7422 -6.31836 61.3613 137.687 97.9863 182 c 0
 367.423 508 669.901 816.593 729 956 c 0
EndSplineSet
EndChar

StartChar: three
Encoding: 51 51 56
Width: 1083
VWidth: 0
Flags: W
HStem: 25.1523 196.848<86.5352 374.95>
LayerCount: 2
Fore
SplineSet
958.027 1020 m 0
 931.322 930.047 875.027 850 744.027 805 c 1
 867 758 983.027 688 1033.03 544 c 0
 1091.77 374.832 1053 185 829.027 62 c 0
 678.429 -20.7051 321.027 -25.6953 99.0273 25.1523 c 0
 23.1084 42.541 53.3828 247.139 129.027 222 c 0
 282.027 171.152 585.695 146.626 735.027 220 c 0
 849 276 900 407 864.027 500 c 0
 809.34 641.384 589.027 716 396.027 702.843 c 0
 296.863 696.083 308.6 899.851 393.027 896.843 c 0
 557.027 891 717 911 780 1055 c 0
 800.548 1101.97 789 1180 726 1225 c 0
 590.254 1321.96 357 1288 189 1184 c 0
 117.53 1139.76 36.1406 1304.42 118.027 1351 c 0
 336.027 1475 622.683 1467.89 772.027 1402 c 0
 942.027 1327 996.027 1148 958.027 1020 c 0
EndSplineSet
EndChar

StartChar: four
Encoding: 52 52 57
Width: 1091
VWidth: 0
Flags: W
HStem: 435.229 185<252.148 772.375>
VStem: 763 197.05<850.943 1407.06> 783.479 206.016<24.6835 448.99>
LayerCount: 2
Fore
SplineSet
206 1402 m 0xa0
 239.385 1482.68 429.264 1433.93 402 1376 c 0
 322 1206 235 1002 218 773 c 0
 209.534 658.959 276.467 631.227 379 620.229 c 0
 491.657 608.144 615.056 631.663 780.081 645.509 c 1
 774.271 950.157 766.925 1275.08 763 1370 c 0
 757.708 1497.96 966.572 1450.54 960.05 1368.57 c 0xc0
 948.732 1226.33 976.78 204.679 989.495 60.8936 c 0
 999.035 -46.9824 787.265 -82.6416 788.482 60.252 c 0
 788.924 112.073 786.771 269.615 783.479 459.277 c 1
 638.51 437.86 550.998 435.228 322 435.229 c 0
 151 435.229 13 516 27 760 c 0
 43.7275 1051.53 134 1228 206 1402 c 0xa0
EndSplineSet
EndChar

StartChar: five
Encoding: 53 53 58
Width: 1149
VWidth: 0
Flags: W
HStem: 20 194<149.02 691.896> 1252 175<538.016 1045.45>
VStem: 74.8564 191<980.938 1252>
LayerCount: 2
Fore
SplineSet
1046.86 1254 m 0
 702.856 1266 560.856 1270 265.856 1252 c 1
 263.578 1145.66 259.856 1082 251.449 976 c 1
 594.856 1003 826.472 944.641 984 749 c 0
 1170 518 1074 233 948 128 c 0
 748.944 -37.8809 417.856 -43 162.856 20 c 0
 101.626 35.1279 106 238 196 214 c 0
 410.623 156.768 621 143 786 245 c 0
 882.057 304.381 934.923 486.044 855 605 c 0
 726 797 467.856 841 163.449 790 c 0
 113.617 781.651 63.7549 881.939 65.4492 933 c 0
 69 1040 80.8564 1170 74.8564 1327 c 0
 73.0596 1374.03 96.9414 1422.28 143.856 1426 c 0
 446.856 1450 740.856 1442 1045.45 1427 c 0
 1114.62 1423.59 1106.82 1251.91 1046.86 1254 c 0
EndSplineSet
EndChar

StartChar: six
Encoding: 54 54 59
Width: 1178
VWidth: 0
Flags: W
VStem: 25.9697 184.03<661.626 992.109>
LayerCount: 2
Fore
SplineSet
438 1370 m 0
 309.069 1171.65 211.03 976 210 658 c 1
 270.03 785 377 957.843 629 984.843 c 0
 989.452 1023.46 1188.13 755.389 1122.01 462 c 0
 1058.01 178 809.932 -48.1416 471.014 4 c 0
 120.014 58 15.2236 375.97 25.9697 727 c 0
 34.9697 1021 161.044 1289 272.044 1436 c 0
 311.733 1488.56 477 1430 438 1370 c 0
260 421 m 1
 275 364 327 209 504 185 c 0
 707.219 157.445 884.986 308 930 470 c 0
 997.009 711.158 810 854 618 818 c 0
 411.641 779.308 291 602 260 421 c 1
EndSplineSet
EndChar

StartChar: seven
Encoding: 55 55 60
Width: 1064
VWidth: 0
Flags: W
HStem: 1268 175<-16.4549 828>
VStem: 333 195.801<4.61804 193.743>
LayerCount: 2
Fore
SplineSet
11 1443 m 0
 398 1422 570.37 1430.94 920.001 1443 c 0
 1007 1446 1064.98 1344.49 1040 1293 c 0
 797 791.998 663.753 583.382 528.801 21.0879 c 0
 510.8 -53.9121 312.348 -28.9102 333 46.1865 c 0
 465 526.188 540 706.998 828 1271 c 1
 594 1256 359 1250 5 1268 c 0
 -58.2031 1271.21 -52.1924 1446.43 11 1443 c 0
EndSplineSet
EndChar

StartChar: eight
Encoding: 56 56 61
Width: 1061
VWidth: 0
Flags: W
LayerCount: 2
Fore
SplineSet
673 199 m 0
 807 235 872.94 379.983 839 502 c 0
 805 624.229 695 690 525 696 c 0
 514.55 696.369 505.204 698.648 496.963 702.432 c 1
 489.151 699.082 480.484 696.847 471 696 c 0
 247 676 167.901 467.572 219 338 c 0
 275 196 465.239 143.184 673 199 c 0
495 920 m 0
 624.915 902.512 729 959 747 1052 c 0
 761.245 1125.6 735 1193 639 1235 c 0
 629.945 1238.96 623.227 1244.78 618.557 1251.88 c 1
 609.959 1251.32 601.329 1252.87 593 1257 c 0
 456 1325 294.806 1230.3 276 1130 c 0
 258 1034 339 941 495 920 c 0
268.081 814.186 m 1
 142.224 883.695 67.4368 1002.75 87.6494 1155 c 0
 111.825 1337.1 349.649 1526 651.649 1425 c 0
 673.517 1417.69 687.485 1405.53 695.256 1390.94 c 1
 703.245 1391.7 711.433 1390.84 719.649 1388 c 0
 879 1333 967.027 1153.41 933 1016 c 0
 913.465 937.115 869.235 867.485 801.165 818.72 c 1
 909.294 767.669 973.765 683.125 1015.65 562 c 0
 1089.65 348 963 92 731.649 27 c 0
 501.464 -37.6729 154.999 -42.1123 48.0723 281.621 c 0
 -14.9769 472.51 48.8959 706.384 268.081 814.186 c 1
EndSplineSet
EndChar

StartChar: nine
Encoding: 57 57 62
Width: 1085
VWidth: 0
Flags: W
VStem: 777.17 183.83<843.373 1250.12> 789.432 201.013<33.7534 572.081>
LayerCount: 2
Fore
SplineSet
748 1243 m 0x80
 703 1270 574.363 1279.78 472 1250 c 0
 307 1202 153.284 906.372 256 732.843 c 0
 330.006 607.817 584.318 534.414 777.17 832.314 c 1
 773.988 986.344 770.68 1131.83 767.904 1235.54 c 1
 761.343 1236.58 754.675 1238.99 748 1243 c 0x80
781.65 605.224 m 1
 566.431 346.217 174.657 406.219 64 690 c 0
 -34 942 120 1343 430 1434 c 0
 548.634 1468.47 705.178 1448.96 786.321 1422.35 c 1
 839.087 1468.21 966.108 1425.2 961 1361 c 0x80
 949.682 1218.76 977.73 197.109 990.445 53.3242 c 0
 999.985 -54.5518 788.214 -90.2109 789.432 52.6816 c 0x40
 789.989 118.007 786.422 351.333 781.65 605.224 c 1
EndSplineSet
EndChar

StartChar: period
Encoding: 46 46 63
Width: 462
VWidth: 0
Flags: W
LayerCount: 2
Fore
SplineSet
115.01 150 m 0
 126.01 229 248.01 276 307.01 222 c 0
 371.01 163 359.01 31 277.01 0 c 0
 196.01 -30 104.01 65 115.01 150 c 0
EndSplineSet
EndChar

StartChar: slash
Encoding: 47 47 64
Width: 750
VWidth: 0
Flags: W
LayerCount: 2
Fore
SplineSet
526.17 1425.3 m 0
 565.572 1547.16 733.707 1463.92 699.17 1389.3 c 0
 639.237 1259.81 144.925 -104.725 107 -244 c 0
 78.5479 -348.491 -119.235 -329.665 -68.5508 -196.057 c 0
 -16.7461 -59.498 471.394 1255.89 526.17 1425.3 c 0
EndSplineSet
EndChar

StartChar: comma
Encoding: 44 44 65
Width: 376
VWidth: 0
Flags: W
VStem: 112.701 182.601<-252.451 174.257>
LayerCount: 2
Fore
SplineSet
112.701 132.319 m 0
 100.278 216.243 280.278 226.243 295.302 156 c 0
 327.05 7.56055 286.219 -217.773 225.958 -301.061 c 0
 170.36 -377.903 33.2949 -301.852 79.2744 -232.097 c 0
 153.546 -119.421 132.104 1.24707 112.701 132.319 c 0
EndSplineSet
EndChar

StartChar: plus
Encoding: 43 43 66
Width: 947
VWidth: 0
Flags: W
HStem: 448.189 177<66.258 398.439 562.623 905.586>
VStem: 398.439 164.157<110.682 452.004 616.21 940.58>
LayerCount: 2
Fore
SplineSet
844.428 450.59 m 0
 774.905 452.152 671.516 452.738 562.623 452.634 c 1
 563.589 340.95 566.651 238.578 572.532 181.873 c 0
 581.016 100.08 397.328 49.1348 399.557 177.184 c 0
 400.749 245.789 400.758 346.171 400.047 452.004 c 1
 285.742 451.239 181.134 449.853 120.433 448.189 c 0
 -22.4131 444.277 10.3955 632.694 118.433 625.189 c 0
 176.802 621.136 283.146 617.806 398.439 616.21 c 1
 397.003 729.031 395.007 832.399 393.033 893.155 c 0
 388.396 1035.98 576.979 1003.94 570.021 895.866 c 0
 566.225 836.882 563.491 730.286 562.596 615.216 c 1
 677.454 615.471 782.991 617.927 840.428 623.59 c 0
 922.262 631.657 972.459 447.713 844.428 450.59 c 0
EndSplineSet
EndChar

StartChar: hyphen
Encoding: 45 45 67
Width: 660
VWidth: 0
Flags: W
HStem: 447.189 178<66.258 592.076>
LayerCount: 2
Fore
SplineSet
557.428 449.59 m 0
 379.428 453.59 266.433 451.189 120.433 447.189 c 0
 -22.4131 443.277 10.3955 632.694 118.433 625.189 c 0
 262.433 615.189 411.428 609.59 553.428 623.59 c 0
 635.262 631.657 685.463 446.713 557.428 449.59 c 0
EndSplineSet
EndChar

StartChar: semicolon
Encoding: 59 59 68
Width: 462
VWidth: 0
Flags: W
VStem: 144.399 182.601<-252.451 174.257>
LayerCount: 2
Fore
SplineSet
104 879 m 0
 115 958 237 1005 296 951 c 0
 360 892 348 760 266 729 c 0
 185 699 93 794 104 879 c 0
144.399 132.319 m 0
 131.977 216.243 311.977 226.243 327 156 c 0
 358.748 7.56055 317.917 -217.773 257.656 -301.061 c 0
 202.059 -377.903 64.9932 -301.852 110.973 -232.097 c 0
 185.244 -119.421 163.802 1.24707 144.399 132.319 c 0
EndSplineSet
EndChar

StartChar: colon
Encoding: 58 58 69
Width: 462
VWidth: 0
Flags: W
LayerCount: 2
Fore
SplineSet
115.01 150 m 0
 126.01 229 248.01 276 307.01 222 c 0
 371.01 163 359.01 31 277.01 0 c 0
 196.01 -30 104.01 65 115.01 150 c 0
104 879 m 0
 115 958 237 1005 296 951 c 0
 360 892 348 760 266 729 c 0
 185 699 93 794 104 879 c 0
EndSplineSet
EndChar

StartChar: backslash
Encoding: 92 92 70
Width: 804
VWidth: 0
Flags: W
LayerCount: 2
Fore
SplineSet
675 -236 m 0
 620.223 -66.5908 91.9746 1351.44 40.1699 1488 c 0
 -10.5146 1621.61 184.268 1640.43 212.72 1535.94 c 0
 250.646 1396.66 785.066 -70.5088 845 -200 c 0
 879.537 -274.622 714.401 -357.859 675 -236 c 0
EndSplineSet
EndChar

StartChar: quotesingle
Encoding: 39 39 71
Width: 340
VWidth: 0
Flags: W
VStem: 55.3926 189<1074.69 1413.91>
LayerCount: 2
Fore
SplineSet
55.3926 1404 m 0
 59.3955 1486.47 241.651 1452.63 244.393 1385 c 0
 247.393 1311 256.393 1122 281.393 1046 c 0
 308.525 963.515 147.209 921.847 117.393 1010 c 0
 94.3926 1078 50.3926 1301 55.3926 1404 c 0
EndSplineSet
EndChar

StartChar: quotedbl
Encoding: 34 34 72
Width: 638
VWidth: 0
Flags: W
VStem: 55.3926 189<1074.69 1413.91> 354 189<1073.69 1412.91>
LayerCount: 2
Fore
SplineSet
55.3926 1404 m 0
 59.3955 1486.47 241.651 1452.63 244.393 1385 c 0
 247.393 1311 256.393 1122 281.393 1046 c 0
 308.525 963.515 147.209 921.847 117.393 1010 c 0
 94.3926 1078 50.3926 1301 55.3926 1404 c 0
354 1403 m 0
 358.003 1485.47 540.259 1451.63 543 1384 c 0
 546 1310 555 1121 580 1045 c 0
 607.133 962.515 445.816 920.847 416 1009 c 0
 393 1077 349 1300 354 1403 c 0
EndSplineSet
EndChar

StartChar: dollar
Encoding: 36 36 73
Width: 1012
VWidth: 0
Flags: W
HStem: -8.90267 195.641<289.481 428.979 564.108 709.948> 1269.51 178.813<305.658 430.827 561.228 747.528>
VStem: 431.486 127.229<-171.681 -6.33325 186.739 577.782 874.43 1264.4 1448.33 1631.67>
LayerCount: 2
Fore
SplineSet
429.593 1560 m 0
 426.716 1688.04 573.66 1637.83 565.593 1556 c 0
 563.832 1538.14 562.387 1500.6 561.228 1448.33 c 1
 676.3 1445.46 781.326 1419.95 837.859 1380 c 0
 945.401 1304 838.238 1168.57 767.593 1215 c 0
 718.463 1247.29 639.862 1265.37 558.715 1269.51 c 1
 557.548 1136.54 557.176 971.859 557.425 802.739 c 1
 743.695 698.112 947.019 581.161 977.593 438 c 0
 1042.83 132.501 765.399 6.81662 564.108 -10.8044 c 1
 565.189 -61.6345 566.361 -98.2513 567.594 -116 c 0
 575.098 -224.036 423.681 -256.845 427.593 -114 c 0
 428.088 -95.9226 428.553 -59.3867 428.979 -8.90267 c 1
 264.368 7.1298 121.423 70.7795 44.5928 192 c 0
 -28.8564 307.885 123.39 432.457 185.593 324 c 0
 229.311 247.774 326.643 202.124 430.167 186.739 c 1
 430.773 319.61 431.232 482.103 431.501 648.574 c 1
 267.674 739.602 98.0082 840.504 50.8604 979 c 0
 2.86035 1120 56.8604 1273 188.859 1360 c 0
 256.03 1404.27 342.219 1430.34 430.827 1441.73 c 1
 430.505 1496.58 430.097 1537.58 429.593 1560 c 0
558.106 577.782 m 1
 558.756 435.235 559.797 298.202 561.124 183.421 c 1
 686.861 196.124 790.836 256.189 779.593 363 c 0
 771.285 441.918 676.913 509.075 558.106 577.782 c 1
431.745 874.43 m 1
 431.821 1015.32 431.744 1150.64 431.486 1264.4 c 1
 385.195 1257.99 343.224 1246.5 311.593 1230 c 0
 242.593 1194 207.968 1106.2 242.593 1032 c 0
 266.542 980.676 339.943 928.91 431.745 874.43 c 1
EndSplineSet
EndChar

StartChar: percent
Encoding: 37 37 74
Width: 1174
VWidth: 0
Flags: W
LayerCount: 2
Fore
SplineSet
883.08 1295.93 m 0
 950.239 1404.98 1098.11 1294.7 1046.87 1230.39 c 0
 957.96 1118.79 340.99 153.32 271.138 27 c 0
 218.734 -67.7715 26.792 -13.0371 107.696 104.754 c 0
 190.389 225.145 789.718 1144.33 883.08 1295.93 c 0
36.3096 1186 m 0
 87.3096 1393 369.31 1420 480.31 1267 c 0
 595.347 1108.44 519.31 877 327.31 844 c 0
 135.788 811.082 -18.8623 962.065 36.3096 1186 c 0
204.138 1206.34 m 0
 116.138 1138.34 152.138 1004.34 242.138 984.343 c 0
 313.747 968.433 389.641 1012.61 400.138 1098.34 c 0
 412.138 1196.34 279.924 1264.9 204.138 1206.34 c 0
821.138 349 m 0
 733.138 281 769.138 147 859.138 127 c 0
 930.747 111.087 1006.64 155.27 1017.14 241 c 0
 1029.14 339 896.924 407.562 821.138 349 c 0
651.31 331 m 0
 702.31 538 984.31 565 1095.31 412 c 0
 1210.35 253.436 1134.31 22 942.31 -11 c 0
 750.788 -43.918 596.138 107.066 651.31 331 c 0
EndSplineSet
EndChar

StartChar: equal
Encoding: 61 61 75
Width: 1116
VWidth: 0
Flags: W
HStem: 245 171<66.258 1035.67> 600 171<72.8248 1042.24>
LayerCount: 2
Fore
SplineSet
1007.43 245 m 0
 829.432 249 266.433 251 120.433 247 c 0
 -22.4131 243.088 10.3955 429.505 118.433 422 c 0
 262.433 412 861.432 402 1003.43 416 c 0
 1085.27 424.066 1135.47 242.123 1007.43 245 c 0
1014 600 m 0
 835.998 604 272.999 606 126.999 602 c 0
 -15.8457 598.088 16.9629 784.506 124.999 777 c 0
 268.999 767 867.998 757 1010 771 c 0
 1091.84 779.066 1142.04 597.123 1014 600 c 0
EndSplineSet
EndChar

StartChar: question
Encoding: 63 63 76
Width: 960
VWidth: 0
Flags: W
HStem: 1235 184<90.3411 644.364>
LayerCount: 2
Fore
SplineSet
368 372 m 0
 285.847 414.72 244.992 509.918 285.612 586 c 0
 380.472 763.673 562.455 923.038 668 1041 c 0
 770 1155 728 1233 647 1257 c 0
 503.282 1299.58 281.978 1263.11 140 1235 c 0
 39 1215 22.0391 1401.36 122.612 1419 c 0
 333.612 1456 529.612 1448 671.612 1424 c 0
 901.693 1385.11 1006.83 1196.52 824.612 972 c 0
 705.848 825.666 543.476 693.844 467 561 c 0
 433.806 503.34 447.612 462 493.612 430 c 0
 589.148 363.541 468 320 368 372 c 0
500 150 m 0
 511 229 633 276 692 222 c 0
 756 163 744 31 662 0 c 0
 581 -30 489 65 500 150 c 0
EndSplineSet
EndChar

StartChar: exclam
Encoding: 33 33 77
Width: 466
VWidth: 0
Flags: W
VStem: 116.139 197.05<848.248 1421.26> 127.987 201.013<466.316 1050.64>
LayerCount: 2
Fore
SplineSet
116.139 1384.2 m 0x80
 110.847 1512.16 319.711 1464.74 313.189 1382.77 c 0x80
 301.871 1240.53 316.285 658.785 329 515 c 0
 338.54 407.124 126.77 371.465 127.987 514.358 c 0x40
 129.232 660.407 123.496 1206.31 116.139 1384.2 c 0x80
120.01 150 m 0
 131.01 229 253.01 276 312.01 222 c 0
 376.01 163 364.01 31 282.01 0 c 0
 201.01 -30 109.01 65 120.01 150 c 0
EndSplineSet
EndChar

StartChar: parenleft
Encoding: 40 40 78
Width: 780
VWidth: 0
Flags: W
HStem: -300 109<642.046 732.521> 1394 106<609.512 686.722>
LayerCount: 2
Fore
SplineSet
705.903 1394 m 0
 447.903 1310 184.903 1004 220.903 540 c 0
 253.296 122.495 464.903 -125 767.903 -191 c 0
 838.524 -206.383 737.354 -317.709 656.903 -300 c 0
 338.903 -230 86.9033 32 43.9033 546 c 0
 1.64062 1051.18 309.903 1425 612.903 1500 c 0
 699.78 1521.5 760.028 1411.62 705.903 1394 c 0
EndSplineSet
EndChar

StartChar: parenright
Encoding: 41 41 79
Width: 785
VWidth: 0
Flags: W
HStem: -294 109<103.968 192.59> 1393 108<41.7874 123.055>
LayerCount: 2
Fore
SplineSet
23.7295 1393 m 0
 -31.002 1408.64 20.7451 1517.39 108.729 1501 c 0
 414.729 1444 697.686 1053.49 723.729 642 c 0
 753.729 168 495.729 -224 177.729 -294 c 0
 97.2803 -311.709 4.11035 -200.383 74.7295 -185 c 0
 377.729 -119 591.729 234 561.729 636 c 0
 534.924 995.201 296.729 1315 23.7295 1393 c 0
EndSplineSet
EndChar

StartChar: asterisk
Encoding: 42 42 80
Width: 687
VWidth: 0
Flags: W
HStem: 1228 140<62.7474 194.642 484.604 653.236>
LayerCount: 2
Fore
SplineSet
452.683 1233.64 m 1
 480.22 1197.35 507.846 1162.44 534.969 1130 c 0
 587.71 1066.91 499.927 941.605 427.162 1046.99 c 0
 396.504 1091.4 367.299 1132.54 339.006 1171.55 c 1
 312.463 1134.34 287.274 1097.45 264.304 1061.79 c 0
 219.771 992.658 74.0176 1039.16 152.969 1140 c 0
 177.562 1171.41 200.691 1201.53 222.727 1230.71 c 1
 188.592 1229.88 154.694 1228.94 120.469 1228 c 0
 -22.376 1224.09 10.3291 1373.83 118.469 1368 c 0
 143.332 1366.66 168.798 1365.49 194.642 1364.51 c 1
 180.392 1383.15 166.131 1401.74 151.777 1420.46 c 0
 64.8291 1533.86 205.29 1595.19 263.997 1504.19 c 0
 287.935 1467.08 313.413 1428.75 339.821 1390.3 c 1
 369.539 1431.83 398.32 1472.66 427.535 1514.07 c 0
 509.913 1630.83 610.277 1514.99 540.875 1431.86 c 0
 522.341 1409.66 503.501 1386.67 484.604 1363.15 c 1
 517.467 1364.25 549.582 1365.85 580.469 1368 c 0
 662.501 1373.72 712.504 1229.12 584.469 1232 c 0
 538.232 1233.04 494.562 1233.54 452.683 1233.64 c 1
EndSplineSet
EndChar

StartChar: numbersign
Encoding: 35 35 81
Width: 1281
VWidth: 0
Flags: W
HStem: 446.184 156.682<68.5597 263.046 459.528 730.396 926.307 1192.06> 826.252 147.818<94.2516 325.271 518.378 792.552 985.313 1220.46>
LayerCount: 2
Fore
SplineSet
792.552 826.252 m 1
 670.168 825.909 611.771 825.092 493.232 824.058 c 1
 475.918 717.559 476.338 712.729 459.528 603.715 c 1
 576.837 602.49 634.602 602.127 756.313 602.865 c 1
 774.402 711.971 774.9 717.907 792.552 826.252 c 1
408.795 1368.5 m 0
 426.895 1495.29 605.379 1434.38 584.039 1354.97 c 0
 572.658 1312.62 544.875 1132.68 518.378 974.35 c 1
 638.953 973.29 697.425 973.11 816.97 974.07 c 1
 842.315 1130.93 867.686 1313.76 875.395 1367.76 c 0
 893.494 1494.55 1071.98 1433.64 1050.64 1354.23 c 0
 1039.31 1312.06 1011.67 1133.01 985.313 975.63 c 1
 1072.64 977.17 1141.96 979.561 1176.39 982.96 c 0
 1258.22 991.02 1304.42 822.079 1176.39 824.956 c 0
 1131.64 825.962 1053.93 826.398 960.337 826.425 c 1
 942.929 719.414 943.229 713.861 926.307 604.139 c 1
 1029.25 605.631 1112.08 608.184 1150.79 612 c 0
 1232.62 620.068 1277.83 442.123 1149.79 445 c 0
 1100.08 446.117 1009.65 446.533 901.964 446.463 c 1
 873.51 258.117 846.94 99.8555 842.185 49.8975 c 0
 831.921 -57.9111 635.177 -65.5186 662.395 74.7646 c 0
 671.84 123.444 700.924 269.84 730.396 446.184 c 1
 606.646 445.756 549.661 444.881 434.854 443.816 c 1
 406.646 256.986 380.312 100.291 375.585 50.6328 c 0
 365.321 -57.1758 168.577 -64.7832 195.795 75.5 c 0
 205.16 123.766 233.906 268.129 263.046 442.434 c 1
 198.434 441.635 147.309 440.799 118.195 440 c 0
 -24.6494 436.088 13.1592 618.506 121.195 611 c 0
 152.946 608.795 213.46 606.93 290.03 605.514 c 1
 307.792 712.648 307.919 716.324 325.271 822.81 c 1
 243.872 821.89 179.074 820.895 144.795 819.956 c 0
 1.9502 816.044 38.7588 989.46 146.795 981.96 c 0
 183.232 979.43 257.549 977.34 350.543 975.87 c 1
 375.81 1132.25 401.104 1314.62 408.795 1368.5 c 0
EndSplineSet
EndChar

StartChar: less
Encoding: 60 60 82
Width: 917
VWidth: 0
Flags: W
LayerCount: 2
Fore
SplineSet
766.236 92.5684 m 0
 574.144 156.266 278.109 285.334 92.7324 380.035 c 0
 15.1797 419.652 -11.3096 568.156 97.5322 618.952 c 0
 323.054 724.203 532.807 812.515 777.369 903.722 c 0
 870.831 938.577 949.23 789.774 837.021 746.942 c 0
 613.68 661.688 438.777 587.669 250.804 497.094 c 1
 403.852 416.757 655.611 308.542 829.872 256.068 c 1
 950.891 218.576 877.746 55.5928 766.236 92.5684 c 0
EndSplineSet
EndChar

StartChar: greater
Encoding: 62 62 83
Width: 918
VWidth: 0
Flags: W
LayerCount: 2
Fore
SplineSet
151.897 80.2705 m 0
 39.6484 43.0498 -32.4082 207.509 88.834 243.943 c 0
 261.602 295.861 516.358 405.548 667.33 484.796 c 1
 477.313 576.354 305.42 648.987 80.5449 734.861 c 0
 31.3799 754.132 16.7266 796.229 29.2334 832.096 c 0
 43.4023 872.729 91.0176 909.232 140.316 891.592 c 0
 387.812 799.256 594.467 712.19 820.602 606.654 c 0
 847.144 594.27 866.409 574.514 878.131 551.829 c 0
 910.949 488.312 888.407 399.924 825.402 367.737 c 0
 640.026 273.035 343.991 143.967 151.897 80.2705 c 0
EndSplineSet
EndChar

StartChar: underscore
Encoding: 95 95 84
Width: 1145
VWidth: 0
Flags: W
HStem: -178.346 179<-24.1742 1156.73>
LayerCount: 2
Fore
SplineSet
1119 -175 m 0
 941 -171 176 -174.346 30 -178.346 c 0
 -112.845 -182.258 -80.0361 8.15918 28 0.654297 c 0
 172 -9.3457 973 -14 1115 0 c 0
 1196.83 8.06738 1247.04 -177.877 1119 -175 c 0
EndSplineSet
EndChar

StartChar: bar
Encoding: 124 124 85
Width: 480
VWidth: 0
Flags: W
VStem: 149.309 185.012<-236.986 1520.61>
LayerCount: 2
Fore
SplineSet
145.447 1493.2 m 0
 140.155 1621.16 333.02 1573.74 326.498 1491.77 c 0
 315.18 1349.53 321.606 -42.5732 334.321 -186.358 c 0
 343.861 -294.234 148.091 -329.894 149.309 -187 c 0
 150.554 -40.9512 152.805 1315.31 145.447 1493.2 c 0
EndSplineSet
EndChar

StartChar: ampersand
Encoding: 38 38 86
Width: 1137
VWidth: 0
Flags: W
LayerCount: 2
Fore
SplineSet
388.796 727.06 m 1
 277.811 630.513 193.445 527.034 185.367 389.732 c 0
 171.701 157.378 334.726 65.252 579.178 139.131 c 0
 629.131 154.229 679.517 183.612 727.398 220.868 c 1
 597.596 398.233 482.125 570.426 388.796 727.06 c 1
953.57 192.895 m 1
 999.842 133.461 1045.68 76.0293 1094.79 15.7969 c 0
 1157.96 -61.6973 1035.27 -176.124 968.933 -93.6719 c 0
 921.164 -34.3037 872.963 27.2734 827.692 86.6465 c 1
 751.794 32.1396 673.812 -7.17285 594.74 -24.4258 c 0
 518.163 -41.1338 441.285 -49.2705 369.262 -43.9639 c 0
 162.458 -28.7256 3.02344 102.569 27.4814 429.067 c 0
 42.4814 629.312 171.688 759.752 308.323 868.362 c 1
 251.854 968.971 203.102 1032.99 178.037 1114.45 c 0
 169.467 1142.3 166.177 1170.26 167.79 1197.45 c 0
 177.374 1358.92 353.039 1481.28 571.453 1467.95 c 0
 759.762 1456.46 854.468 1257.93 798.45 1102.52 c 0
 754.066 979.39 634.68 917.943 516.128 829.107 c 1
 608.521 669.269 720.651 502.635 847.988 331.516 c 1
 882.232 366.862 914.569 402.586 948.77 440.858 c 0
 1026.43 527.765 1150.92 422.295 1083 336.665 c 0
 1042.53 285.632 997.892 235.938 953.57 192.895 c 1
439.377 967.363 m 1
 530.734 1032.21 601.195 1067.44 645.687 1139.18 c 0
 694.711 1218.22 606.458 1323.71 531.5 1322.01 c 0
 412.719 1319.31 306.083 1211.89 338.94 1134.58 c 0
 365.441 1072.23 402.271 1030.69 439.377 967.363 c 1
EndSplineSet
EndChar

StartChar: asciicircum
Encoding: 94 94 87
Width: 763
VWidth: 0
Flags: W
LayerCount: 2
Fore
SplineSet
43.8057 1067.43 m 0
 109.851 1177.77 185.91 1289.62 274.497 1451.97 c 0
 285.979 1473.02 302.669 1489.69 322.088 1500.88 c 0
 376.927 1532.5 453.003 1519.08 493.182 1448.35 c 0
 577.088 1300.63 649.445 1179.86 721.95 1058.85 c 0
 747.138 1016.82 719.609 973.312 687.531 954.873 c 0
 650.717 933.713 595.665 937.735 564.814 991.57 c 0
 519.562 1070.54 449.857 1176.54 381.552 1295.17 c 1
 309.475 1167.9 253.38 1077.7 197.342 993.185 c 0
 163.655 942.378 106.521 932.709 67.5449 955.18 c 0
 31.6406 975.878 17.3301 1022.32 43.8057 1067.43 c 0
EndSplineSet
EndChar

StartChar: at
Encoding: 64 64 88
Width: 1531
VWidth: 0
Flags: W
HStem: -274.243 168.169<537.165 800.823> -9 197.494<1188.34 1277.45>
LayerCount: 2
Fore
SplineSet
936.597 757.148 m 1
 888.382 791.879 923.57 826.87 787.795 820.407 c 0
 759.262 819.049 728.994 810.827 698.598 796.482 c 0
 528.562 716.245 376.951 457.096 471.2 258.079 c 0
 491.363 215.503 523.256 182.43 561.779 161.247 c 0
 666.219 103.823 825.77 131.273 930.587 322.762 c 0
 963.954 383.727 959.012 566.216 935.869 724.382 c 0
 934.213 735.705 934.851 748.232 936.597 757.148 c 1
1219.46 188.494 m 0
 1222.84 188.263 1226.91 188.179 1229.3 188.39 c 0
 1287 193.457 1348.1 334.8 1330.11 530.74 c 0
 1305.18 802.277 1139.11 1112.68 721.111 1073.99 c 0
 305.331 1035.5 195.268 679.795 198.204 430.178 c 0
 201.74 129.627 483.514 -106.074 702.877 -106.074 c 0
 764.903 -106.074 813.429 -141.933 815.096 -190.326 c 0
 816.763 -238.712 770.534 -272.06 702.877 -274.243 c 0
 416.659 -283.48 60.958 -29.2139 32.2617 401.221 c 0
 6.63965 785.547 199.048 1197.35 726.049 1243.79 c 0
 756.703 1246.42 781.233 1247.5 808.36 1247.59 c 0
 1315.35 1249.45 1500.82 833.303 1501.88 487.086 c 0
 1502.64 236.507 1408.23 -9 1239.21 -9 c 0
 1129.84 -9 1065.43 64.8301 1031.89 162.566 c 1
 956.994 54.7656 862.551 -4.7959 765.899 -26.7197 c 0
 549.175 -75.8809 323.074 62.5107 282.301 244.535 c 0
 208.443 574.256 395.05 901.516 722.853 980.308 c 0
 938.236 1032.08 1035 963.42 1077.88 857.369 c 0
 1084.38 841.291 1083.55 822.889 1079.77 810.234 c 1
 1093.94 796.912 1102.23 777.814 1103.57 755.494 c 0
 1124.35 408.611 1181.69 191.075 1219.46 188.494 c 0
EndSplineSet
EndChar

StartChar: singlestorya
Encoding: 65536 -1 89
Width: 1035
VWidth: 0
Flags: W
LayerCount: 2
Fore
SplineSet
700.39 760.149 m 1
 652.178 794.878 643 823 557 815 c 0
 528.557 812.354 498.199 805.42 467.802 791.075 c 0
 297.766 710.837 155 461 236.421 271.831 c 0
 255.045 228.56 288.477 196.182 327 175 c 0
 431.438 117.576 582.183 151.513 687 343 c 0
 720.366 403.964 722.806 569.219 699.664 727.379 c 0
 698.006 738.703 698.643 751.231 700.39 760.149 c 1
785 181 m 1
 709.627 46.042 620.234 -0.684158 511.825 -24.7282 c 0
 305.299 -70.5333 87.8544 58.438 46.0784 247.609 c 0
 -26.7597 577.431 158.796 904.504 486.647 983.308 c 0
 702.028 1035.08 798.794 966.421 841.668 860.37 c 0
 848.166 844.294 847.344 825.895 843.567 813.236 c 1
 857.737 799.905 866.018 780.811 867.356 758.494 c 0
 887.375 424.06 903.765 331.09 1023.09 155.026 c 0
 1059.77 100.918 1051.46 -10.8022 993.751 -24.6806 c 0
 981.064 -27.7316 967.924 -25.0352 956.703 -19.0947 c 0
 886.111 18.2774 832.485 82.5703 785 181 c 1
EndSplineSet
EndChar

StartChar: bracketleft
Encoding: 91 91 90
Width: 666
VWidth: 0
Flags: W
HStem: -349.96 172.189<239.973 653.823> 1471.66 177.32<233.568 647.561>
VStem: 53 186.973<-177.771 1471.66>
LayerCount: 2
Fore
SplineSet
51.0059 1503.44 m 0
 50.208 1538.95 54.7441 1644.26 187.108 1648.98 c 0
 273.445 1652.06 506.653 1643.13 566.893 1640.98 c 0
 629.898 1638.74 665.399 1599.94 662.645 1555.2 c 0
 659.89 1510.47 620.226 1466.66 564.364 1470.32 c 0
 468.093 1476.64 293.92 1473.19 233.568 1471.66 c 1
 225.649 1104.21 231.934 22.4717 239.973 -177.771 c 1
 299.044 -183.06 472.431 -187.644 583.865 -178.092 c 0
 640.849 -173.207 665.068 -230.768 664.266 -270.699 c 0
 663.492 -309.221 638.694 -355.31 583.405 -353.993 c 0
 498.759 -351.978 311.323 -342.078 171.406 -349.96 c 0
 83.0518 -354.938 53 -286.049 53 -199 c 0
 53 -53.1074 54.9834 1326.47 51.0059 1503.44 c 0
EndSplineSet
EndChar

StartChar: bracketright
Encoding: 93 93 91
Width: 666
VWidth: 0
Flags: W
HStem: -351.993 175.901<11.8362 426.231> 1470.32 170.66<16.9088 432.636>
VStem: 426.231 186.973<-175.771 1471.66>
LayerCount: 2
Fore
SplineSet
615.197 1503.44 m 0
 611.222 1326.47 613.204 -51.1074 613.204 -197 c 0
 613.204 -204.733 613.013 -212.225 612.608 -219.479 c 0
 608.373 -295.365 574.57 -352.454 494.798 -347.96 c 0
 354.881 -340.078 167.445 -349.978 82.7988 -351.993 c 0
 21.4004 -353.455 -1.14062 -298.18 2.31055 -257.077 c 0
 5.41016 -220.166 30.5674 -171.653 82.3389 -176.092 c 0
 193.8 -185.646 369.038 -180.892 426.231 -175.771 c 1
 434.335 26 440.506 1106.45 432.636 1471.66 c 1
 370.236 1473.24 198.198 1476.64 101.839 1470.32 c 0
 45.373 1466.62 5.4209 1511.4 3.48047 1556.72 c 0
 1.58398 1601 37.165 1638.77 99.3125 1640.98 c 0
 159.55 1643.13 392.759 1652.06 479.097 1648.98 c 0
 611.453 1644.26 615.995 1538.95 615.197 1503.44 c 0
EndSplineSet
EndChar

StartChar: grave
Encoding: 96 96 92
Width: 545
VWidth: 0
Flags: W
LayerCount: 2
Fore
SplineSet
53.0254 1368.38 m 0
 12.6221 1406.23 31.8613 1459.76 61.9609 1486.99 c 0
 95.1621 1517.02 153.911 1528.32 197.296 1480.31 c 0
 306.176 1359.81 391.048 1266.95 489.939 1161.06 c 0
 520.704 1128.12 524.073 1085.34 498.259 1058.12 c 0
 466.755 1024.9 409.303 1028.82 364.356 1071.96 c 0
 263.226 1169.04 194.462 1235.86 53.0254 1368.38 c 0
EndSplineSet
EndChar

StartChar: braceleft
Encoding: 123 123 93
Width: 803
VWidth: 0
Flags: W
HStem: -249.937 187.547<432.844 759.01> 581.094 196.826<42.4546 219.864> 1478.43 177.87<434.606 764.295>
LayerCount: 2
Fore
SplineSet
661.147 1478.43 m 0
 554.027 1498.52 459.691 1504.64 427.747 1430.18 c 0
 322.962 1183.5 538.044 920.844 348.675 679.627 c 1
 517.991 495.398 317.833 205.352 424.209 -13.0078 c 0
 464.358 -94.6104 568.913 -82.6475 682.358 -62.3896 c 0
 740.046 -52.0879 771.355 -98.0928 774.442 -139.676 c 0
 777.828 -185.276 751.804 -245.418 688.536 -249.937 c 0
 524.986 -261.618 363.699 -252.086 269.492 -100.147 c 0
 149.269 94.8711 255.666 266.429 238.85 459.834 c 0
 232.067 537.832 207.819 589.014 116.721 581.094 c 0
 57.3301 575.931 28.9951 636.891 25.4023 680.189 c 0
 22.1367 719.534 38.2178 773.476 93.7627 777.92 c 0
 177.904 784.654 226.009 799.776 239.481 854.982 c 0
 297.274 1087.32 131.396 1281.12 262.842 1521.04 c 0
 351.592 1682.62 545.269 1693.48 698.646 1656.3 c 0
 757.944 1641.92 785.729 1594.18 777.453 1549.58 c 0
 768.84 1503.17 722.646 1466.89 661.147 1478.43 c 0
EndSplineSet
EndChar

StartChar: braceright
Encoding: 125 125 94
Width: 804
VWidth: 0
Flags: W
HStem: -253.937 187.547<40.1205 375.136> 571.094 196.826<584.871 762.227> 1470.43 177.87<40.2384 370.137>
LayerCount: 2
Fore
SplineSet
143.521 1470.43 m 0
 84.4814 1459.36 39.3115 1492.35 28.3438 1536.39 c 0
 16.9463 1582.16 44.1934 1633.31 106.024 1648.3 c 0
 259.392 1685.48 453.251 1674.68 541.867 1512.96 c 0
 673.434 1272.11 506.612 1078.33 565.177 845.032 c 0
 578.812 789.718 626.787 774.652 710.908 767.92 c 0
 766.452 763.476 782.532 709.533 779.269 670.189 c 0
 775.666 626.797 747.394 565.926 687.947 571.094 c 0
 596.847 579.014 572.602 527.832 565.82 449.834 c 0
 549.022 256.611 656.702 82.8008 535.053 -110.35 c 0
 438.644 -262.63 273.811 -265.556 111.134 -253.937 c 0
 42.9121 -249.063 18.1719 -180.572 26.5781 -132.796 c 0
 33.2959 -94.6152 65.2607 -57.0947 117.31 -66.3896 c 0
 232.232 -86.9121 339.938 -104.846 380.523 -22.8799 c 0
 488.897 194.746 287.467 486.079 455.998 669.623 c 1
 265.771 911.922 481.926 1174.49 376.911 1422.21 c 0
 345.134 1496.62 250.67 1490.52 143.521 1470.43 c 0
EndSplineSet
EndChar

StartChar: asciitilde
Encoding: 126 126 95
Width: 1287
VWidth: 0
Flags: W
LayerCount: 2
Fore
SplineSet
1201.49 492.335 m 0
 1031.33 350.721 837.97 362.403 643.174 446.027 c 0
 448.698 529.515 298.178 541.202 144.249 423.162 c 0
 109.058 396.174 68.5576 402.479 47.2109 431.9 c 0
 16.8916 473.69 24.0674 549.848 84.0449 592.955 c 0
 267.516 724.818 476.248 710.908 677.643 627.08 c 0
 847.711 556.292 968.381 537.607 1155.18 662.035 c 0
 1184.78 681.754 1219.85 685.45 1241.39 660.18 c 0
 1276.91 618.51 1254.63 536.57 1201.49 492.335 c 0
EndSplineSet
EndChar

StartChar: exclamdown
Encoding: 161 161 96
Width: 466
VWidth: 0
Flags: W
VStem: 136.949 197.051<-62.6396 503.489> 150.987 201.013<-440.683 136.759>
LayerCount: 2
Fore
SplineSet
136.949 466.432 m 0x80
 131.657 594.391 340.521 546.971 334 465 c 0x80
 322.682 322.762 339.285 -248.215 352 -392 c 0
 361.54 -499.875 149.77 -535.535 150.987 -392.641 c 0x40
 152.232 -246.592 144.307 288.541 136.949 466.432 c 0x80
109 880 m 0
 120 959 242 1006 301 952 c 0
 365 893 353 761 271 730 c 0
 190 700 98 795 109 880 c 0
EndSplineSet
EndChar

StartChar: cent
Encoding: 162 162 97
Width: 935
VWidth: 0
Flags: W
HStem: 799.134 188.401<562.289 745.99>
VStem: 431.832 128.604<334.507 774.597 987.535 1180.06> 451.119 132.985<-262.094 -10.6433 193.678 650.127>
LayerCount: 2
Fore
SplineSet
427 1137 m 0xc0
 421.708 1264.96 569.572 1217.54 563.05 1135.57 c 0
 561.051 1110.44 560.28 1057.87 560.436 987.535 c 1xc0
 669.807 984.477 773.192 954.979 805.333 933 c 0
 905 864.843 821.11 710.934 746 756 c 0
 713.862 775.283 639.39 798.646 562.289 799.134 c 1
 565.174 609.685 571.022 376.24 577.184 183.839 c 1
 643.652 188.116 717.753 205.301 797 237 c 0
 903.932 279.772 916.292 70.292 829.333 39 c 0
 753.214 11.6088 668.747 -6.44003 584.103 -10.6433 c 1
 587.198 -87.5342 590.115 -145.195 592.495 -172.106 c 0
 602.035 -279.982 451.264 -315.642 452.482 -172.748 c 0
 452.723 -144.427 452.19 -84.5269 451.119 -5.06381 c 1xa0
 290.933 17.5774 146.325 101.299 77 279 c 0
 -21.4092 531.255 98.8486 879.83 408.423 970.621 c 0
 416.091 972.87 423.904 974.871 431.832 976.641 c 1
 429.967 1049.18 428.297 1105.64 427 1137 c 0xc0
448.039 193.678 m 1
 444.95 375.469 440.69 592.127 436.627 774.597 c 1
 261.955 700.998 203.265 504.456 271 337 c 0
 300.394 264.332 362.62 214.484 448.039 193.678 c 1
EndSplineSet
EndChar

StartChar: Euro
Encoding: 8364 8364 98
Width: 1438
VWidth: 0
Flags: W
HStem: 456 168<113.259 204.755 425.268 858.672> 811 161.178<96.2586 222.083 477.738 905.916>
VStem: 204.755 192.444<627.581 809.372>
LayerCount: 2
Fore
SplineSet
1075 1239 m 0
 1005 1287 853.344 1267.9 778 1245 c 0
 648.024 1205.5 544.028 1097.8 477.738 966.498 c 1
 632.911 963.884 794.123 964.477 870.432 972 c 0
 952.268 980.066 1002.47 806.123 874.432 809 c 0
 768.307 811.385 583.269 813.059 420.197 813.174 c 1
 403.636 748.893 395.613 683.176 397.199 620.101 c 1
 555.461 615.884 737.077 615.19 826.432 624 c 0
 908.268 632.066 958.467 453.123 830.432 456 c 0
 726.701 458.331 568.293 459.983 425.268 460.164 c 1
 430.951 444.216 437.52 428.795 445 414 c 0
 587.88 131.415 991 120 1306 336 c 0
 1367.55 378.203 1409 198 1358 159 c 0
 986 -125 406 -60 250 348 c 0
 237.206 381.528 226.919 418.9 219.405 459.066 c 1
 200.226 458.774 182.765 458.42 167.433 458 c 0
 24.5879 454.088 57.3965 637.505 165.433 630 c 0
 177.105 629.189 190.295 628.379 204.755 627.581 c 1
 204.955 687.481 210.529 749.843 222.083 812.299 c 1
 194.368 811.969 170.097 811.539 150.433 811 c 0
 7.58789 807.088 40.3965 985.505 148.433 978 c 0
 177.309 975.995 217.927 973.989 265.562 972.178 c 1
 339.081 1172.92 483.316 1352.51 720 1426 c 0
 879 1475 1061 1461 1132 1408 c 0
 1214 1346 1148 1189 1075 1239 c 0
EndSplineSet
EndChar

StartChar: yen
Encoding: 165 165 99
Width: 1123
VWidth: 0
Flags: W
HStem: 166 175<153.826 418.362 718.966 1065.24> 436 175<144.829 473.851 837.915 1086.98>
LayerCount: 2
Fore
SplineSet
573.42 16 m 0
 513.42 -96 299.528 13.7109 354.006 75.293 c 0
 374.051 97.9529 396.151 130.842 418.362 168.089 c 1
 328.223 167.863 251.89 167.202 208 166 c 0
 65.1553 162.088 97.9639 348.506 206 341 c 0
 261.718 337.131 376.874 333.261 505.354 330.782 c 1
 526.835 374.249 544.997 412.919 556.966 438.11 c 1
 406.388 438.399 265.481 437.821 199.003 436 c 0
 56.1582 432.088 88.9668 618.506 197.003 611 c 0
 249.447 607.358 354.546 603.716 473.851 601.234 c 1
 324.843 858.488 97.1616 1199.37 -9.04492 1326 c 0
 -62.2246 1389.41 103.319 1511.56 166.955 1419 c 0
 298.955 1227 521.754 892.698 667 641 c 1
 799.37 957.912 921.277 1284.67 932.42 1380 c 0
 944.992 1487.56 1174.97 1459.1 1131.42 1323 c 0
 1095.52 1210.81 966.095 895.11 837.915 598.441 c 1
 918.527 599.198 985.744 601.228 1024 605 c 0
 1105.84 613.066 1156.04 431.123 1028 434 c 0
 972.096 435.256 883.936 436.315 784.772 437.053 c 1
 804.344 384.056 763.814 343.376 725.326 341.793 c 1
 723.226 337.33 721.105 332.796 718.966 328.197 c 1
 853.715 327.613 975.766 329.357 1033 335 c 0
 1114.84 343.066 1165.04 161.123 1037 164 c 0
 954.37 165.857 801.276 167.283 646.338 167.877 c 1
 620.745 111.415 595.523 57.2584 573.42 16 c 0
EndSplineSet
EndChar

StartChar: macron
Encoding: 175 175 101
Width: 755
VWidth: 0
Flags: W
HStem: 1289.2 168<96.2587 660.162>
LayerCount: 2
Fore
SplineSet
622.432 1289.2 m 0
 444.433 1293.2 296.433 1289.2 150.433 1285.2 c 0
 7.58789 1281.29 40.3965 1464.71 148.433 1457.2 c 0
 292.433 1447.2 476.433 1443.2 618.432 1457.2 c 0
 700.268 1465.27 750.467 1286.32 622.432 1289.2 c 0
EndSplineSet
EndChar

StartChar: degree
Encoding: 176 176 102
Width: 580
VWidth: 0
Flags: W
LayerCount: 2
Fore
SplineSet
43.2295 1363.99 m 0
 52.2676 1408.39 75.0225 1444.67 105.616 1471.84 c 0
 207.579 1562.36 397.971 1557.3 489.822 1453.23 c 0
 516.432 1423.09 532.71 1386.53 540.193 1348.08 c 0
 566.134 1214.8 488.332 1047.99 348.641 1020.87 c 0
 312.107 1013.77 275.393 1013.98 240.565 1021.02 c 0
 107.187 1047.99 4.8584 1175.48 43.2295 1363.99 c 0
202.958 1381.74 m 0
 180.37 1364.17 166.611 1337.41 162.349 1307.53 c 0
 152.596 1239.15 190.886 1165.62 254.732 1156.81 c 0
 266.527 1155.19 277.643 1154.3 288.05 1154.12 c 0
 371.418 1152.65 412.73 1192.3 414.002 1281.29 c 0
 414.488 1315.33 404.679 1341.8 389.118 1361.87 c 0
 347.368 1415.72 260.022 1426.12 202.958 1381.74 c 0
EndSplineSet
EndChar

StartChar: plusminus
Encoding: 177 177 103
Width: 947
VWidth: 0
Flags: W
HStem: 29.5996 177<66.8303 879.647> 448.189 177<66.258 396.731 561.961 905.586>
VStem: 398.979 162.983<226.809 451.997 616.234 836.486>
LayerCount: 2
Fore
SplineSet
844.428 450.59 m 0
 774.764 452.155 671.097 452.74 561.961 452.633 c 1
 563.323 397.301 566.193 344.341 570.999 298 c 0
 579.481 216.207 395.795 165.262 398.022 293.311 c 0
 398.96 347.238 399.213 400.244 398.979 451.997 c 1
 285.091 451.23 180.945 449.847 120.433 448.189 c 0
 -22.4131 444.277 10.3955 632.694 118.433 625.189 c 0
 176.513 621.156 282.096 617.839 396.731 616.234 c 1
 395.443 675.156 393.753 731.705 392.013 785.289 c 0
 387.374 928.114 575.956 896.074 568.999 788 c 0
 565.669 736.257 563.09 676.776 561.835 615.214 c 1
 676.987 615.46 782.864 617.915 840.428 623.59 c 0
 922.262 631.657 972.459 447.713 844.428 450.59 c 0
844.999 32 m 0
 666.999 36 267.005 33.5996 121.005 29.5996 c 0
 -21.8408 25.6875 10.9678 214.104 119.005 206.6 c 0
 263.005 196.6 698.999 191 840.999 205 c 0
 922.833 213.067 973.039 29.123 844.999 32 c 0
EndSplineSet
EndChar

StartChar: guillemotleft
Encoding: 171 171 104
Width: 786
VWidth: 0
Flags: W
LayerCount: 2
Fore
SplineSet
295.434 141 m 0
 236.434 213 137.434 335 80.0205 402.298 c 0
 9.53711 484.915 2.46484 495.326 84.0205 596.298 c 0
 152.434 681 222.434 769 314.434 873 c 0
 355.082 918.951 469.832 827.504 412.434 755 c 0
 355.434 683 279.434 587 209.021 500.298 c 1
 266.434 429 350.434 323 405.434 261 c 0
 466.327 192.355 350.804 73.4287 295.434 141 c 0
628.434 141 m 0
 569.434 213 470.434 335 413.021 402.298 c 0
 342.537 484.915 335.466 495.326 417.021 596.298 c 0
 485.433 681 555.434 769 647.434 873 c 0
 688.082 918.951 802.832 827.504 745.434 755 c 0
 688.434 683 612.434 587 542.021 500.298 c 1
 599.434 429 683.434 323 738.434 261 c 0
 799.327 192.355 683.804 73.4287 628.434 141 c 0
EndSplineSet
EndChar

StartChar: guillemotright
Encoding: 187 187 105
Width: 786
VWidth: 0
Flags: W
LayerCount: 2
Fore
SplineSet
490.768 141 m 0
 435.396 73.4287 319.872 192.355 380.768 261 c 0
 435.768 323 519.768 429 577.181 500.298 c 1
 506.768 587 430.768 683 373.768 755 c 0
 316.368 827.504 431.118 918.951 471.768 873 c 0
 563.768 769 633.768 681 702.181 596.298 c 0
 783.735 495.326 776.662 484.915 706.181 402.298 c 0
 648.768 335 549.768 213 490.768 141 c 0
157.768 141 m 0
 102.396 73.4287 -13.127 192.355 47.7676 261 c 0
 102.768 323 186.768 429 244.181 500.298 c 1
 173.768 587 97.7676 683 40.7676 755 c 0
 -16.6318 827.504 98.1182 918.951 138.768 873 c 0
 230.768 769 300.768 681 369.181 596.298 c 0
 450.734 495.326 443.662 484.915 373.181 402.298 c 0
 315.768 335 216.768 213 157.768 141 c 0
EndSplineSet
EndChar

StartChar: logicalnot
Encoding: 172 172 106
Width: 1074
VWidth: 0
Flags: W
HStem: 449.654 133.936<44.8187 885.5>
VStem: 887.5 120<75.1553 449.654>
LayerCount: 2
Fore
SplineSet
887.5 119.654 m 0
 887.5 279.854 885.5 297.654 885.5 449.654 c 1
 885.5 449.654 233.911 448.789 102.5 445.189 c 0
 -40.3447 441.277 -7.53613 592.694 100.5 585.189 c 0
 244.5 575.189 768.495 569.59 910.495 583.59 c 0
 940.63 586.561 1002.16 589.694 1005.5 519.654 c 0
 1007.5 477.654 1006.38 159.644 1007.5 111.654 c 0
 1009.5 25.6543 887.5 21.6543 887.5 119.654 c 0
EndSplineSet
EndChar

StartChar: registered
Encoding: 174 174 107
Width: 1521
VWidth: 0
Flags: W
HStem: 0 118.182<533.297 1000.44> 1074 93.05<389.144 438.711> 1365.36 103.56<542.058 981.432>
VStem: 438.711 125.522<766 1075.11> 458.408 131.825<237.391 595.154> 1340.63 125.5<467.083 997.315>
LayerCount: 2
Fore
SplineSet
438.711 1075.91 m 1xf4
 435.883 1075.28 433.078 1074.54 430.233 1074 c 0
 356.233 1060 367.083 1159.3 409.17 1167.05 c 0
 421.832 1169.38 434.832 1171.71 448.128 1173.99 c 1
 460.585 1194.31 520.312 1199.31 540.233 1188 c 1
 690.349 1208.76 833.576 1206.12 985.867 1107.74 c 0
 1111.36 1026.68 1150.4 862.168 1060.73 746.134 c 0
 956.854 611.69 800.233 612 692.233 632 c 1
 833.879 490.418 842.098 436.006 1046.23 294 c 0
 1092.23 262 1003.22 182.342 918.233 234 c 0
 717.18 356.208 698.233 410 577.148 596.312 c 1
 582.002 443.101 587.474 307.582 590.233 270 c 0
 595.295 201.1 455.771 189.471 458.408 280.57 c 0xec
 460.863 365.34 443.332 892.476 438.711 1075.91 c 1xf4
554.233 1068 m 1
 551.792 1000.59 559.685 922.503 564.233 758 c 1xf4
 692.233 742 813.835 720.61 916.233 784 c 0
 1000.23 836 993.356 943.691 898.233 1014 c 0
 806.233 1082 683.588 1089.01 554.233 1068 c 1
715.434 1356.36 m 0
 252.634 1325.36 172.634 972 172.634 689.358 c 0
 172.634 374.333 448.655 114.438 749.434 118.182 c 0
 1004.63 121.358 1324.37 217.607 1340.63 713.358 c 0
 1352.63 1079.36 1152.63 1361.36 742.434 1365.36 c 0
 741.274 1365.37 716.535 1356.43 715.434 1356.36 c 0
738.233 1488.36 m 0
 764.336 1491.59 785.363 1482.26 799.779 1468.92 c 1
 1236.63 1465.36 1475.63 1124.36 1466.13 735.53 c 0
 1451.57 139.588 1084.63 0 748.634 0 c 0
 416.634 0 78.8887 245.078 56.6338 662.358 c 0
 36.6338 1037.36 196.634 1421.36 738.233 1488.36 c 0
EndSplineSet
EndChar

StartChar: acute
Encoding: 180 180 108
Width: 545
VWidth: 0
Flags: W
LayerCount: 2
Fore
SplineSet
492.268 1368.38 m 0
 350.831 1235.86 282.067 1169.04 180.937 1071.96 c 0
 135.99 1028.82 78.5381 1024.9 47.0342 1058.12 c 0
 21.2197 1085.34 24.5889 1128.12 55.3535 1161.06 c 0
 154.245 1266.95 239.117 1359.81 347.997 1480.31 c 0
 391.382 1528.32 450.131 1517.02 483.332 1486.99 c 0
 513.432 1459.76 532.671 1406.23 492.268 1368.38 c 0
EndSplineSet
EndChar

StartChar: dieresis
Encoding: 168 168 109
Width: 642
VWidth: 0
Flags: W
LayerCount: 2
Fore
SplineSet
55.8994 1401 m 0
 66.8994 1480 188.899 1527 247.899 1473 c 0
 311.899 1414 299.899 1282 217.899 1251 c 0
 136.899 1221 44.8994 1316 55.8994 1401 c 0
354.899 1404 m 0
 365.899 1483 487.899 1530 546.899 1476 c 0
 610.899 1417 598.899 1285 516.899 1254 c 0
 435.899 1224 343.899 1319 354.899 1404 c 0
EndSplineSet
EndChar

StartChar: periodcentered
Encoding: 183 183 110
Width: 359
VWidth: 0
Flags: W
LayerCount: 2
Fore
SplineSet
63.5098 552.229 m 0
 74.5098 631.229 196.51 678.229 255.51 624.229 c 0
 319.51 565.229 307.51 433.229 225.51 402.229 c 0
 144.51 372.229 52.5098 467.229 63.5098 552.229 c 0
EndSplineSet
EndChar

StartChar: oe
Encoding: 339 339 116
Width: 1716
VWidth: 0
Flags: W
HStem: 441.222 169.382<1022.57 1428.25>
LayerCount: 2
Fore
SplineSet
1022.57 610.604 m 1
 1300.59 596.928 1477.76 618.356 1467.93 732.842 c 0
 1460.54 819.053 1246.71 837.893 1135.93 761 c 0
 1083.44 724.562 1044.86 671.152 1022.57 610.604 c 1
476.526 988 m 0
 502.719 990.381 523.656 981.899 538.072 968.562 c 1
 697.962 952.784 826.891 884.37 908.016 780.618 c 1
 911.229 785.462 914.533 790.257 917.932 795 c 0
 1148.37 1116.68 1647.74 988.084 1663.93 747 c 0
 1681.48 485.706 1452.63 430.421 1007.11 441.222 c 1
 1006.95 434.247 1006.67 427.328 1006.28 420.465 c 1
 1021.36 338.846 1065.7 261.223 1143.93 207 c 0
 1287.09 107.779 1477.93 197 1575.93 285 c 0
 1637.11 339.932 1731.42 204.703 1673.93 137 c 0
 1583.93 31 1276.22 -72.5938 1083.93 21 c 0
 1017.18 53.4912 962.233 102.474 920.164 161.578 c 1
 843.21 53.5254 719.266 -13.0088 564.526 -18 c 0
 292.322 -26.7812 48.5264 148 26.5264 450 c 0
 4.97168 745.891 214.552 964.184 476.526 988 c 0
486.932 795 m 0
 340.932 775 203.932 621.229 219.932 472 c 0
 238.911 294.97 376.951 146.652 554.932 157 c 0
 726.932 167 850.856 384.508 810.932 529 c 0
 768.932 681 706.932 789 490.317 794.816 c 0
 489.159 794.848 488.025 795.149 486.932 795 c 0
EndSplineSet
EndChar

StartChar: OE
Encoding: 338 338 120
Width: 2013
VWidth: 0
Flags: W
HStem: 12 178<1418.19 1945.97> 702 192<1105.44 1663.56> 1266.99 173.008<520.048 904.832 1094.71 1921.69>
VStem: 904.832 200.228<893.31 1263.99> 923.755 193.919<172.819 698.214>
LayerCount: 2
Fore
SplineSet
1094.71 1263.99 m 1xe8
 1096.25 1167.82 1100.34 996.243 1105.06 887 c 1xf0
 1113.06 892 1123.06 895 1135.06 894 c 0
 1447.06 880 1529.06 886 1839.06 910 c 0
 1929.06 917 1903.06 722 1829.06 718 c 0
 1515.06 701 1449.06 706 1133.06 702 c 0
 1120.06 702 1110.06 706 1102.06 713 c 1
 1104.61 470.027 1112.58 291.255 1117.67 172.48 c 1
 1337.42 170.645 1634.61 167.409 1925.06 190 c 0
 2015.06 197 1989.06 16 1915.06 12 c 0
 1542.24 -8.15234 987.186 0 959.06 0 c 0
 689.06 0 291.06 -46 95.0596 375 c 0
 -42.2705 669.979 -31 1269 520 1413 c 0
 680.972 1455.07 852.617 1445.28 941.06 1440 c 0
 974.702 1437.99 1550.74 1424.46 1940.06 1443 c 0
 1982.06 1445 1976.06 1282 1919.06 1278 c 0
 1698.83 1262.54 1313.51 1262.33 1094.71 1263.99 c 1xe8
923.755 172.819 m 1xe8
 923.773 404.534 914.684 977.433 904.832 1266.99 c 1xf0
 817.31 1270.18 684.979 1275.48 581 1249 c 0
 208 1154 148 674 260 449.229 c 0
 402.562 163.123 707.919 170.379 923.755 172.819 c 1xe8
EndSplineSet
Colour: ff00
EndChar

StartChar: Aring
Encoding: 197 197 123
Width: 1163
VWidth: 0
Flags: W
HStem: 460.627 161.582<398.622 790.371>
LayerCount: 2
Fore
SplineSet
512.377 1752.24 m 0
 491.118 1735.7 478.133 1710.43 474.015 1681.55 c 0
 464.512 1614.93 502.043 1544.78 562.132 1536.5 c 0
 573.749 1534.89 584.667 1534.02 594.854 1533.85 c 0
 675.698 1532.42 714.48 1569.39 715.719 1656.09 c 0
 716.19 1689.1 706.729 1714.39 691.882 1733.54 c 0
 651.972 1785.02 567.344 1794.99 512.377 1752.24 c 0
345.046 1739.72 m 0
 354.307 1785.21 377.691 1822.5 409.013 1850.31 c 0
 513.062 1942.68 706.371 1937.68 800.287 1831.27 c 0
 827.56 1800.37 844.19 1762.96 851.818 1723.77 c 0
 873.711 1611.29 823.129 1474.89 723.141 1416.08 c 1
 729.944 1409.01 735.043 1400.86 737.97 1391.58 c 0
 801.144 1191.35 903.205 888.663 996.079 614.116 c 1
 1006.28 613.503 1015.82 612.874 1024.63 612.229 c 0
 1098.89 606.796 1136.93 479.018 1048.44 459.359 c 1
 1104.29 294.233 1152.63 150.812 1180.97 63 c 0
 1199.81 4.61523 1022.41 -66.3223 991.967 21 c 0
 967.367 91.5645 908.952 265.352 843.99 460.627 c 1
 680.907 460.667 485.69 453.053 331.252 438.729 c 1
 268.335 256.998 211.432 99.0342 178.87 29 c 0
 140.185 -54.208 -49.957 -0.119141 -15.1309 80 c 0
 20.7363 162.514 78.7871 309.148 142.972 477.827 c 1
 128.811 523.367 149.812 586.671 193.565 611.971 c 1
 303.783 906.717 419.52 1232.42 466.97 1395.58 c 0
 468.968 1402.45 472.893 1408.78 478.374 1414.53 c 1
 378.156 1465.87 312.985 1582.21 345.046 1739.72 c 0
790.371 622.209 m 1
 707.085 873.813 625.102 1124.44 597.97 1213.58 c 1
 552.185 1089.74 473.953 856.269 395.572 626.23 c 1
 519.892 627.114 664.879 625.495 790.371 622.209 c 1
EndSplineSet
EndChar

StartChar: questiondown
Encoding: 191 191 165
Width: 953
VWidth: 0
Flags: W
HStem: -473.396 184.72<302.495 860.327>
LayerCount: 2
Fore
SplineSet
642.83 586.632 m 0
 722.223 538.977 757.188 441.462 712 368 c 0
 606.47 196.451 415.099 48.4941 302.548 -62.8057 c 0
 193.779 -170.366 230.938 -250.783 310.322 -279.686 c 0
 451.172 -330.961 674.291 -308.067 817.72 -288.676 c 0
 919.751 -274.879 925.304 -461.929 823.842 -473.396 c 0
 610.978 -497.444 415.83 -477.495 275.561 -444.87 c 0
 48.2832 -392.006 -45.1455 -197.349 150.439 15.626 c 0
 277.916 154.438 448.033 276.101 532.477 404.028 c 0
 569.129 459.556 557.871 501.66 513.911 536.408 c 0
 422.61 608.577 546.19 644.641 642.83 586.632 c 0
618.733 800.345 m 0
 594.692 724.292 466.556 698.33 417.404 761.427 c 0
 364.158 830.289 398.039 958.43 484.064 975.296 c 0
 568.938 991.346 643.776 882.314 618.733 800.345 c 0
EndSplineSet
EndChar

StartChar: multiply
Encoding: 215 215 167
Width: 891
VWidth: 0
Flags: W
LayerCount: 2
Fore
SplineSet
91.2539 704.641 m 0
 46.1982 753.372 50.9658 816.677 94.4805 849.141 c 0
 129.993 875.635 188.936 881.408 221.214 836.71 c 0
 256.229 788.229 368.838 662.04 435.648 591.642 c 1
 487.737 652.365 602.251 779.358 653.009 835.443 c 0
 696.491 883.49 761.454 886.221 798.184 843.98 c 0
 826.962 810.886 837.302 753.467 796.104 717.733 c 0
 748.83 676.732 604.12 524.179 551.369 461.733 c 1
 609.263 399.078 740.492 271.12 789.356 232.727 c 0
 838.066 194.454 838.511 122.413 794.915 83.0811 c 0
 757.577 49.3945 696.091 47.4854 645.074 104.688 c 0
 606.328 148.131 494.346 271.683 439.103 329.628 c 1
 384.997 267.854 276.141 156.761 245.762 110.09 c 0
 212.26 58.6191 140.494 51.1055 97.2021 91.2568 c 0
 60.3291 125.454 52.9678 186.526 105.409 242.424 c 0
 148.455 288.307 274.725 395.126 324.172 459.746 c 1
 266.756 522.832 144.921 646.597 91.2539 704.641 c 0
EndSplineSet
EndChar

StartChar: section
Encoding: 167 167 168
Width: 1221
VWidth: 0
Flags: W
HStem: 1455.73 174.28<495.327 1067.13>
VStem: 135.166 175.619<-416.464 -287.432>
LayerCount: 2
Fore
SplineSet
465.551 319.103 m 1
 553.384 298.762 633.751 294.551 702.486 302.878 c 0
 856.86 321.58 939.482 399.107 927.687 495.165 c 0
 923.351 530.475 869.459 593.569 785.686 665.426 c 1
 754.159 666.312 721.256 665.073 687.89 662.036 c 0
 485.299 643.599 319.512 559.807 322.395 528.505 c 0
 327.397 474.2 382.65 399.126 465.551 319.103 c 1
600.149 814.28 m 1
 415.275 958.873 210.28 1118.21 152.054 1275.53 c 0
 129.746 1335.81 142.706 1449.96 260.826 1527.14 c 0
 494.986 1680.14 862.574 1676.45 1007.14 1630.01 c 0
 1012.89 1628.17 1018.33 1626.01 1023.47 1623.56 c 0
 1081.36 1595.92 1092.18 1534.67 1071.94 1492.68 c 0
 1054.12 1455.71 1009.6 1431.85 960.553 1455.73 c 0
 900.489 1484.99 803.238 1492.66 702.779 1483.51 c 0
 501.329 1465.16 338.551 1383.37 341.395 1352.5 c 0
 360.352 1146.67 1009.84 799.099 1093.98 568.792 c 0
 1108.62 528.722 1116.72 491.381 1118.96 456.614 c 0
 1134.54 214.375 872.647 131.432 697.74 120.387 c 1
 864.479 -14.2275 1034.34 -143.956 1074.98 -255.208 c 0
 1091.93 -301.598 1099.93 -344.003 1100 -382.742 c 0
 1100.45 -628.853 795.324 -683.788 624.5 -683.788 c 0
 419.071 -683.788 250.898 -613.215 155.166 -462.171 c 0
 145.247 -446.521 138.677 -430.49 135.166 -414.68 c 0
 119.231 -342.924 165.684 -279.654 219.097 -268.07 c 0
 260.623 -259.064 299.876 -285.95 310.785 -339.826 c 0
 335.066 -459.746 538.354 -537.442 711.158 -516.837 c 0
 836.632 -501.874 922.495 -441.28 908.687 -328.835 c 0
 890.874 -183.784 243.938 151.935 133.055 451.534 c 0
 110.746 511.812 123.706 625.961 241.826 703.141 c 0
 344.294 770.085 476.252 800.816 600.149 814.28 c 1
EndSplineSet
EndChar

StartChar: Oslash
Encoding: 216 216 169
Width: 1294
VWidth: 0
Flags: W
LayerCount: 2
Fore
SplineSet
567.356 1455.05 m 0
 592.66 1462.23 614.874 1454.24 630.688 1442.6 c 1
 769.636 1452.78 892.633 1414.78 992.567 1341.02 c 1
 1033.61 1400.11 1063.64 1443.95 1078 1466 c 0
 1148 1573 1292 1467 1239 1404 c 0
 1220.68 1382.3 1173.02 1317.77 1107.86 1227.35 c 1
 1193.79 1116 1248.7 968.475 1263.38 800.816 c 0
 1315.38 206.97 997.5 17 692.508 -10.3008 c 0
 565.826 -21.6404 430.749 12.1557 315.278 93.3046 c 1
 278.297 38.3524 252.419 -1.16006 242 -19 c 0
 187 -113 -2 -61 82 55 c 0
 97.6043 76.4105 137.143 131.599 191.996 208.494 c 1
 119.335 297.653 64.0293 414.327 38.1514 559.473 c 0
 -13.9209 851.541 74.084 1315.15 567.356 1455.05 c 0
572.172 1263.04 m 0
 244 1170 196.27 790.384 226 612 c 0
 240.873 522.763 272.451 444.855 314.576 380.626 c 1
 487.473 623.751 718.32 949.56 882.587 1183.64 c 1
 803.814 1247.87 706.386 1283.43 598 1275 c 0
 596.844 1274.91 573.235 1263.34 572.172 1263.04 c 0
989.553 1061.89 m 1
 814.343 815.35 586.385 489.315 427.451 257.954 c 1
 507.283 196.876 599.517 168.788 685 181 c 0
 879.882 208.84 1106.25 348.013 1085 756 c 0
 1079.16 868.07 1045.01 974.688 989.553 1061.89 c 1
EndSplineSet
EndChar

StartChar: oslash
Encoding: 248 248 170
Width: 1032
VWidth: 0
Flags: W
LayerCount: 2
Fore
SplineSet
486.932 795 m 0
 340.932 775 203.932 621.229 219.932 472 c 0
 227.052 405.592 250.925 343.225 287.375 291.758 c 1
 389.619 439.942 517.118 626.308 617.948 774.945 c 1
 582.625 786.598 540.644 793.465 490.317 794.816 c 0
 489.159 794.848 488.025 795.149 486.932 795 c 0
476.526 988 m 0
 502.719 990.381 523.656 981.899 538.072 968.562 c 1
 603.777 962.078 664.254 946.706 718.334 923.644 c 1
 740.739 957.068 758.792 984.247 771 1003 c 0
 841 1110 985 1004 932 941 c 0
 916.327 922.43 889.247 885.954 854.742 837.592 c 1
 926.014 773.562 974.353 689.564 993.526 592 c 0
 1060.93 249 874.526 -8 564.526 -18 c 0
 475.188 -20.882 388.911 -3.99138 312.53 30.68 c 1
 299.204 9.54958 288.809 -7.33994 282 -19 c 0
 227 -113 38 -61 122 55 c 0
 133.022 70.1239 150.287 94.4962 172.217 125.812 c 1
 90.7384 204.972 36.381 314.723 26.5264 450 c 0
 4.97168 745.891 214.552 964.184 476.526 988 c 0
412.178 184.82 m 1
 455.124 164.329 503.35 154.001 554.932 157 c 0
 726.932 167 850.856 384.508 810.932 529 c 0
 794.762 587.519 775.628 639.517 745.848 681.672 c 1
 638.288 525.362 508.557 331.741 412.178 184.82 c 1
EndSplineSet
EndChar

StartChar: dotlessi
Encoding: 305 305 171
Width: 472
VWidth: 0
Flags: W
VStem: 139 197.051<391.975 962.058> 154.621 201.013<26.4102 614.526>
LayerCount: 2
Fore
SplineSet
139 925 m 0x80
 133.708 1052.96 342.572 1005.54 336.051 923.569 c 0x80
 324.732 781.33 342.919 218.879 355.634 75.0938 c 0
 365.174 -32.7822 153.403 -68.4414 154.621 74.4521 c 0x40
 155.866 220.501 146.357 747.11 139 925 c 0x80
EndSplineSet
EndChar

StartChar: divide
Encoding: 247 247 176
Width: 1145
VWidth: 0
Flags: W
HStem: 425.484 178.009<73.1132 1065.96>
VStem: 469.599 190.605<108.356 283.321 743.792 924.788>
LayerCount: 2
Fore
SplineSet
985.046 427.595 m 0
 807.813 431.577 319.345 429.176 174.048 425.197 c 0
 167.772 425.025 161.744 425.124 155.955 425.484 c 0
 90.2683 429.565 55.2043 470.116 58.2547 515.451 c 0
 61.5454 564.357 107.417 609.688 172.886 605.141 c 0
 314.814 595.286 840.767 589.808 979.533 603.493 c 0
 982.827 603.818 986.096 603.951 989.326 603.9 c 0
 1045.48 603.019 1084.47 549.885 1083.45 502.634 c 0
 1082.53 460.108 1047.73 426.187 985.046 427.595 c 0
469.599 220.645 m 0
 471.512 239.766 481.036 256.03 493.547 268.299 c 0
 527.344 301.443 593.785 316.005 631.887 276.547 c 0
 644.854 263.119 654.193 246.671 660.204 229.247 c 0
 677.982 177.712 668.731 104.62 608.001 83.7403 c 0
 596.354 79.737 584.44 78.4683 573.015 79.5644 c 0
 509.526 85.6552 463.366 158.323 469.599 220.645 c 0
457.599 865.645 m 0
 459.512 884.766 469.036 901.029 481.547 913.299 c 0
 515.343 946.443 581.785 961.005 619.887 921.547 c 0
 632.854 908.119 642.193 891.671 648.204 874.247 c 0
 665.982 822.712 656.731 749.62 596.001 728.74 c 0
 584.354 724.737 572.439 723.468 561.015 724.564 c 0
 497.526 730.657 451.366 803.322 457.599 865.645 c 0
EndSplineSet
EndChar

StartChar: Ccedilla
Encoding: 199 199 177
Width: 1226
VWidth: 0
Flags: W
VStem: 582.898 115.04<-109.07 -13.9772>
LayerCount: 2
Fore
SplineSet
895.251 1239 m 0
 825.251 1287 673.595 1267.9 598.251 1245 c 0
 292.251 1152 130.251 681 265.251 414 c 0
 408.131 131.415 811.251 120 1126.25 336 c 0
 1187.8 378.203 1229.25 198 1178.25 159 c 0
 1036.41 50.711 864.323 -6.83716 697.034 -13.9772 c 1
 697.592 -45.2343 697.421 -73.6844 697.938 -109.07 c 1
 784.484 -91.3418 916.241 -91.0186 965.923 -198.063 c 0
 1010.24 -293.544 952.299 -410.74 856.189 -455.326 c 0
 734.025 -511.627 580.651 -458.777 521.097 -382.98 c 0
 503.005 -359.955 500.708 -329.983 514.586 -311.156 c 0
 526.953 -294.38 550.014 -293.148 569.053 -307.837 c 0
 634.683 -358.466 721.476 -368.003 793.036 -343.521 c 0
 834.76 -329.246 858.863 -279.901 839.091 -247.533 c 0
 814.027 -206.505 755.769 -213.069 688.021 -243.403 c 0
 635.485 -266.927 581.037 -238.8 582.898 -179.245 c 0
 584.602 -124.696 579.826 -69.9397 578.565 -10.4814 c 1
 352.97 12.9073 152.573 132.695 70.251 348 c 0
 -45.749 652 44.251 1272 540.251 1426 c 0
 699.251 1475 881.251 1461 952.251 1408 c 0
 1034.25 1346 968.251 1189 895.251 1239 c 0
EndSplineSet
EndChar

StartChar: cedilla
Encoding: 184 184 178
Width: 638
VWidth: 0
Flags: W
VStem: 153.911 116.984<-88.3574 70.9473>
LayerCount: 2
Fore
SplineSet
153.911 37 m 0
 153.911 94.9531 267.622 130.408 270.895 61.7129 c 0
 273.625 4.33789 272.782 -33.751 273.581 -88.3574 c 1
 360.127 -70.6279 491.885 -70.3057 541.566 -177.351 c 0
 585.88 -272.831 527.942 -390.026 431.833 -434.613 c 0
 309.668 -490.913 156.294 -438.064 96.7393 -362.268 c 0
 78.6484 -339.242 76.3506 -309.271 90.2285 -290.443 c 0
 102.596 -273.667 125.657 -272.436 144.696 -287.123 c 0
 210.325 -337.753 297.119 -347.289 368.679 -322.808 c 0
 410.403 -308.533 434.507 -259.188 414.733 -226.819 c 0
 389.67 -185.792 331.412 -192.355 263.664 -222.69 c 0
 211.129 -246.213 156.681 -218.087 158.541 -158.531 c 0
 160.499 -95.8955 153.911 -32.9873 153.911 37 c 0
EndSplineSet
EndChar

StartChar: ccedilla
Encoding: 231 231 179
Width: 893
VWidth: 0
Flags: W
HStem: 39 198<627.714 832.734>
VStem: 387.206 115.039<-106.07 -11.0956>
LayerCount: 2
Fore
SplineSet
727.559 756 m 0
 682.559 783 554.559 818 452.559 787 c 0
 251.406 725.865 180.559 515 252.559 337 c 0
 313.95 185.227 518.559 133 778.559 237 c 0
 885.49 279.772 897.851 70.292 810.892 39 c 0
 715.463 4.66011 606.913 -14.9961 501.344 -11.0956 c 1
 501.899 -42.3062 501.729 -70.7291 502.245 -106.07 c 1
 588.792 -88.3418 720.549 -88.0186 770.23 -195.063 c 0
 814.545 -290.544 756.606 -407.74 660.497 -452.326 c 0
 538.333 -508.627 384.959 -455.777 325.404 -379.98 c 0
 307.312 -356.955 305.016 -326.983 318.894 -308.156 c 0
 331.261 -291.38 354.321 -290.148 373.36 -304.837 c 0
 438.99 -355.466 525.783 -365.003 597.344 -340.521 c 0
 639.067 -326.246 663.171 -276.901 643.398 -244.533 c 0
 618.335 -203.505 560.076 -210.069 492.328 -240.403 c 0
 439.793 -263.927 385.345 -235.8 387.206 -176.245 c 0
 389.021 -118.155 383.486 -59.8312 382.673 4.1563 c 1
 242.878 36.2469 120.585 120.007 58.5586 279 c 0
 -39.8506 531.255 80.4072 879.83 389.981 970.621 c 0
 537.892 1014 739.58 965.354 786.892 933 c 0
 886.559 864.843 802.669 710.934 727.559 756 c 0
EndSplineSet
EndChar

StartChar: ordfeminine
Encoding: 170 170 180
Width: 593
VWidth: 0
Flags: W
VStem: 393.209 144.078<1132.06 1246.19>
LayerCount: 2
Fore
SplineSet
390.708 1246.19 m 1
 307.946 1235.33 172.812 1198.32 196.978 1115.07 c 0
 206.259 1083.12 315.811 1097.72 393.209 1159.91 c 1
 390.617 1213.9 390.305 1206.86 390.708 1246.19 c 1
523.434 960.361 m 0
 475.392 956.608 436.331 967.688 415.007 1002.53 c 1
 282.502 920.364 61.1143 946.28 40.5908 1096.3 c 0
 16.7207 1270.77 158.896 1327.64 270 1364 c 0
 319.104 1380.07 372.696 1386.99 398 1385 c 1
 398.916 1396.1 411 1432 403.515 1440.06 c 0
 394.736 1449.52 323.7 1478.45 212.948 1379.55 c 0
 184.947 1354.55 145.016 1354.5 114.022 1384.7 c 0
 79.0254 1418.81 79.9736 1466.25 114.63 1502.23 c 0
 204.115 1595.15 365.735 1628.88 466.976 1577.13 c 0
 527.063 1546.41 539.652 1478.25 537.287 1432.03 c 0
 528.302 1256.41 529.49 1200.53 551.73 1050.47 c 0
 557.14 1013.97 561.256 963.315 523.434 960.361 c 0
EndSplineSet
EndChar

StartChar: ordmasculine
Encoding: 186 186 181
Width: 616
VWidth: 0
Flags: W
LayerCount: 2
Fore
SplineSet
46.4766 1370.11 m 0
 62.0352 1433.12 108.732 1478.24 167.104 1505.13 c 0
 275.893 1555.26 439.604 1547.1 521.802 1437.08 c 0
 529.734 1426.46 536.812 1415.4 543.056 1404.03 c 0
 633.781 1238.78 559.943 996.105 353.025 967.101 c 0
 288.378 958.039 224.333 970.671 169.232 1004.59 c 0
 60.7412 1071.37 6.14746 1206.78 46.4766 1370.11 c 0
238.628 1362.33 m 0
 186.76 1331.02 176.823 1270.46 190.286 1219.23 c 0
 202.804 1171.59 231.35 1139.89 261.611 1134.05 c 0
 366.121 1113.88 421.314 1186 431.413 1268.49 c 0
 434.761 1295.83 425.486 1318.87 410.904 1336.57 c 0
 379.24 1375.01 305.171 1402.51 238.628 1362.33 c 0
EndSplineSet
EndChar

StartChar: uni00B5
Encoding: 181 181 182
Width: 1084
VWidth: 0
Flags: W
VStem: 97.9502 200.05<383.627 929.951> 123.432 175.129<-476.064 13.0326> 793 184<536.691 958.312>
LayerCount: 2
Fore
SplineSet
97.9502 916.43 m 0xa0
 92.6582 1044.39 290.625 997.099 286 915 c 0
 282 844 287.466 500.965 298 344 c 0xa0
 308 195 410.036 164.063 497 178 c 0
 653 203 797 501 793 919 c 0
 791.775 1047 982 1002 977 920 c 0
 969 778 991 222 1007 79 c 0
 1019 -29 821 -68 819 75 c 0
 818 138 817 194 813 342 c 1
 771 165 638 2 487 -11 c 0
 411.451 -17.6221 349.129 -7.8457 298.561 13.502 c 1
 304.49 -180.086 310.934 -341.652 315.445 -392.676 c 0
 324.985 -500.552 122.214 -536.211 123.432 -393.318 c 0x60
 124.677 -247.269 105.307 738.54 97.9502 916.43 c 0xa0
EndSplineSet
EndChar

StartChar: paragraph
Encoding: 182 182 183
Width: 1021
VWidth: 0
Flags: W
HStem: 524.911 178.235<313.215 561.046>
VStem: 562.268 175.895<-53.6397 524.911 723.219 1313.48> 766.254 180.567<-41.8593 534.058> 791.221 170.02<772.548 1291.82>
LayerCount: 2
Fore
SplineSet
738.163 723.219 m 1xd0
 749.088 725.471 759.46 727.815 768.55 730.007 c 1
 775.25 911.627 780.212 1091.51 791.221 1280.45 c 0
 791.443 1284.29 792.34 1290.07 792.693 1291.91 c 1
 781.137 1300.73 765.497 1308.29 747.788 1313.48 c 1
 741.754 1235.61 738.619 981.085 738.163 723.219 c 1xd0
562.873 1314.43 m 1
 372.21 1274.83 170.129 1119.29 214.458 865.615 c 0
 235.309 746.307 386.403 699.173 562.268 703.146 c 1
 563.829 961.589 564.473 1217.05 562.873 1314.43 c 1
766.254 50.0508 m 0xe0
 756.354 176.695 758.042 373.764 761.253 547.365 c 1
 753.207 545.994 745.189 544.683 738.25 543.58 c 1
 738.881 314.097 741.533 110.668 745.556 52.7324 c 0
 745.84 48.6387 745.939 44.6035 745.859 40.6348 c 0
 744.547 -24.498 694.712 -68.7686 643.054 -67.4023 c 0
 592.317 -66.0596 553.59 -20.5459 555.624 53.6855 c 0
 557.232 112.337 559.376 306.015 561.046 524.911 c 1
 287.109 512.794 58.4629 594.141 32.9424 862.949 c 0
 -0.685547 1217.16 258.436 1440.95 576.066 1480.81 c 0
 790.571 1507.72 948.598 1464.4 985.644 1288.14 c 0
 998.656 1226.23 987.175 1189.22 961.241 1162.92 c 1xd0
 937.855 734.004 940.874 281.847 946.821 61.9883 c 0
 948.699 -7.46973 916.427 -55.7344 867.717 -59.8457 c 0
 816.04 -64.207 771.523 -17.3525 766.254 50.0508 c 0xe0
EndSplineSet
EndChar

StartChar: Eth
Encoding: 208 208 184
Width: 1320
VWidth: 0
Flags: W
HStem: 708.001 172<-13.1742 98.8073 289.239 756.898>
VStem: 86 194.498<887.556 1286.79> 98.8073 186.736<267.771 709.538 876.791 1282.79> 109.804 195.621<267.771 704.135>
LayerCount: 2
Fore
SplineSet
86 1387 m 0xc0
 83.0214 1459.02 147.887 1475.48 204.006 1461.5 c 1
 593.118 1485.08 893.632 1416.99 1132 1123 c 0
 1327 883 1330 448 1117 208 c 0
 922.144 -11.3144 605.505 -46.7246 296.41 24.2679 c 1
 248.225 -37.0959 110.499 -38.0632 111.482 77.252 c 0
 111.488 77.9882 111.494 78.7457 111.499 79.5243 c 0
 103.978 82.2932 96.4774 85.1188 89 88 c 0
 -11.0373 126.546 27.221 274.65 109.804 267.771 c 1x90
 108.104 388.391 105.318 547.928 102.174 709.538 c 1
 79.4726 709.011 58.8791 708.491 41 708.001 c 0
 -101.845 704.091 -69.0361 887.511 39 880.001 c 0
 56.0948 878.814 76.2759 877.739 98.8073 876.791 c 1xa0
 94.0164 1106.81 89.0058 1314.33 86 1387 c 0xc0
692 714 m 0
 587.011 716.359 430.186 715.24 289.239 713.104 c 1
 294.048 521.739 300.091 332.378 305.425 207.446 c 1x90
 536.883 153.295 810.241 160.421 949 316 c 0
 1147 538 1083.67 864.581 955 1027 c 0
 785.995 1240.33 556.435 1293.32 280.498 1286.79 c 1xc0
 279.968 1188.01 282.08 1036.06 285.543 872.383 c 1xa0
 435.668 870.923 602.188 873.54 688 882 c 0
 769.836 890.069 820.035 711.12 692 714 c 0
EndSplineSet
EndChar

StartChar: AE
Encoding: 198 198 185
Width: 2030
VWidth: 0
Flags: W
HStem: 0 177<1130.71 1236.12 1692.41 1951.79> 450.449 181.626<532.902 944.865> 703 187<1117.09 1666.46> 1258.01 181.987<1111.14 1955.06>
VStem: 931.067 180.072<633.091 714 883 1249.42> 947.173 168.537<204.399 457.827 622.657 714 883 1132.38> 948.71 182<177 457.787>
LayerCount: 2
Fore
SplineSet
811.71 1402 m 0xf4
 840.655 1446.45 903.7 1440.25 951.71 1440 c 0
 1333.71 1438 1609.71 1426 1966.71 1443 c 0
 2009.95 1445.06 2015.71 1274 1945.71 1270 c 0
 1727.93 1257.56 1337.5 1256.73 1111.14 1258.01 c 1xf8
 1112.21 1159.85 1112.08 990.2 1116.71 883 c 1
 1124.71 888 1134.71 891 1146.71 890 c 0
 1458.71 876 1555.71 882 1865.71 906 c 0
 1955.71 913 1929.71 723 1855.71 719 c 0
 1541.71 702 1462.71 707 1146.71 703 c 0
 1133.71 703 1123.71 707 1115.71 714 c 1xf4
 1118.71 428 1127.71 292 1130.71 177 c 1
 1415.71 167 1666.71 166 1951.71 188 c 0
 2041.71 195 2015.71 16 1941.71 12 c 0
 1635.71 -5 1340.71 3 1034.71 0 c 1
 994.71 -14 946.71 11 948.71 92 c 0xf2
 950.097 142.608 949.32 284.292 947.173 457.827 c 1
 808.965 457.635 601.883 464.682 419.09 450.449 c 1
 296.994 254.581 195.371 87.8932 170.869 39.8066 c 0
 121.703 -56.6846 -91.0078 -6.88965 -14.1387 113.573 c 0
 13.6334 157.094 112.82 312.193 233.755 501.139 c 1
 224.586 553.771 257.999 622.381 316.418 630.27 c 1
 522.481 952.114 756.468 1317.17 811.71 1402 c 0xf4
931.067 1249.42 m 1
 876.459 1172.3 701.705 900.17 532.902 632.075 c 1
 683.046 631.221 847.559 627.561 944.865 622.657 c 1
 941.418 844.958 936.379 1086.83 931.067 1249.42 c 1
EndSplineSet
Colour: ff00
EndChar

StartChar: Thorn
Encoding: 222 222 186
Width: 1080
VWidth: 0
Flags: W
HStem: 272.722 176.563<316.718 687.223> 1059.06 185.34<296.111 721.831>
VStem: 100 194.422<862.813 1069.4 1244.4 1422.06> 122.795 193.924<-5.30875 272.722 517.425 978.206>
LayerCount: 2
Fore
SplineSet
100 1385 m 0xe0
 94.708 1512.96 303.572 1465.54 297.051 1383.57 c 0
 295.136 1359.51 294.348 1310.28 294.422 1244.4 c 1xe0
 438.674 1270.97 594.395 1272.23 693 1244 c 0
 1007.39 1154 1101.68 840.41 1024.45 590 c 0
 925.445 269 617.584 234.851 336.387 270 c 0
 329.739 270.831 323.183 271.739 316.718 272.722 c 1
 320.323 178.206 323.763 106.787 326.495 75.8936 c 0
 336.035 -31.9824 124.264 -67.6416 125.482 75.252 c 0
 125.809 113.567 124.716 209.677 122.795 333.834 c 1xd0
 106.678 342.217 91.8755 351.008 78.3867 360 c 0
 -2.86523 414.168 28.4453 574 112.445 521.843 c 0
 114.853 520.348 117.278 518.875 119.72 517.425 c 1
 113.699 855.759 104.551 1274.96 100 1385 c 0xe0
310.63 449.285 m 1
 331.433 445.662 351.563 443.259 370.445 442 c 0
 505.445 433 718.445 452 808.445 602 c 0
 905.329 763.473 799.303 1007.6 661.445 1064 c 0
 546.744 1110.92 398.066 1087.62 296.111 1059.06 c 1
 298.845 873.184 304.544 642.332 310.63 449.285 c 1
EndSplineSet
EndChar

StartChar: thorn
Encoding: 254 254 187
Width: 1117
VWidth: 0
Flags: W
HStem: 794.321 182.348<292.896 757.858>
VStem: 110.211 187.814<-377.658 31.4198 204.491 803.936 976.668 1405.71> 116.263 201.012<-827.042 -239.108>
LayerCount: 2
Fore
SplineSet
98 1375 m 0xc0
 92.708 1502.96 301.572 1455.54 295.051 1373.57 c 0
 292.122 1336.77 291.346 1184.57 292.024 976.668 c 1
 442.812 1007.73 610.713 1010.82 714.877 981 c 0
 1029.26 891 1157.76 553.628 1060.26 285 c 0
 949.435 -20.3477 651.263 -39 373.263 11 c 0
 348.572 15.441 324.038 22.5516 300.294 31.4198 c 1
 305.464 -369.838 312.054 -719.311 317.275 -778.358 c 0
 326.815 -886.234 115.044 -921.894 116.263 -779 c 0xa0
 116.827 -712.838 114.641 -301.082 111.398 146.112 c 1
 109.972 147.43 108.593 148.727 107.263 150 c 0
 53.7253 201.259 75.4554 284.277 110.211 305.048 c 1
 106.431 796.76 101.632 1287.19 98 1375 c 0xc0
298.026 218.84 m 1xc0
 336.243 204.355 376.146 193.694 415.263 189 c 0
 640.263 162 799.263 192 865.263 342 c 0
 935.067 500.648 859.263 714 709.263 783 c 0
 576.747 843.957 430.588 825.223 292.896 794.321 c 1
 293.978 616.486 295.79 415.922 298.026 218.84 c 1xc0
EndSplineSet
EndChar

StartChar: ae
Encoding: 230 230 188
Width: 1567
VWidth: 0
Flags: W
HStem: 442.093 169.283<873.395 1277.57>
LayerCount: 2
Fore
SplineSet
841.33 875.774 m 1
 1090 1091.91 1500.1 965.876 1514.76 747.771 c 0
 1532.37 485.69 1302.07 430.861 853.896 442.093 c 1
 864.907 352.962 909.882 266.596 994.758 207.771 c 0
 1137.92 108.551 1328.76 197.771 1426.76 285.771 c 0
 1487.93 340.703 1582.24 205.475 1524.76 137.771 c 0
 1434.76 31.7715 1127.05 -71.8223 934.758 21.7715 c 0
 874.783 50.9628 824.342 93.4658 784.206 144.661 c 1
 762.761 125.064 737.795 104.992 713.758 88 c 0
 446.904 -100.645 55.5801 -37.0771 27.7578 196 c 0
 -1.00977 437 199.758 566 419.758 608 c 0
 520.389 627.211 653.758 628 687.758 621.229 c 1
 688.199 641.428 686.923 660.848 687.758 682 c 0
 693.758 834 449.758 888 229.758 680 c 0
 165.912 619.638 26.5605 733.997 131.758 842 c 0
 281.758 996 598.926 1035 758.926 955 c 0
 788.959 939.983 818.161 911.054 841.33 875.774 c 1
673.639 440.954 m 1
 634.453 452.015 520.847 455.965 453.758 438 c 0
 328.302 404.404 204.983 347.741 227.758 242 c 0
 255.396 113.68 540.169 120.427 714.952 264.281 c 1
 692.035 319.84 678.072 379.886 673.639 440.954 c 1
873.395 611.376 m 1
 1151.41 597.699 1328.58 619.128 1318.76 733.613 c 0
 1311.36 819.824 1097.54 838.664 986.758 761.771 c 0
 934.264 725.334 895.691 671.924 873.395 611.376 c 1
EndSplineSet
EndChar

StartChar: germandbls
Encoding: 223 223 189
Width: 1215
VWidth: 0
Flags: W
HStem: 704.462 200<446.407 669.406>
VStem: 99.999 189.001<34.4137 1156.37>
LayerCount: 2
Fore
SplineSet
281.574 963.98 m 0
 282.714 894.437 288.4 97 289 83 c 0
 293.634 -25.1973 96.0869 -57.8447 99.999 85 c 0
 103.785 223.177 104.062 840.854 105.6 981 c 0
 109 1291 267 1396 386.6 1426 c 0
 711.91 1507.6 972.109 1350.27 990 1132 c 0
 1005 949 884 850 753 824 c 1
 904 828 1064 735 1141 561 c 0
 1221.99 377.995 1154 87 958 18 c 0
 767.223 -49.1611 551.192 -30.5137 393 42 c 0
 317.883 76.4326 348.578 247.785 418 219 c 0
 541 168 718.905 150.436 841 192 c 0
 982 240 1003 402 949 516 c 0
 866.065 691.085 677 682.462 485 704.462 c 0
 364.972 718.215 384.378 901.743 482.4 904.462 c 0
 646 909 811 999 803 1111 c 0
 794.661 1227.74 622 1302 487 1263 c 0
 401.648 1238.34 278 1182 281.574 963.98 c 0
EndSplineSet
EndChar

StartChar: eth
Encoding: 240 240 190
Width: 1064
VWidth: 0
Flags: W
LayerCount: 2
Fore
SplineSet
854.971 658 m 1
 799.698 753.164 695.197 806.104 545.971 799 c 0
 516.353 797.59 484.76 788.738 453.06 773.295 c 0
 283.495 690.683 148.391 474.941 244.119 278.856 c 0
 260.04 246.245 284.355 218.076 314.971 196 c 0
 436.377 108.457 629.312 103.462 791.971 331 c 0
 844.9 405.042 862.455 530.614 854.971 658 c 1
583.654 1274.21 m 1
 541.835 1308.19 494.551 1342.17 440.971 1381 c 0
 403.298 1408.3 420.826 1463.23 440.686 1492.92 c 0
 465.396 1529.87 522.821 1551.39 572.906 1517.76 c 0
 634.349 1476.5 691.905 1431.1 744.186 1380.33 c 1
 768.923 1398.88 794.607 1419.03 822.226 1441.42 c 0
 864.29 1475.52 911.508 1474.88 938.846 1445.32 c 0
 966.936 1414.94 966.228 1363.85 929.262 1329.74 c 0
 902.037 1304.62 875.365 1281.81 849.14 1260.86 c 1
 954.119 1119.27 1023.16 941.879 1037.27 711.915 c 0
 1049.04 520.026 1019.42 319.891 936.075 207.141 c 0
 829.795 63.3574 705.369 -13.376 583.057 -40.8594 c 0
 327.269 -98.334 82.7139 58.6055 41.0654 244.535 c 0
 -32.793 574.256 153.814 901.516 481.617 980.308 c 0
 599.743 1008.7 710.116 1001.14 806.971 946 c 1
 779.299 1035.59 744.972 1101.53 701.716 1157.13 c 1
 651.781 1126.06 602.832 1098.94 554.018 1072.09 c 0
 443.422 1011.26 374.587 1166.25 478.79 1218.36 c 0
 517.098 1237.52 551.374 1255.7 583.654 1274.21 c 1
EndSplineSet
EndChar

StartChar: sterling
Encoding: 163 163 191
Width: 1217
VWidth: 0
Flags: W
HStem: 674.758 189.636<143.669 251.37 461.433 861.88>
VStem: 251.37 178.627<863.972 1155.93>
LayerCount: 2
Fore
SplineSet
361.417 211.789 m 1
 321.831 241.776 292.84 256.772 284.306 257.01 c 0
 264.822 257.551 249.351 249.15 238.495 236.546 c 0
 219.427 214.403 221.857 189.816 232.175 181.062 c 0
 250.977 165.109 274.765 150.108 294.709 145.05 c 0
 319.782 138.69 343.797 140.262 359.746 204.062 c 0
 360.346 206.462 361.007 209.616 361.417 211.789 c 1
970.555 1199.34 m 0
 856.216 1289.18 747.518 1333.01 624.311 1277.23 c 0
 486.759 1214.95 427.696 1123.12 429.997 972.382 c 0
 430.614 931.952 432.808 892.403 435.838 857.767 c 1
 555.134 856.667 681.357 860.102 768.943 868.734 c 0
 772.426 869.078 775.887 869.218 779.306 869.164 c 0
 838.785 868.231 879.429 812.495 878.352 762.791 c 0
 877.362 717.15 839.377 681.411 774.834 682.861 c 0
 674.325 685.119 564.253 683.391 461.433 680.748 c 1
 491.047 532.231 531.712 419.5 540.907 297.655 c 1
 723.669 158.516 867.051 4.6748 1068.98 192.314 c 0
 1104.46 225.284 1149.49 208.062 1171.46 179.062 c 0
 1200.3 140.985 1201.84 75.4951 1143.08 31.0586 c 0
 911.01 -144.418 679.111 -24.9795 515.291 93.1055 c 1
 507.91 77.8164 499.957 65.3076 490.285 53.1338 c 0
 404.63 -54.6738 231.472 -59.7842 128.406 22.459 c 0
 86.9434 55.5459 63.5732 105.7 55.3398 157.885 c 0
 38.3262 265.715 85.7246 401.274 209.112 420.696 c 0
 254.113 427.779 298.405 423.159 338.099 411.765 c 1
 319.566 490.317 294.984 580.259 276.441 675.328 c 1
 265.205 674.998 256.097 674.738 246.084 674.463 c 0
 239.669 674.288 233.492 674.389 227.545 674.758 c 0
 159.908 678.961 121.903 721.561 125.166 770.052 c 0
 128.652 821.873 177.103 869.122 245.131 864.394 c 0
 247.091 864.258 250.014 864.062 251.37 863.972 c 1
 249.157 902.306 248.9 937.036 251.041 974.236 c 0
 263.951 1198.58 356.335 1354.15 565.139 1443.77 c 0
 761.254 1527.95 942.623 1459.86 1093.13 1318.21 c 0
 1128.47 1284.94 1126.95 1234.29 1102.22 1202.49 c 0
 1074.59 1166.95 1021.21 1159.54 970.555 1199.34 c 0
EndSplineSet
EndChar

StartChar: doublestorya
Encoding: 65537 -1 192
Width: 965
VWidth: 0
Flags: W
VStem: 690 198<225.881 446.43 621.229 776.67>
LayerCount: 2
Fore
SplineSet
685.318 437.419 m 1
 660 451 529.832 457.771 456 438 c 0
 330.544 404.404 207.225 347.741 230 242 c 0
 258 112 517.91 106.627 692 256 c 1
 686.214 371.255 683.846 334.771 685.318 437.419 c 1
849.168 -9 m 0
 781.326 -17.2734 725.202 26.0205 716 88 c 1
 449.146 -100.645 57.8223 -37.0771 30 196 c 0
 1.23242 437 202 566 422 608 c 0
 522.63 627.211 656 628 690 621.229 c 1
 690.441 641.428 689.165 660.848 690 682 c 0
 696 834 452 888 232 680 c 0
 168.154 619.638 28.8018 733.997 134 842 c 0
 284 996 601.168 1035 761.168 955 c 0
 838.331 916.418 892.283 773.912 888 692 c 0
 872 386 876.229 362.485 916 100 c 0
 926.001 34 894.116 -3.51855 849.168 -9 c 0
EndSplineSet
EndChar

StartChar: dcroat
Encoding: 273 273 193
Width: 1037
VWidth: 0
Flags: W
HStem: 1105.8 163.931<475.827 725.811 917.159 1022.9>
VStem: 729.33 187.829<963.043 1105.8 1269.73 1410.81> 743.14 201.873<199.542 607.793>
LayerCount: 2
Fore
SplineSet
722.518 1373.75 m 0xc0
 717.226 1501.71 926.09 1454.29 919.568 1372.32 c 0
 918.027 1352.95 917.141 1317.28 916.794 1269.73 c 1
 929.183 1270.69 941.584 1271.78 954 1273 c 0
 1035.84 1281.07 1086.04 1102.12 958 1105 c 0
 943.944 1105.32 930.349 1105.58 917.159 1105.8 c 1xc0
 920.225 749.31 935.675 170.238 945.013 64.6416 c 0xa0
 954.181 -39.0239 758.976 -76 744.805 48.0778 c 1
 496.664 -81.7714 148.11 -17.6078 51 298 c 0
 -28.6299 556.797 145.007 895.309 460.09 965.621 c 0
 576.564 991.612 669.75 979.094 732.246 954.453 c 1
 731.273 1007.62 730.293 1058.64 729.33 1105.96 c 1
 663.824 1104.95 602.023 1102.97 530.001 1101 c 0
 387.156 1097.09 419.965 1280.51 528.001 1273 c 0
 594.595 1268.38 660.334 1265.03 725.811 1264.16 c 1
 724.611 1312.34 723.494 1350.15 722.518 1373.75 c 0xc0
735.296 779.635 m 1
 675.483 799.261 578.006 811.409 486 781 c 0
 301.734 720.098 192 529 249 349 c 0
 303.7 176.263 504.073 93.9692 743.14 220.923 c 1xa0
 741.69 363.953 738.701 575.219 735.296 779.635 c 1
EndSplineSet
EndChar

StartChar: circumflex
Encoding: 710 710 194
Width: 677
VWidth: 0
Flags: W
LayerCount: 2
Fore
SplineSet
66 1183 m 0
 137.293 1274.02 184.692 1354.09 247.84 1453.41 c 0
 294.605 1526.97 374.943 1538.13 431.327 1444.94 c 0
 485.569 1355.3 544.788 1271.29 614 1178 c 0
 673.424 1097.91 545.908 1004.46 475.625 1102.43 c 0
 430.909 1164.75 386.789 1222.28 336.793 1301.14 c 1
 279.026 1212.04 231.168 1148.28 196.549 1097.85 c 0
 167.395 1055.38 124.723 1061.37 87.3564 1073.51 c 0
 52 1085 29.9688 1137 66 1183 c 0
EndSplineSet
EndChar

StartChar: tilde
Encoding: 732 732 195
Width: 1019
VWidth: 0
Flags: W
LayerCount: 2
Fore
SplineSet
817.089 1116.12 m 0
 748.443 1023.44 615.58 991.492 463.541 1080.42 c 0
 372.25 1133.82 339.343 1119.34 290.123 1060.9 c 0
 264.208 1030.12 227.671 1020.04 197.03 1032.93 c 0
 155.49 1050.4 137.676 1102.36 160.187 1154.85 c 0
 163.643 1162.91 168.163 1170.71 173.547 1178.32 c 0
 226.594 1253.32 383.986 1333.26 521.651 1235.37 c 0
 616.801 1167.72 641.715 1169.79 712.672 1238.02 c 0
 746.255 1270.31 793.447 1281.86 826.589 1257.63 c 0
 865.679 1229.05 858.689 1172.28 817.089 1116.12 c 0
EndSplineSet
EndChar

StartChar: ring
Encoding: 730 730 196
Width: 580
VWidth: 0
Flags: W
LayerCount: 2
Fore
SplineSet
38.3301 1364.99 m 0
 47.5908 1410.48 70.9756 1447.77 102.297 1475.58 c 0
 206.347 1567.95 399.655 1562.95 493.571 1456.54 c 0
 520.844 1425.64 537.474 1388.23 545.102 1349.04 c 0
 571.44 1213.71 492.881 1043.78 349.594 1015.96 c 0
 312.704 1008.79 275.609 1008.94 240.369 1015.96 c 0
 103.87 1043.13 -0.607422 1173.69 38.3301 1364.99 c 0
205.661 1377.51 m 0
 184.402 1360.97 171.417 1335.7 167.299 1306.82 c 0
 157.796 1240.2 195.327 1170.05 255.416 1161.77 c 0
 267.033 1160.16 277.951 1159.29 288.138 1159.12 c 0
 368.982 1157.69 407.764 1194.66 409.003 1281.36 c 0
 409.474 1314.37 400.013 1339.66 385.166 1358.81 c 0
 345.256 1410.29 260.628 1420.26 205.661 1377.51 c 0
EndSplineSet
EndChar

StartChar: caron
Encoding: 711 711 197
Width: 677
VWidth: 0
Flags: W
LayerCount: 2
Fore
SplineSet
66 1392 m 0
 29.9688 1438 52 1490 87.3564 1501.49 c 0
 124.723 1513.63 167.395 1519.62 196.549 1477.15 c 0
 231.168 1426.72 279.026 1362.96 336.793 1273.86 c 1
 386.789 1352.72 430.909 1410.25 475.625 1472.57 c 0
 545.908 1570.54 673.424 1477.09 614 1397 c 0
 544.788 1303.71 485.569 1219.7 431.327 1130.06 c 0
 374.943 1036.87 294.605 1048.03 247.84 1121.59 c 0
 184.692 1220.91 137.293 1300.98 66 1392 c 0
EndSplineSet
EndChar

StartChar: beta
Encoding: 946 946 201
Width: 1194
VWidth: 0
Flags: W
HStem: 704.462 200<446.407 669.406>
VStem: 101.999 189.001<-518.586 1163.35>
LayerCount: 2
Fore
SplineSet
281.574 963.98 m 0
 282.714 894.437 290.4 -456 291 -470 c 0
 295.634 -578.197 98.0869 -610.845 101.999 -468 c 0
 105.785 -329.823 104.062 840.854 105.6 981 c 0
 109 1291 267 1396 386.6 1426 c 0
 711.91 1507.6 972.109 1350.27 990 1132 c 0
 1005 949 884 850 753 824 c 1
 904 828 1064 735 1141 561 c 0
 1221.99 377.995 1154 87 958 18 c 0
 767.223 -49.1611 551.192 -30.5137 393 42 c 0
 317.883 76.4326 348.578 247.785 418 219 c 0
 541 168 718.905 150.436 841 192 c 0
 982 240 1003 402 949 516 c 0
 866.065 691.085 677 682.462 485 704.462 c 0
 364.972 718.215 384.378 901.743 482.4 904.462 c 0
 646 909 811 999 803 1111 c 0
 794.661 1227.74 622 1302 487 1263 c 0
 401.648 1238.34 278 1182 281.574 963.98 c 0
EndSplineSet
EndChar

StartChar: eogonek
Encoding: 281 281 202
Width: 960
VWidth: 0
Flags: W
HStem: 441.321 169.283<-0.339722 70.6307 265.857 670.037>
LayerCount: 2
Fore
SplineSet
265.857 610.604 m 1
 543.875 596.928 721.045 618.357 711.221 732.843 c 0
 703.824 819.054 490.001 837.894 379.221 761 c 0
 326.727 724.562 288.153 671.152 265.857 610.604 c 1
387.221 207 m 0
 530.382 107.779 721.221 197 819.221 285 c 0
 880.396 339.933 974.705 204.703 917.221 137 c 0
 854.482 63.1072 685.947 -9.61623 524.465 -15.1868 c 1
 477.177 -92.0089 475.622 -132.824 500.133 -155.804 c 0
 538.988 -192.231 644.898 -181.939 718.038 -118.421 c 0
 743.807 -96.0439 773.854 -104.719 790.652 -126.131 c 0
 817.678 -160.571 820.413 -229.473 765.094 -272.578 c 0
 664.455 -350.995 492.711 -362.237 415.973 -281.051 c 0
 353.857 -215.332 365.476 -102.542 424.641 -9.18954 c 1
 390.194 -3.45315 357.296 6.36163 327.221 21 c 0
 168.008 98.4932 75.9854 269.796 65.5586 448.486 c 1
 60.7979 448.729 56.0186 448.978 51.2207 449.229 c 0
 -39.7373 454.002 -30.9316 632.359 67.2207 624.229 c 0
 72.1602 623.82 77.0791 623.416 81.9785 623.018 c 1
 97.5664 684.154 123.773 742.726 161.221 795 c 0
 391.663 1116.68 891.027 988.085 907.221 747 c 0
 924.824 484.918 694.537 430.09 246.359 441.321 c 1
 257.37 352.19 302.346 265.824 387.221 207 c 0
EndSplineSet
EndChar

StartChar: ogonek
Encoding: 731 731 203
Width: 1007
VWidth: 0
Flags: W
LayerCount: 2
Fore
SplineSet
364.042 53.8398 m 0
 382.263 75.7051 425.475 77.8916 444.488 65.5518 c 0
 454.646 58.96 458.453 44.0234 450.828 32.6475 c 0
 389.208 -59.2783 384.768 -105.876 411.627 -131.057 c 0
 450.483 -167.485 556.393 -157.193 629.533 -93.6748 c 0
 655.301 -71.2979 685.348 -79.9727 702.147 -101.384 c 0
 729.172 -135.825 731.908 -204.726 676.588 -247.832 c 0
 575.95 -326.249 404.205 -337.491 327.467 -256.304 c 0
 256.559 -181.284 281.738 -44.9238 364.042 53.8398 c 0
EndSplineSet
EndChar

StartChar: Aogonek
Encoding: 260 260 206
Width: 1163
VWidth: 0
Flags: W
HStem: 460.627 161.582<398.622 790.371>
LayerCount: 2
Fore
SplineSet
790.371 622.209 m 1
 707.085 873.813 625.102 1124.44 597.97 1213.58 c 1
 552.185 1089.74 473.953 856.269 395.572 626.23 c 1
 519.892 627.114 664.879 625.495 790.371 622.209 c 1
1048.44 459.359 m 1
 1104.29 294.233 1152.63 150.812 1180.97 63 c 0
 1190.85 32.3798 1146.76 -1.6931 1098.19 -14.5784 c 1
 1098.13 -18.9696 1096.86 -23.4427 1094.17 -27.4697 c 0
 1032.54 -119.396 1028.11 -165.993 1054.96 -191.175 c 0
 1093.82 -227.603 1199.73 -217.311 1272.87 -153.792 c 0
 1298.64 -131.415 1328.69 -140.09 1345.48 -161.502 c 0
 1372.51 -195.942 1375.25 -264.844 1319.92 -307.949 c 0
 1219.29 -386.366 1047.54 -397.608 970.804 -316.422 c 0
 899.896 -241.401 925.075 -105.041 1007.38 -6.27734 c 0
 1007.95 -5.59627 1008.54 -4.93429 1009.15 -4.29124 c 1
 1001.64 1.97121 995.698 10.2968 991.967 21 c 0
 967.367 91.5645 908.952 265.352 843.99 460.627 c 1
 680.907 460.667 485.69 453.053 331.252 438.729 c 1
 268.335 256.998 211.432 99.0342 178.87 29 c 0
 140.185 -54.208 -49.957 -0.119141 -15.1309 80 c 0
 20.7363 162.514 78.7871 309.148 142.972 477.827 c 1
 128.811 523.367 149.812 586.671 193.565 611.971 c 1
 303.783 906.717 419.52 1232.42 466.97 1395.58 c 0
 487.452 1466.01 710.229 1479.51 737.97 1391.58 c 0
 801.144 1191.35 903.205 888.663 996.079 614.116 c 1
 1006.28 613.503 1015.82 612.874 1024.63 612.229 c 0
 1098.89 606.796 1136.93 479.018 1048.44 459.359 c 1
EndSplineSet
EndChar

StartChar: aogonek
Encoding: 261 261 207
Width: 976
VWidth: 0
Flags: W
VStem: 687.758 198<225.881 446.43 621.229 776.67>
LayerCount: 2
Fore
SplineSet
683.076 437.419 m 1
 657.758 451 527.59 457.771 453.758 438 c 0
 328.302 404.404 204.982 347.741 227.758 242 c 0
 255.758 112 515.668 106.627 689.758 256 c 1
 683.972 371.255 681.604 334.771 683.076 437.419 c 1
758.646 12.9382 m 1
 734.826 30.4745 718.378 56.8822 713.758 88 c 1
 446.904 -100.645 55.5801 -37.0771 27.7578 196 c 0
 -1.00977 437 199.758 566 419.758 608 c 0
 520.388 627.211 653.758 628 687.758 621.229 c 1
 688.199 641.428 686.923 660.848 687.758 682 c 0
 693.758 834 449.758 888 229.758 680 c 0
 165.912 619.638 26.5596 733.997 131.758 842 c 0
 281.758 996 598.926 1035 758.926 955 c 0
 836.089 916.418 890.041 773.912 885.758 692 c 0
 869.758 386 873.986 362.485 913.758 100 c 0
 923.759 34 891.874 -3.51855 846.926 -9 c 0
 846.915 -9 846.904 -9.00395 846.893 -9.00395 c 0
 794.575 -91.1855 792.015 -134.09 817.389 -157.879 c 0
 856.245 -194.308 962.155 -184.016 1035.29 -120.497 c 0
 1061.06 -98.1201 1091.11 -106.795 1107.91 -128.206 c 0
 1134.93 -162.647 1137.67 -231.548 1082.35 -274.654 c 0
 981.712 -353.071 809.967 -364.313 733.229 -283.126 c 0
 665.634 -211.611 685.357 -84.3542 758.646 12.9382 c 1
EndSplineSet
EndChar

StartChar: dotaccent
Encoding: 729 729 219
Width: 359
VWidth: 0
Flags: W
LayerCount: 2
Fore
SplineSet
63.5098 1428 m 0
 74.5098 1507 196.51 1554 255.51 1500 c 0
 319.51 1441 307.51 1309 225.51 1278 c 0
 144.51 1248 52.5098 1343 63.5098 1428 c 0
EndSplineSet
EndChar

StartChar: breve
Encoding: 728 728 220
Width: 1039
VWidth: 0
Flags: W
HStem: 1247 170<348.572 689.954>
LayerCount: 2
Fore
SplineSet
207.748 1397.41 m 0
 177.938 1435.84 187.615 1480.18 211.1 1503.75 c 0
 230.803 1523.54 266.804 1535.22 292.885 1509.14 c 0
 372.238 1429.78 421.191 1418.95 520.158 1417 c 0
 613.396 1415.05 671.808 1430.02 732.638 1500.11 c 0
 757.594 1528.87 791.9 1532.34 816.903 1516.29 c 0
 849.245 1495.52 863.859 1446.56 836.438 1404.99 c 0
 770.375 1304.84 657.406 1248.04 521.896 1247 c 0
 386.271 1245.96 287.066 1295.14 207.748 1397.41 c 0
EndSplineSet
EndChar

StartChar: Eogonek
Encoding: 280 280 229
Width: 1236
VWidth: 0
Flags: W
HStem: 0 190<317 422.715 884.075 1145.08> 701 184<302.376 847.64> 1277 166<291 1156.92>
VStem: 100 202<881.553 1268>
LayerCount: 2
Fore
SplineSet
100 1382 m 0
 95 1472 210 1474 250 1439 c 1
 632 1437 803 1426 1160 1443 c 0
 1202 1445 1210 1281 1139 1277 c 0
 832.004 1259.7 619 1264 291 1268 c 1
 294 1211 296 1017 302 878 c 1
 310 883 320 886 332 885 c 0
 644 871 749 877 1059 901 c 0
 1149 908 1123 721 1049 717 c 0
 735 700 646 705 330 701 c 0
 317 701 307 705 299 712 c 1
 302 426 314 305 317 190 c 1
 602 180 860 179 1145 201 c 0
 1235 208 1209 16 1135 12 c 0
 1033.29 6.34942 935.115 3.46087 838.125 2.01234 c 1
 840.481 -4.70085 839.936 -12.584 835.471 -19.2461 c 0
 773.851 -111.172 769.41 -157.77 796.27 -182.951 c 0
 835.125 -219.379 941.035 -209.087 1014.18 -145.568 c 0
 1039.94 -123.191 1069.99 -131.866 1086.79 -153.277 c 0
 1113.81 -187.719 1116.55 -256.62 1061.23 -299.726 c 0
 960.592 -378.143 788.848 -389.385 712.109 -308.198 c 0
 641.418 -233.407 666.227 -97.6509 747.931 1.0391 c 1
 584.144 -0.116781 421.666 1.69281 249 0 c 1
 209 -14 121 11 123 92 c 0
 127 238 113 1142 100 1382 c 0
EndSplineSet
EndChar

StartChar: Iogonek
Encoding: 302 302 247
Width: 426
VWidth: 0
Flags: W
VStem: 100.099 197.051<865.143 1421.26>
LayerCount: 2
Fore
SplineSet
100.099 1384.2 m 0
 94.8066 1512.16 303.671 1464.74 297.149 1382.77 c 0
 285.831 1240.53 313.879 218.879 326.594 75.0938 c 0
 330.722 28.4133 293.41 -4.74464 249.847 -15.7638 c 1
 249.913 -20.3678 248.658 -25.0918 245.822 -29.3232 c 0
 184.202 -121.249 179.763 -167.847 206.621 -193.028 c 0
 245.478 -229.456 351.388 -219.164 424.527 -155.646 c 0
 450.295 -133.269 480.343 -141.943 497.142 -163.354 c 0
 524.166 -197.796 526.902 -266.697 471.582 -309.803 c 0
 370.944 -388.22 199.199 -399.462 122.461 -318.274 c 0
 51.5537 -243.255 76.7324 -106.895 159.036 -8.13086 c 0
 160.149 -6.79592 161.354 -5.53434 162.642 -4.34493 c 1
 140.457 10.2947 125.252 35.8623 125.581 74.4521 c 0
 126.826 220.501 107.456 1206.31 100.099 1384.2 c 0
EndSplineSet
EndChar

StartChar: iogonek
Encoding: 303 303 248
Width: 460
VWidth: 0
Flags: W
VStem: 133.899 197.051<391.975 962.058> 149.521 201.012<-3.002 614.526>
LayerCount: 2
Fore
SplineSet
133.899 925 m 0x80
 128.607 1052.96 337.472 1005.54 330.95 923.569 c 0x80
 319.632 781.33 337.818 218.879 350.533 75.0938 c 0
 354.38 31.5921 322.239 -0.165968 282.588 -13.2074 c 1
 282.133 -16.6842 280.894 -20.1429 278.763 -23.3232 c 0
 217.143 -115.249 212.703 -161.847 239.562 -187.028 c 0
 278.418 -223.456 384.328 -213.164 457.468 -149.646 c 0
 483.235 -127.269 513.283 -135.943 530.082 -157.354 c 0
 557.106 -191.796 559.843 -260.697 504.522 -303.803 c 0
 403.885 -382.22 232.14 -393.462 155.401 -312.274 c 0
 85.3771 -238.189 109.061 -104.281 188.929 -5.83747 c 1
 165.477 8.52646 149.181 34.5159 149.521 74.4521 c 0x40
 150.766 220.501 141.257 747.11 133.899 925 c 0x80
100.899 1335 m 0
 111.899 1414 233.899 1461 292.899 1407 c 0
 356.899 1348 344.899 1216 262.899 1185 c 0
 181.899 1155 89.8994 1250 100.899 1335 c 0
EndSplineSet
EndChar

StartChar: hungarumlaut
Encoding: 733 733 250
Width: 642
VWidth: 0
Flags: W
HStem: 990.893 556.747
VStem: 42.6309 137.912<999.704 1167.94> 303.63 137.913<999.704 1167.94>
LayerCount: 2
Fore
SplineSet
338.465 1456.44 m 0
 265.504 1276.55 231.571 1186.71 180.543 1056.64 c 0
 159.34 1002.11 114.115 978.396 76.9336 990.893 c 0
 44.6289 1001.75 28.623 1038.03 42.6309 1079.51 c 0
 87.5625 1217.3 126.585 1337.37 174.518 1492.15 c 0
 193.312 1553.23 251.719 1563.83 292.382 1547.64 c 0
 325.759 1534.35 355.616 1499 338.465 1456.44 c 0
599.465 1456.44 m 0
 526.498 1276.55 492.571 1186.71 441.543 1056.64 c 0
 420.339 1002.11 375.116 978.396 337.934 990.893 c 0
 305.629 1001.75 289.624 1038.03 303.63 1079.51 c 0
 348.563 1217.29 387.59 1337.39 435.516 1492.15 c 0
 454.315 1553.25 512.718 1563.83 553.382 1547.64 c 0
 586.759 1534.35 616.616 1499 599.465 1456.44 c 0
EndSplineSet
EndChar

StartChar: IJ
Encoding: 306 306 251
Width: 1403
VWidth: 0
Flags: W
HStem: -291 195<250.366 807.11> 1282.3 166.32<298.198 701.325>
VStem: 115.074 195.001<25.3751 1282.3>
LayerCount: 2
Fore
SplineSet
109.433 1376.23 m 0
 107.794 1449.17 158.884 1449.46 205.024 1448.62 c 0
 515 1443 759.175 1412.27 1138 1471 c 0
 1201.38 1480.83 1306.24 1412.54 1310 1353 c 0
 1346 783 1400 315 1169 -39 c 0
 975.823 -335.037 655.244 -334.911 282 -291 c 0
 180 -279 215.788 -79.8252 290 -96 c 0
 524 -147 811.611 -152.316 987 48 c 0
 1184 273 1176 670 1129 1295 c 1
 829.047 1252.15 505 1273 298.198 1282.3 c 1
 287.335 1053.46 300.659 204.491 310.075 68.9043 c 0
 317.579 -39.1318 111.162 -71.9404 115.074 70.9043 c 0
 119.074 216.904 113.433 1198.23 109.433 1376.23 c 0
EndSplineSet
EndChar

StartChar: ij
Encoding: 307 307 252
Width: 970
VWidth: 0
Flags: W
VStem: 114.544 200<176.678 964.643> 670.144 190<-794.529 592>
LayerCount: 2
Fore
SplineSet
671.307 592 m 1
 635.085 363 530.085 93 462.085 21 c 0
 412.486 -31.5166 339.154 -51.8976 257.085 -36 c 0
 159 -17 107 47 107.085 183 c 0
 107.176 329.055 118.544 752 114.544 930 c 0
 111.667 1058.03 322.61 1007.82 314.544 926 c 0
 300.544 784 295.085 358 305.085 214 c 0
 307.589 177.946 344.025 161.767 377.085 177 c 0
 479.085 224 621.085 783 634.085 921 c 0
 646.096 1048.5 863.61 1007.82 855.544 926 c 0
 841.544 784 850.144 -602 860.144 -746 c 0
 867.647 -854.036 666.231 -886.845 670.144 -744 c 0
 673.452 -623.229 673.614 168.396 671.307 592 c 1
121 1353 m 0
 132 1432 254 1479 313 1425 c 0
 377 1366 365 1234 283 1203 c 0
 202 1173 110 1268 121 1353 c 0
609 1357 m 0
 620 1436 742 1483 801 1429 c 0
 865 1370 853 1238 771 1207 c 0
 690 1177 598 1272 609 1357 c 0
EndSplineSet
EndChar

StartChar: uni0237
Encoding: 567 567 277
Width: 637
VWidth: 0
Flags: W
VStem: 277.036 190.1<445.296 963.08>
LayerCount: 2
Fore
SplineSet
277.036 936 m 0
 266.847 1021.09 459.991 1002.88 467.136 939 c 0
 528.602 389.417 541.491 -175.764 500.036 -470 c 0
 421.136 -1030 -176.106 -928.615 -300.864 -663 c 0
 -331.864 -597 -276.771 -452.557 -242.864 -504 c 0
 -126.864 -680 181.16 -739.508 270.136 -546 c 0
 366.235 -337 343.136 384 277.036 936 c 0
EndSplineSet
EndChar

StartChar: Scedilla
Encoding: 350 350 288
Width: 1012
VWidth: 0
Flags: W
VStem: 448.403 115.04<-130.178 -6.52731>
LayerCount: 2
Fore
SplineSet
767.593 1215 m 0
 662.593 1284 422.985 1288.12 311.593 1230 c 0
 242.593 1194 207.968 1106.2 242.593 1032 c 0
 320.593 864.843 923.135 693 977.593 438 c 0
 1043.06 131.413 763.421 5.9241 561.963 -10.9885 c 1
 563.226 -52.5634 562.796 -85.9538 563.443 -130.178 c 1
 649.989 -112.448 781.747 -112.126 831.428 -219.172 c 0
 875.742 -314.651 817.804 -431.847 721.695 -476.434 c 0
 599.53 -532.733 446.156 -479.885 386.602 -404.089 c 0
 368.511 -381.062 366.213 -351.092 380.091 -332.264 c 0
 392.458 -315.487 415.52 -314.257 434.558 -328.943 c 0
 500.188 -379.573 586.981 -389.109 658.541 -364.629 c 0
 700.265 -350.354 724.369 -301.009 704.595 -268.64 c 0
 679.532 -227.612 621.274 -234.176 553.526 -264.511 c 0
 500.991 -288.033 446.543 -259.907 448.403 -200.352 c 0
 450.311 -139.328 444.107 -78.0467 443.786 -10.2121 c 1
 272.966 3.37905 123.717 67.1589 44.5928 192 c 0
 -28.8555 307.885 123.39 432.457 185.593 324 c 0
 302.593 120 803.593 135 779.593 363 c 0
 757.866 569.402 147.42 695.357 50.8604 979 c 0
 2.86035 1120 56.8604 1273 188.86 1360 c 0
 377.908 1484.6 717.601 1464.99 837.86 1380 c 0
 945.402 1304 838.239 1168.57 767.593 1215 c 0
EndSplineSet
EndChar

StartChar: scedilla
Encoding: 351 351 289
Width: 856
VWidth: 0
Flags: W
HStem: 783 176<245.253 715.929>
VStem: 348.799 115.04<-111.84 -14.6487>
LayerCount: 2
Fore
SplineSet
664.643 783 m 0
 508.643 836 245.566 826.803 242.643 742 c 0
 238.643 626 735.643 561 806.643 380 c 0
 889.289 169.312 756.643 7 543.643 -11 c 0
 516.774 -13.2706 489.752 -14.5109 462.897 -14.6487 c 1
 463.501 -46.7366 463.31 -75.6634 463.839 -111.84 c 1
 550.385 -94.1104 682.143 -93.7881 731.824 -200.833 c 0
 776.138 -296.313 718.2 -413.508 622.091 -458.096 c 0
 499.926 -514.396 346.552 -461.546 286.997 -385.75 c 0
 268.906 -362.725 266.608 -332.753 280.486 -313.925 c 0
 292.854 -297.149 315.915 -295.918 334.954 -310.605 c 0
 400.583 -361.235 487.377 -370.771 558.937 -346.29 c 0
 600.661 -332.016 624.765 -282.67 604.991 -250.301 c 0
 579.928 -209.274 521.67 -215.837 453.922 -246.172 c 0
 401.387 -269.695 346.938 -241.569 348.799 -182.014 c 0
 350.558 -125.74 345.419 -69.2468 344.357 -7.59752 c 1
 218.228 8.77597 107.673 54.4432 50.6426 138 c 0
 -26.7031 251.321 87.4209 367.579 174.643 278 c 0
 248.643 202 358.643 158 474.643 164 c 0
 562.729 168.557 679.041 221.078 626.643 314 c 0
 552.643 445.229 107.86 483 40.6426 682 c 0
 23.9258 731.49 16.0732 849.438 128.643 914 c 0
 264.643 992 551.171 1003.88 691.425 959 c 0
 791.425 927 751.174 753.602 664.643 783 c 0
EndSplineSet
EndChar

StartChar: Tcommaaccent
Encoding: 354 354 290
Width: 1220
VWidth: 0
Flags: W
HStem: 1267.3 172<31.3685 105.501 810.368 1193.25>
VStem: 491.218 193.211<725.334 1254.33> 540.514 117.677<-135.312 -3.27292>
LayerCount: 2
Fore
SplineSet
38.2314 1439.3 m 0xc0
 530.231 1421.3 722.582 1433.85 1176.23 1451.3 c 0
 1254.23 1454.3 1269.6 1290.9 1203.23 1285.3 c 0
 989.1 1267.22 853.326 1258.05 684.429 1255.25 c 1xc0
 673.457 1029.19 692.795 211.195 702.231 75.2988 c 0
 704.595 41.2639 685.431 14.6949 658.19 -1.26811 c 1
 660.081 -50.0837 659.462 -85.9488 660.184 -135.312 c 1
 746.729 -117.582 878.488 -117.26 928.169 -224.305 c 0
 972.482 -319.785 914.545 -436.98 818.436 -481.567 c 0
 696.271 -537.867 542.896 -485.018 483.342 -409.222 c 0
 465.251 -386.196 462.953 -356.225 476.831 -337.397 c 0
 489.199 -320.621 512.26 -319.39 531.299 -334.077 c 0
 596.928 -384.707 683.722 -394.243 755.282 -369.762 c 0
 797.006 -355.487 821.109 -306.142 801.336 -273.773 c 0
 776.273 -232.746 718.015 -239.309 650.267 -269.645 c 0
 597.732 -293.167 543.284 -265.041 545.144 -205.485 c 0
 547.102 -142.85 540.514 -79.9414 540.514 -9.9541 c 0xa0
 540.514 -7.65519 540.693 -5.39169 541.036 -3.16868 c 1
 518.476 11.5671 503.146 37.6751 504.231 77.2988 c 0
 508.009 215.172 494.538 1002.31 491.218 1254.33 c 1
 338.987 1254.67 230.757 1259.6 38.2314 1267.3 c 0
 -36.7686 1270.3 -54.8994 1442.71 38.2314 1439.3 c 0xc0
EndSplineSet
EndChar

StartChar: tcommaaccent
Encoding: 355 355 291
Width: 873
VWidth: 0
Flags: W
HStem: 772 199<37.5971 332.132>
VStem: 321.433 197.05<976.477 1393.71> 347.864 174.933<280.928 784.635> 386.162 117.363<-140.701 -2.3411>
LayerCount: 2
Fore
SplineSet
321.433 1363 m 0xc0
 316.141 1490.96 525.004 1443.54 518.482 1361.57 c 0xc0
 514.556 1312.23 515.48 1160.12 518.895 976.477 c 1
 647.312 981.454 762.859 987.538 807.432 991 c 0
 889.416 997.368 937.492 811.438 809.432 810 c 0
 770.463 809.562 653.848 802.989 522.797 795.402 c 1xa0
 530.24 487.554 541.964 157.487 548.877 79.3242 c 0
 551.957 44.495 531.967 17.1938 503.525 0.999247 c 1
 505.797 -51.8111 505.073 -88.7935 505.832 -140.701 c 1
 592.378 -122.972 724.136 -122.649 773.816 -229.694 c 0
 818.131 -325.175 760.193 -442.369 664.084 -486.957 c 0
 541.919 -543.257 388.545 -490.407 328.99 -414.611 c 0
 310.899 -391.586 308.602 -361.614 322.479 -342.786 c 0
 334.847 -326.011 357.908 -324.779 376.947 -339.467 c 0
 442.576 -390.097 529.37 -399.633 600.93 -375.151 c 0
 642.654 -360.877 666.758 -311.531 646.984 -279.162 c 0
 621.921 -238.136 563.663 -244.698 495.915 -275.033 c 0
 443.38 -298.557 388.932 -270.431 390.792 -210.875 c 0
 392.75 -148.239 386.162 -85.3311 386.162 -15.3438 c 0x90
 386.162 -10.7913 386.864 -6.37766 388.159 -2.14244 c 1
 364.232 12.1066 347.52 38.245 347.864 78.6826 c 0xa0
 348.543 158.281 342.815 479.77 336.273 784.635 c 1
 229.438 778.574 132.665 773.431 80.4326 772 c 0
 -62.4121 768.088 -29.6035 978.505 78.4326 971 c 0
 130.309 967.397 226.048 967.948 332.132 970.501 c 1
 327.971 1150.2 323.945 1302.24 321.433 1363 c 0xc0
EndSplineSet
EndChar

StartChar: Uogonek
Encoding: 370 370 304
Width: 1337
VWidth: 0
Flags: W
HStem: -9.53167 192.981<709.73 834.685>
VStem: 94.834 200.001<862.558 1433.47> 1027.83 195<902.602 1438.33>
LayerCount: 2
Fore
SplineSet
94.834 1400.45 m 0
 99.4609 1491.13 298.905 1494.11 294.835 1397.45 c 0
 282.835 1112.45 162.031 183.93 667.833 183.449 c 0
 1140.06 183 1075.83 1001.45 1027.83 1388.45 c 0
 1014.46 1496.29 1214.74 1500.25 1222.83 1427.45 c 0
 1264.83 1049.45 1290.73 475.092 1090.83 197.449 c 0
 992.056 60.2605 851.666 -2.89966 709.73 -9.53167 c 1
 710.391 -14.927 709.255 -20.6561 705.882 -25.6885 c 0
 644.262 -117.614 639.822 -164.212 666.681 -189.394 c 0
 705.537 -225.821 811.447 -215.529 884.587 -152.011 c 0
 910.355 -129.634 940.402 -138.309 957.201 -159.721 c 0
 984.227 -194.161 986.962 -263.062 931.643 -306.168 c 0
 831.004 -384.585 659.259 -395.827 582.521 -314.641 c 0
 511.99 -240.019 536.527 -104.708 617.788 -6.07479 c 1
 481.224 10.4319 351.367 76.6038 264.834 176.449 c 0
 53.5391 420.251 79.834 1106.45 94.834 1400.45 c 0
EndSplineSet
EndChar

StartChar: uogonek
Encoding: 371 371 305
Width: 1073
VWidth: 0
Flags: W
VStem: 80.2285 192<389.017 957.233> 104.229 180<226.323 810.357> 779.229 184<540.691 962.312>
LayerCount: 2
Fore
SplineSet
80.2285 917 m 0xa0
 72.2285 1045 277.229 1001 272.229 919 c 0xa0
 268.229 848 273.694 504.965 284.229 348 c 0
 294.229 199 396.265 168.063 483.229 182 c 0
 639.229 207 783.229 505 779.229 923 c 0
 778.004 1051 968.229 1006 963.229 924 c 0
 955.229 782 977.229 226 993.229 83 c 0
 1005.23 -25 807.229 -64 805.229 79 c 0
 804.229 142 803.229 198 799.229 346 c 1
 758.843 175.804 634.319 18.5525 490.558 -4.84355 c 1
 491.321 -10.3481 490.211 -16.2273 486.76 -21.377 c 0
 425.14 -113.303 420.7 -159.9 447.559 -185.081 c 0
 486.415 -221.51 592.325 -211.218 665.465 -147.699 c 0
 691.233 -125.322 721.28 -133.997 738.079 -155.408 c 0
 765.104 -189.85 767.84 -258.751 712.52 -301.856 c 0
 611.882 -380.273 440.137 -391.516 363.399 -310.328 c 0
 294.295 -237.217 316.451 -105.845 393.806 -7.7913 c 1
 199.717 6.91162 115.762 148.381 104.229 293 c 0x60
 92.0439 445.779 86.2285 822 80.2285 917 c 0xa0
EndSplineSet
EndChar

StartChar: gcommaaccent
Encoding: 291 291 314
Width: 936
VWidth: 0
Flags: W
VStem: 419.07 182.93<1092.26 1507.64>
LayerCount: 2
Fore
SplineSet
602 1134 m 0
 613.188 1049.9 433.06 1042.55 419.07 1113.01 c 0
 389.509 1261.9 433.648 1486.61 495.128 1569 c 0
 551.85 1645.02 687.781 1566.96 640.781 1497.89 c 0
 564.861 1386.31 584.526 1265.34 602 1134 c 0
EndSplineSet
Refer: 5 103 N 1 0 0 1 0 0 2
EndChar

StartChar: Hbar
Encoding: 294 294 315
Width: 1415
VWidth: 0
Flags: W
HStem: 695.142 199.263<303.722 838.613> 725.637 182.095<593.109 1100.85> 1126.8 152.417<-2.79114 103.59 295.414 1092.16 1284.04 1481.99>
VStem: 100.099 197.051<895.072 1115.46 1274.42 1411.61> 125.581 201.013<26.4102 597.257> 1104.56 179.476<907.731 1126.11 1279.22 1436.7> 1114.39 201.011<53.8062 603.368>
LayerCount: 2
Fore
SplineSet
1415 1126 m 0xb0
 1388.64 1126.59 1343.06 1126.83 1284.04 1126.8 c 1xb4
 1287.85 772.193 1305.9 174.749 1315.4 67.3242 c 0
 1324.94 -40.5518 1113.17 -76.2109 1114.39 66.6826 c 0xa2
 1115.03 141.065 1110.31 433.274 1104.56 725.637 c 1x64
 911.755 719.035 469.274 700.673 303.722 695.142 c 1
 310.842 415.749 320.486 144.156 326.594 75.0938 c 0
 336.134 -32.7822 124.363 -68.4414 125.581 74.4521 c 0xac
 126.507 183.019 116.04 755.628 107.585 1115.46 c 1
 75.4614 1114.9 50.9593 1114.41 36 1114 c 0
 -106.845 1110.09 -74.0361 1284.51 34 1277 c 0
 48.381 1276 72.2071 1275.14 103.59 1274.42 c 1
 102.265 1322.69 101.076 1360.57 100.099 1384.2 c 0
 94.8066 1512.16 303.671 1464.74 297.149 1382.77 c 0
 295.521 1362.31 294.708 1323.65 294.546 1272.03 c 1
 523.211 1270.59 848.855 1271.84 1092.16 1275.41 c 1
 1090.93 1319.51 1089.83 1354.25 1088.91 1376.43 c 0
 1083.62 1504.39 1292.48 1456.97 1285.96 1375 c 0
 1284.49 1356.57 1283.69 1323.37 1283.42 1279.22 c 1
 1344.08 1280.9 1388.96 1282.83 1411 1285 c 0
 1492.84 1293.07 1543.04 1123.12 1415 1126 c 0xb0
1095.96 1126.11 m 1
 850.217 1124.67 524.108 1121.24 295.414 1118.22 c 1
 296.21 1050.18 297.498 973.954 299.126 894.404 c 1xa0
 461.418 889.288 903.525 899.777 1100.85 907.731 c 1x60
 1099.2 985.47 1097.54 1059.77 1095.96 1126.11 c 1
EndSplineSet
EndChar

StartChar: hbar
Encoding: 295 295 316
Width: 1062
VWidth: 0
Flags: W
HStem: 1119.04 149.025<-18.1742 81.6287 263.864 578.681>
VStem: 80.0039 183.134<763.888 1115.29 1274.01 1419.72> 782.912 194.603<20.4965 578.24>
LayerCount: 2
Fore
SplineSet
510 1118 m 0
 422.089 1119.98 341.007 1120 263.864 1119.04 c 1
 265.805 1008.23 269.131 906.549 270.596 763.888 c 1
 381.049 972 601.266 1038 793.062 958.992 c 0
 1011.15 869.148 984.554 449.081 977.515 56.6348 c 0
 975.902 -33.3506 779.824 -41.3584 782.912 42.6094 c 0
 796.607 415.265 798.491 547.124 768.049 668 c 0
 723.988 842.949 545.976 837.29 415.07 680.88 c 0
 274.256 512.629 284.253 319.321 280.574 130.096 c 0
 279.622 81.2305 303.049 0 209.185 -12.2832 c 0
 139.919 -21.3477 94.2393 29.2539 94.0312 83.8564 c 0
 92.4306 503.393 88.9082 728.955 83.7231 1115.29 c 1
 67.7478 1114.87 51.8503 1114.43 36 1114 c 0
 -106.845 1110.09 -74.0361 1284.51 34 1277 c 0
 49.4293 1275.93 65.3408 1274.93 81.6287 1274.01 c 1
 81.1014 1314.78 80.5597 1357.37 80.0039 1402.09 c 0
 79.0332 1480.14 263.955 1466.02 263.138 1399.96 c 0
 262.542 1351.89 262.327 1308.45 262.389 1268.06 c 1
 347.431 1267.34 432.595 1269.76 506 1277 c 0
 587.836 1285.07 638.035 1115.12 510 1118 c 0
EndSplineSet
EndChar

StartChar: kgreenlandic
Encoding: 312 312 317
Width: 1006
VWidth: 0
Flags: W
HStem: -3 201<697.897 955.602> 820 172<772.113 897.893>
VStem: 129.378 198.6<31.1317 328.355> 129.378 191.729<-3.86449 332.553 718.392 967.565>
LayerCount: 2
Fore
SplineSet
124 926 m 0xe0
 118.756 1053.95 320.398 1018.1 316 936 c 0
 313 880 306 780 307.604 718.392 c 1
 448.512 853.301 717.447 958 835 992 c 0
 922.79 1017.39 990.015 852.672 892 820 c 0
 748 772 525.824 683 402.824 560 c 0
 394.51 551.686 390.279 537.77 396.824 528 c 0
 534.824 322 767.378 134 973.378 198 c 0
 1056.52 223.83 1062.33 -36.8037 841.824 -3 c 0
 685.271 21 486.966 96.7646 321.107 332.553 c 1xd0
 322.824 243 331.56 152.884 327.978 71.9043 c 0
 323.191 -36.2861 126.932 -66.8779 129.378 76 c 0
 136.824 511 134 682 124 926 c 0xe0
EndSplineSet
EndChar

StartChar: figuredash
Encoding: 8210 8210 320
Width: 1040
VWidth: 0
Flags: W
HStem: 447.59 174<66.258 968.909>
LayerCount: 2
Fore
SplineSet
937.426 447.59 m 0
 759.426 451.59 266.433 451.189 120.433 447.189 c 0
 -22.4131 443.277 10.3955 632.694 118.433 625.189 c 0
 262.433 615.189 791.426 607.59 933.426 621.59 c 0
 1015.26 629.656 1065.46 444.713 937.426 447.59 c 0
EndSplineSet
EndChar

StartChar: endash
Encoding: 8211 8211 321
Width: 1040
VWidth: 0
Flags: W
HStem: 447.59 174<66.258 968.909>
LayerCount: 2
Fore
SplineSet
937.426 447.59 m 0
 759.426 451.59 266.433 451.189 120.433 447.189 c 0
 -22.4131 443.277 10.3955 632.694 118.433 625.189 c 0
 262.433 615.189 791.426 607.59 933.426 621.59 c 0
 1015.26 629.656 1065.46 444.713 937.426 447.59 c 0
EndSplineSet
EndChar

StartChar: emdash
Encoding: 8212 8212 322
Width: 2178
VWidth: 0
Flags: W
HStem: 447.59 174<66.2584 2106.91>
LayerCount: 2
Fore
SplineSet
2075.43 447.59 m 0
 1897.43 451.59 266.433 451.189 120.433 447.189 c 0
 -22.4121 443.277 10.3965 632.694 118.433 625.189 c 0
 262.433 615.189 1929.43 607.59 2071.43 621.59 c 0
 2153.26 629.656 2203.46 444.713 2075.43 447.59 c 0
EndSplineSet
EndChar

StartChar: afii00208
Encoding: 8213 8213 323
Width: 2178
VWidth: 0
Flags: W
HStem: 447.59 174<66.2584 2106.91>
LayerCount: 2
Fore
SplineSet
2075.43 447.59 m 0
 1897.43 451.59 266.433 451.189 120.433 447.189 c 0
 -22.4121 443.277 10.3965 632.694 118.433 625.189 c 0
 262.433 615.189 1929.43 607.59 2071.43 621.59 c 0
 2153.26 629.656 2203.46 444.713 2075.43 447.59 c 0
EndSplineSet
EndChar

StartChar: Lslash
Encoding: 321 321 324
Width: 1080
VWidth: 0
Flags: W
HStem: 32 189<732.352 1044.52>
VStem: 113.928 184.306<174.495 633.343 722.054 740.77 820.602 1426.54>
LayerCount: 2
Fore
SplineSet
106 1395 m 0
 105 1523 309 1473 301 1391 c 0
 295.85 1337.63 296.399 1083.06 298.234 820.602 c 1
 326.894 835.148 356.131 851.055 386.886 869.032 c 0
 457.88 910.528 547.997 829.84 430.453 779 c 0
 378.172 756.387 336.192 737.831 298.984 720.936 c 1
 301.094 457.114 303.945 210.19 303 179 c 1
 501 152 832 173 1009 221 c 0
 1106 247 1101 52 1021 32 c 0
 814 -19 463 -12 301 -12 c 0
 192 -12 115 4 118 121 c 0
 119.733 184.247 117.9 397.247 115.184 633.343 c 1
 101.918 626.814 88.0265 619.964 73.2695 612.688 c 0
 -54.8965 549.495 -71.4541 668.904 29.8496 707.189 c 0
 59.3976 718.357 87.2121 728.939 113.928 739.412 c 1
 110.542 1018.05 106.503 1302.52 106 1395 c 0
EndSplineSet
EndChar

StartChar: lslash
Encoding: 322 322 325
Width: 426
VWidth: 0
Flags: W
VStem: 100.099 197.051<847.474 1411.61> 117.573 185.353<208.402 638.944 727.391 746.339 826.417 1262.1> 125.581 201.013<44.1802 604.974>
LayerCount: 2
Fore
SplineSet
100.099 1384.2 m 0x80
 94.8066 1512.16 303.671 1464.74 297.149 1382.77 c 0x80
 292.12 1319.57 294.864 1082.72 300.581 826.417 c 1
 325.615 839.37 351.178 853.421 377.886 869.032 c 0
 448.88 910.528 538.997 829.84 421.453 779 c 0
 375.143 758.969 336.915 742.122 302.926 726.793 c 1x40
 310.109 436.534 320.256 146.763 326.594 75.0938 c 0
 336.134 -32.7822 124.363 -68.4414 125.581 74.4521 c 0x20
 126.147 140.801 122.458 380.458 117.573 638.944 c 1x40
 100.901 630.751 83.3055 622.073 64.2695 612.688 c 0
 -63.8965 549.495 -80.4541 668.904 20.8496 707.189 c 0
 54.3352 719.845 85.5944 731.749 115.551 743.594 c 1
 110.055 1021.85 103.665 1297.96 100.099 1384.2 c 0x80
EndSplineSet
EndChar

StartChar: Eng
Encoding: 330 330 327
Width: 1200
VWidth: 0
Flags: W
HStem: -340 164<642.967 833.133>
VStem: 104.116 186.543<3.88698 655.008 1227.76 1410.64> 860 204<556.076 1175.42> 880.867 189.443<-129.875 556.076>
LayerCount: 2
Fore
SplineSet
880.867 44.6094 m 0xd0
 886.617 399.861 877.988 961.654 860 1085 c 0
 832 1277 554.905 1281.41 424 1125 c 0
 283.186 956.749 294.338 320.321 290.659 131.096 c 0
 289.709 82.2299 313.134 1 219.27 -11.2832 c 0
 150.004 -20.3474 104.958 30.2593 104.116 84.8564 c 0
 100.134 343 96.1338 1266.87 96 1401 c 0
 95.9219 1479.06 279.134 1464.93 279.134 1398.87 c 0
 279.134 1328.71 280 1294 280.681 1227.76 c 1
 394.681 1410.76 686.92 1478.31 876 1393 c 0
 960.121 1355.05 1064 1285 1064 1053 c 0xe0
 1064 852.527 1071.05 283.873 1070.31 61 c 0
 1069.87 -71 1061.87 -203 962.869 -278 c 0
 880.457 -340.434 742.869 -355 670.869 -340 c 0
 584.891 -322.088 592.869 -176 661.869 -176 c 0
 722.615 -176 762.994 -174.531 814.869 -146 c 0
 874.869 -113 879.426 -44.3906 880.867 44.6094 c 0xd0
EndSplineSet
EndChar

StartChar: eng
Encoding: 331 331 328
Width: 1086
VWidth: 0
Flags: W
HStem: -341 164<561.098 751.263>
VStem: 104.116 186.543<3.88698 526.169 764.888 947.768> 798.997 189.443<-130.875 570.245>
LayerCount: 2
Fore
SplineSet
798.997 43.6094 m 0
 804.747 398.861 808.576 548.124 778.134 669 c 0
 734.073 843.949 556.06 838.291 425.155 681.88 c 0
 284.341 513.629 294.338 320.321 290.659 131.096 c 0
 289.709 82.2299 313.134 1 219.27 -11.2832 c 0
 150.004 -20.3474 104.958 30.2593 104.116 84.8564 c 0
 100.134 343 96.1338 804 96 938.13 c 0
 95.9221 1016.19 279.134 1002.06 279.134 936 c 0
 279.134 865.843 280 832 280.681 764.888 c 1
 394.681 947.888 615.36 1039.31 804.44 954 c 0
 1019.44 857 989.662 426.123 988.44 60 c 0
 988 -72 980 -204 881 -279 c 0
 798.587 -341.434 661 -356 589 -341 c 0
 503.021 -323.088 511 -177 580 -177 c 0
 640.745 -177 681.125 -175.531 733 -147 c 0
 793 -114 797.557 -45.3906 798.997 43.6094 c 0
EndSplineSet
EndChar

StartChar: Tbar
Encoding: 358 358 329
Width: 1220
VWidth: 0
Flags: W
HStem: 455.415 162.187<323.258 500.459 689.342 916.42> 1267.3 172<31.3685 105.501 810.368 1193.25>
VStem: 500.459 185.516<617.603 1254.33> 504.23 198<58.3588 455.415>
LayerCount: 2
Fore
SplineSet
849.432 456.2 m 0xe0
 793.386 457.46 740.314 457.926 689.342 457.849 c 1
 693.591 278.225 698.631 127.137 702.23 75.2988 c 0
 709.734 -32.7373 500.319 -65.5459 504.23 77.2988 c 0xd0
 505.679 130.156 504.592 278.441 502.514 455.415 c 1
 460.237 454.464 418.755 453.332 377.433 452.2 c 0
 234.588 448.29 267.396 631.71 375.433 624.2 c 0
 414.689 621.474 456.918 619.194 500.459 617.603 c 1
 497.137 864.708 492.89 1127.39 491.218 1254.33 c 1
 338.987 1254.67 230.757 1259.6 38.2314 1267.3 c 0
 -36.7686 1270.3 -54.8994 1442.71 38.2314 1439.3 c 0
 530.23 1421.3 722.582 1433.85 1176.23 1451.3 c 0
 1254.23 1454.3 1269.6 1290.9 1203.23 1285.3 c 0
 989.1 1267.22 853.326 1258.05 684.429 1255.25 c 1
 678.827 1139.83 681.126 870.096 685.975 615.629 c 1
 741.898 616.655 796.19 619.345 845.432 624.2 c 0
 927.268 632.27 977.467 453.32 849.432 456.2 c 0xe0
EndSplineSet
EndChar

StartChar: tbar
Encoding: 359 359 330
Width: 873
VWidth: 0
Flags: W
HStem: 452.864 161.652<153.546 339.657 532.322 746.707> 772 199<37.4526 331.987>
VStem: 342.766 189.556<-1.87811 452.864 614.516 784.635>
LayerCount: 2
Fore
SplineSet
321.288 1363 m 0
 315.996 1490.96 524.859 1443.54 518.337 1361.57 c 0
 514.411 1312.23 515.336 1160.12 518.75 976.477 c 1
 647.167 981.454 762.715 987.538 807.287 991 c 0
 889.271 997.368 937.348 811.438 809.287 810 c 0
 770.318 809.562 653.703 802.989 522.652 795.402 c 1
 524.118 734.794 525.749 673.325 527.477 613.086 c 1
 579.436 614.254 629.776 616.899 675.719 621.429 c 0
 757.555 629.499 807.754 450.549 679.719 453.429 c 0
 628.309 454.584 579.401 455.072 532.322 455.085 c 1
 538.19 275.939 544.404 128.261 548.732 79.3242 c 0
 558.271 -28.5518 346.501 -64.2109 347.719 78.6826 c 0
 348.147 128.864 346.029 275.182 342.766 452.864 c 1
 297.033 451.871 252.283 450.65 207.72 449.429 c 0
 64.875 445.52 97.6836 628.939 205.72 621.429 c 0
 247.649 618.517 292.97 616.114 339.657 614.516 c 1
 338.533 670.689 337.344 727.949 336.128 784.635 c 1
 229.294 778.574 132.521 773.431 80.2881 772 c 0
 -62.5566 768.088 -29.748 978.505 78.2881 971 c 0
 130.163 967.397 225.903 967.948 331.987 970.501 c 1
 327.826 1150.2 323.801 1302.24 321.288 1363 c 0
EndSplineSet
EndChar

StartChar: longs
Encoding: 383 383 331
Width: 735
VWidth: 0
Flags: W
HStem: -504 193<-58.1052 174.833> 1268 179<479.566 696.281>
VStem: 212 176<494.807 1174.77> 254 176.271<-225.097 547.068>
LayerCount: 2
Fore
SplineSet
-7 -311 m 0xd0
 236 -334 261.663 -165.418 254 38 c 0xd0
 243 330 228.729 660 212 1003 c 0
 203.046 1186.59 289.729 1483 658.457 1447 c 0
 766.051 1436.5 742.812 1251.73 658.729 1268 c 0
 452 1308 381.743 1112.82 388 1002 c 0xe0
 405.729 688 416 360 430.271 52 c 0
 440.356 -165.629 437 -525 -25 -504 c 0
 -134.272 -499.033 -114.935 -300.784 -7 -311 c 0xd0
EndSplineSet
EndChar

StartChar: uni0250
Encoding: 592 592 332
Width: 976
VWidth: 0
Flags: W
VStem: 88.2422 198<198.33 353.771 528.57 749.119>
LayerCount: 2
Fore
SplineSet
290.924 537.581 m 1
 316.242 524 446.41 517.229 520.242 537 c 0
 645.698 570.596 769.018 627.259 746.242 733 c 0
 718.242 863 458.332 868.373 284.242 719 c 1
 290.028 603.745 292.396 640.229 290.924 537.581 c 1
127.074 984 m 0
 194.916 992.273 251.04 948.979 260.242 887 c 1
 527.096 1075.64 918.42 1012.08 946.242 779 c 0
 975.01 538 774.242 409 554.242 367 c 0
 453.612 347.789 320.242 347 286.242 353.771 c 1
 285.801 333.572 287.077 314.152 286.242 293 c 0
 280.242 141 524.242 87 744.242 295 c 0
 808.088 355.362 947.44 241.003 842.242 133 c 0
 692.242 -21 375.074 -60 215.074 20 c 0
 137.911 58.582 83.959 201.088 88.2422 283 c 0
 104.242 589 100.014 612.515 60.2422 875 c 0
 50.2412 941 82.126 978.519 127.074 984 c 0
EndSplineSet
EndChar

StartChar: uni0251
Encoding: 593 593 333
Width: 1039
VWidth: 0
Flags: W
VStem: 735.815 178.185<386.188 767.573>
LayerCount: 2
Fore
SplineSet
722.175 754.741 m 1
 649.531 790.687 529.192 814.487 443 786 c 0
 258.735 725.098 185.236 529 242.236 349 c 0
 296.893 176.398 496.995 94.098 735.815 220.625 c 1
 733.132 376.918 727.308 595.351 722.175 754.741 c 1
738.041 48.0779 m 1
 489.9 -81.7714 141.346 -17.6078 44.2363 298 c 0
 -35.3936 556.797 102.007 900.309 417.09 970.621 c 0
 534.942 996.92 644.741 971.854 720.417 931.84 c 1
 747.534 1020.57 919.934 974.587 914 900 c 0
 902.681 757.76 925.534 208.427 938.249 64.6416 c 0
 947.417 -39.0239 752.213 -76 738.041 48.0779 c 1
EndSplineSet
EndChar

StartChar: uni0252
Encoding: 594 594 334
Width: 1139
VWidth: 0
Flags: W
VStem: 102 194.021<7.17676 39 776 965.873> 106.722 203.922<190.865 539.516>
LayerCount: 2
Fore
SplineSet
102 952 m 0x80
 100.492 1030.04 289.13 1012 292 946 c 0
 295 877 294 842 296.021 776 c 1x80
 413.644 956 698.606 1062.68 913.644 915 c 0
 1162.64 744 1164.64 332 1006.64 126 c 0
 807.427 -133.739 378.644 -8 298.721 39 c 1
 300.644 -42 105.644 -38 106.722 30 c 0x40
 114.459 518.003 106 745 102 952 c 0x80
310.644 210 m 1x40
 391.644 162 699.994 78.1807 841.644 237 c 0
 940.644 348 931.644 624.229 844.644 717 c 0
 751.773 816.031 586.222 835.46 450.644 702 c 0
 322.644 576 308.566 330 310.644 210 c 1x40
EndSplineSet
EndChar

StartChar: uni0254
Encoding: 596 596 335
Width: 893
VWidth: 0
Flags: W
HStem: 18 198<90.8643 585.2>
LayerCount: 2
Fore
SplineSet
149 718 m 0
 77.5672 667.306 -8.34854 824.488 89.667 895 c 0
 155 942 373.667 1015 521.578 971.621 c 0
 831.151 880.83 933.05 531.255 834.641 279 c 0
 710.73 -38.6211 371 -44 116.667 18 c 0
 26.8786 39.8882 39.2176 250.809 149 216 c 0
 395 138 579.249 185.227 640.641 337 c 0
 712.641 515 660.152 726.865 459 788 c 0
 357 819 211 762 149 718 c 0
EndSplineSet
EndChar

StartChar: uni0259
Encoding: 601 601 336
Width: 960
VWidth: 0
Flags: W
HStem: 456.11 170.963<247.002 727.092>
LayerCount: 2
Fore
SplineSet
647.803 741.491 m 0
 521.054 860.968 319.036 801.229 209 728.843 c 0
 140.311 683.655 67.2412 831.446 134.187 889.812 c 0
 239 981.191 558.723 1037.7 734.892 916.453 c 0
 835.134 847.463 897.019 739.753 920.561 621.324 c 1
 933.874 620.855 947.334 620.374 960.939 619.881 c 0
 1049.04 616.69 1019.5 456.087 928.269 449.377 c 1
 916.005 330.863 867.748 214.696 783.511 126.347 c 0
 541 -128 95.2227 -0.140625 44.0312 285.151 c 0
 -11.973 597.265 221.979 637.922 727.092 627.073 c 1
 710.041 668.386 683.967 707.402 647.803 741.491 c 0
749.734 456.11 m 1
 282.244 474.725 195.226 468.589 233 292 c 0
 251.1 207.387 452.011 133.005 573.027 192.503 c 0
 671.2 240.771 736.453 344.316 749.734 456.11 c 1
EndSplineSet
EndChar

StartChar: uni0258
Encoding: 600 600 337
Width: 960
VWidth: 0
Flags: W
HStem: 447.412 172.469<243.94 722.087 926.997 973.271>
VStem: 748.953 178.043<308.082 440.115>
LayerCount: 2
Fore
SplineSet
926.997 447.412 m 1
 921.31 295.181 855.951 148.846 730.892 62.7754 c 0
 554.723 -58.4688 191.813 0.619141 87 92 c 0
 20.0547 150.365 93.124 298.156 161.813 252.969 c 0
 271.85 180.582 506.229 130.905 643.803 237.738 c 0
 709.738 288.941 742.581 362.574 748.953 440.115 c 1
 193.772 420.377 4.18153 451.28 40.0312 694.078 c 0
 79 958 537 1107.23 779.511 852.883 c 0
 842.375 786.95 885.201 705.525 907.983 619.193 c 1
 913.631 619.421 919.324 619.65 925.061 619.881 c 0
 1023.47 623.838 1057.99 453.404 967 449.229 c 0
 953.499 448.609 940.165 448.003 926.997 447.412 c 1
722.087 611.698 m 1
 691.749 687.471 638.275 752.68 569.027 786.727 c 0
 448.011 846.225 248.961 771.422 229 687.229 c 0
 207.923 598.328 285.614 594.527 722.087 611.698 c 1
EndSplineSet
EndChar

StartChar: uni025B
Encoding: 603 603 338
Width: 856
VWidth: 0
Flags: W
LayerCount: 2
Fore
SplineSet
102 669 m 0
 68 756 102 877 220 939 c 0
 324 993 540.223 1010 704.223 936 c 0
 806.223 890 751.149 717.94 668 761 c 0
 556 819 416.034 834.698 336 801 c 0
 298 785 283.679 726.762 306 697 c 0
 348 641 444 615 548 624.229 c 0
 650.19 633.297 652 451.229 550 449.229 c 0
 411 446.229 247.849 406.271 224 291 c 0
 212 233 264 179 332 165 c 0
 477.653 135.013 616 167 722 213 c 0
 802 247 840.223 82 754.223 41 c 0
 606.223 -30 340.223 -29 228.223 21 c 0
 90.2227 82 11 218 44 339 c 0
 72 442 186 507 278.223 526 c 1
 200.223 543 126 608 102 669 c 0
EndSplineSet
EndChar

StartChar: uni025C
Encoding: 604 604 339
Width: 845
VWidth: 0
Flags: W
LayerCount: 2
Fore
SplineSet
730 692 m 0
 710.771 629.033 648.676 566 571.775 542.5 c 1
 644.676 528 748 472.8 784 372 c 0
 826.295 253.582 765.455 111.8 632.975 40.4004 c 0
 524.781 -17.9111 260.054 -39.5957 107.375 19.6064 c 0
 18.6758 54 56 218 138 190 c 0
 247.555 152.591 383.46 135.538 524 184 c 0
 582 204 644 260 624 312 c 0
 583.762 416.618 463.024 457.406 324 449.229 c 0
 222 443.229 213.511 624.228 316 624.229 c 0
 426 624.229 505.947 652.72 546 708 c 0
 564 732.843 546 788 506 806 c 0
 427.105 841.503 280 812 172 752 c 0
 90.5013 706.723 22.6758 864.843 121.056 918.7 c 0
 278.385 1004.83 484.407 1000.52 591.936 954.4 c 0
 714.334 901.9 757.359 781.6 730 692 c 0
EndSplineSet
EndChar

StartChar: uni0268
Encoding: 616 616 341
Width: 685
VWidth: 0
Flags: W
HStem: 440.728 161.414<61.0539 251.496 442.155 654.215>
VStem: 254.565 187.59<-6.10858 440.728 602.141 958.925>
LayerCount: 2
Fore
SplineSet
242.694 925 m 0
 237.402 1052.96 446.268 1005.54 439.746 923.569 c 0
 435.176 866.132 435.416 740.173 438.165 600.931 c 1
 488.998 602.134 538.222 604.763 583.228 609.2 c 0
 665.063 617.27 715.262 438.32 587.228 441.2 c 0
 536.663 442.336 488.52 442.827 442.155 442.856 c 1
 446.9 286.605 453.658 139.217 459.329 75.0938 c 0
 468.869 -32.7822 257.099 -68.4414 258.316 74.4521 c 0
 258.882 140.799 257.228 285.68 254.565 440.728 c 1
 207.339 439.718 161.185 438.459 115.229 437.2 c 0
 -27.6172 433.29 5.19141 616.71 113.229 609.2 c 0
 156.453 606.198 203.281 603.737 251.496 602.141 c 1
 248.743 733.905 245.556 855.821 242.694 925 c 0
209.694 1335 m 0
 220.694 1414 342.694 1461 401.694 1407 c 0
 465.694 1348 453.694 1216 371.694 1185 c 0
 290.694 1155 198.695 1250 209.694 1335 c 0
EndSplineSet
EndChar

StartChar: uni026A
Encoding: 618 618 342
Width: 733
VWidth: 0
Flags: W
HStem: -2.40039 167<109.264 271.192 468.427 662.972> 816.761 163.239<96.2586 261.735 454.511 625.157>
VStem: 271.192 197.235<158.115 816.761>
LayerCount: 2
Fore
SplineSet
600.432 0 m 0
 422.433 4 309.438 1.59961 163.438 -2.40039 c 0
 20.5928 -6.3125 53.4014 172.105 161.438 164.6 c 0
 197.769 162.077 234.418 159.834 271.192 158.115 c 1
 271.227 320.372 267.391 639.476 261.735 816.761 c 1
 225.739 816.014 189.253 815.064 150.433 814 c 0
 7.58789 810.088 40.3965 987.506 148.433 980 c 0
 292.433 970 441.428 964.4 583.428 978.4 c 0
 665.262 986.469 715.463 813.523 587.428 816.4 c 0
 538.962 817.49 495.316 818.104 454.511 818.341 c 1
 448.807 657.922 458.11 318.074 468.427 155.316 c 1
 511.502 156.415 554.275 158.844 596.432 163 c 0
 678.266 171.068 728.467 -2.87695 600.432 0 c 0
EndSplineSet
EndChar

StartChar: uni0272
Encoding: 626 626 343
Width: 1090
VWidth: 0
Flags: W
HStem: -270 176<-53.3132 89.7359>
VStem: 92.8662 184.681<-84.7432 489.129 761.888 944.768> 789.863 194.603<24.7525 576.24>
LayerCount: 2
Fore
SplineSet
789.863 40.6094 m 0
 803.56 413.265 805.442 545.124 775 666 c 0
 730.939 840.949 552.928 835.29 422.021 678.88 c 0
 281.207 510.629 291.212 317.321 287.525 128.096 c 0
 286.573 79.2305 304 -174 206 -234 c 0
 142.712 -272.748 44 -276 -18 -270 c 0
 -115.727 -260.543 -113.312 -78.8684 -20 -94 c 0
 128 -118 101.824 27.2598 100.982 81.8564 c 0
 97.0023 340 93 801 92.8662 935.13 c 0
 92.7884 1013.18 277.12 999.06 276 933 c 0
 275 874 277 829 277.547 761.888 c 1
 388 970 608.216 1036 800.013 956.992 c 0
 1018.1 867.148 991.505 447.081 984.466 54.6348 c 0
 982.854 -35.3506 786.775 -43.3584 789.863 40.6094 c 0
EndSplineSet
EndChar

StartChar: uni0275
Encoding: 629 629 344
Width: 1032
VWidth: 0
Flags: W
HStem: 449.229 172.203<251.58 781.963>
LayerCount: 2
Fore
SplineSet
476.526 988 m 0
 502.719 990.381 523.656 981.899 538.072 968.562 c 1
 781.312 944.559 952.898 798.738 993.526 592 c 0
 1060.93 249 874.526 -8 564.526 -18 c 0
 292.322 -26.7812 48.5264 148 26.5264 450 c 0
 4.97168 745.891 214.552 964.184 476.526 988 c 0
810 449.229 m 0
 632.001 453.229 404 453.229 258 449.229 c 0
 244.655 448.863 232.844 450.133 222.483 452.729 c 1
 249.046 284.35 383.45 147.03 554.932 157 c 0
 697.307 165.278 806.741 315.738 817.571 449.275 c 1
 815.12 449.187 812.596 449.17 810 449.229 c 0
781.963 615.15 m 1
 737.621 720.42 663.229 790.173 490.317 794.816 c 0
 489.159 794.848 488.025 795.149 486.932 795 c 0
 390.957 781.853 298.872 710.9 251.58 621.431 c 1
 253.039 621.399 254.512 621.332 256 621.229 c 0
 392.223 611.769 635.834 604.099 781.963 615.15 c 1
EndSplineSet
EndChar

StartChar: uni0279
Encoding: 633 633 345
Width: 821
VWidth: 0
Flags: W
HStem: 0 200.632<15.1223 296.334>
VStem: 500.264 192.211<465.668 970.645>
LayerCount: 2
Fore
SplineSet
34.418 200.632 m 0
 155.456 195.449 314.605 192.66 408.502 359.043 c 0
 492 507 504 663 500.264 838.674 c 0
 499.224 887.537 476.42 963.516 563.457 979.173 c 0
 662.911 997.062 690.603 938.877 692.475 884.306 c 0
 702.696 586.277 699.219 402.009 739.915 64.8916 c 0
 749.271 -12.6025 580.037 -39.2871 562.362 39.8701 c 0
 550.434 93.2998 535.702 181.898 530.149 267.556 c 1
 458 59 265.345 6.02344 58 0 c 0
 -48.0498 -3.08008 -61.7109 204.748 34.418 200.632 c 0
EndSplineSet
EndChar

StartChar: uni027E
Encoding: 638 638 346
Width: 851
VWidth: 0
Flags: W
HStem: -4 177<29.8258 157.571 344.69 595.923> 11 159<347.725 693.602>
VStem: 137 190<173.788 724.297>
LayerCount: 2
Fore
SplineSet
137 469 m 0xa0
 128.34 652.601 162.204 872.173 340 952 c 0
 487 1018 718 972 802 934 c 0
 908.597 885.778 835 705 736 753 c 0
 665.234 787.311 522 831 447 795 c 0
 331.938 739.77 324.866 589.977 327 479 c 0
 328.653 393.052 341.233 267.493 348.373 164.971 c 1
 471.876 163.919 595.287 165.595 652 170 c 0
 733.984 176.369 782.06 12.4375 654 11 c 0x60
 565 10 230 0 84 -4 c 0
 -58.8447 -7.91211 -26.0361 180.506 82 173 c 0
 103.609 171.499 129.249 170.201 157.571 169.106 c 1
 150.755 268.737 140.999 384.221 137 469 c 0xa0
EndSplineSet
EndChar

StartChar: uni0280
Encoding: 640 640 347
Width: 938
VWidth: 0
Flags: W
VStem: 121.464 178.649<-0.66835 427.934 621.182 788.99>
LayerCount: 2
Fore
SplineSet
111.569 788.99 m 1
 107.377 788 103.188 787 99.001 786 c 0
 21.9863 767.51 0.603516 930.85 63.001 943 c 0
 81.7734 946.65 101.047 950.311 120.758 953.871 c 1
 139.228 985.74 232.748 985.83 262.282 968.09 c 1
 484.84 1000.65 742.274 987.481 839 854 c 0
 889 785 905.004 652 852 583 c 0
 780.309 489.673 674 449.229 502.049 447.279 c 1
 615 338 767.004 223 880 122 c 0
 925.288 81.5205 822.917 -79.917 717 26 c 0
 649 94 429 294 300.113 427.934 c 1
 307.309 187.699 309.372 140.928 313.464 82 c 0
 320.968 -26.0361 117.552 -58.8447 121.464 84 c 0
 125.105 216.918 115 617 111.569 788.99 c 1
297.97 804.48 m 1
 297 745 295 721 298 624 c 1
 538 607 633 621.229 691 680 c 0
 708.881 698.118 713 732.843 693 755 c 0
 646.48 806.536 489.747 837.43 297.97 804.48 c 1
EndSplineSet
EndChar

StartChar: uni0281
Encoding: 641 641 348
Width: 938
VWidth: 0
Flags: W
VStem: 92 191.621<555.059 938.358> 119.665 177.38<172.483 349.358>
LayerCount: 2
Fore
SplineSet
119.665 172.483 m 1x40
 113.932 344.412 102.715 749.465 92 882 c 0
 80.4854 1024.43 285.36 1002.5 283.621 894.223 c 0x80
 282.673 835.16 283.104 783.346 288.713 543.069 c 1
 410.283 683.677 602.836 869.657 667.118 941.183 c 0
 767.244 1052.59 878.067 896.834 835 854 c 0
 727.543 747.125 598.363 649.646 491.392 534.505 c 1
 663.203 541.717 771.515 506.991 848.074 417.614 c 0
 904.678 351.535 895.78 217.872 849.526 146.307 c 0
 760.047 7.86328 503.679 -18.9971 279.703 1.66406 c 1
 251.155 -17.624 157.763 -22.5146 137.622 8.32617 c 1
 117.749 10.8311 98.3086 13.46 79.3682 16.1055 c 0
 16.4121 24.915 29.0654 189.162 106.955 174.8 c 0
 111.19 174.024 115.426 173.249 119.665 172.483 c 1x40
306.626 166.942 m 1
 499.886 144.253 654.752 183.45 698.461 237.391 c 0
 717.252 260.582 711.289 295.038 692.469 312.178 c 0
 631.422 367.777 535.799 376.926 297.045 347.168 c 1x40
 299.215 250.146 302.49 226.287 306.626 166.942 c 1
EndSplineSet
EndChar

StartChar: uni028A
Encoding: 650 650 350
Width: 1151
VWidth: 0
Flags: W
HStem: 756 216<402.786 486.095 652.895 759.597> 810 162<86.6665 330.508 830.508 1059.21>
LayerCount: 2
Fore
SplineSet
478.508 757 m 0x80
 316.923 678.549 239.713 539.931 270 414 c 0
 308 256 424.071 147.548 654 184 c 0
 818 210 923.492 396 860 592 c 0
 824.938 700.235 732 732.843 636.508 756 c 0
 591.709 766.864 590.508 962.08 688.508 972 c 0x80
 786.508 981.92 966.508 974 1022.51 972 c 0
 1132.51 968.071 1108.51 818 1024.51 812 c 0
 987.49 809.355 912.508 812 830.508 810 c 1
 870.508 806.539 959.181 766.655 1008 668 c 0
 1104 474 1064.51 86 689.508 7 c 0
 422.757 -49.1953 133 95 92 386 c 0
 70.5107 538.521 130 730 330.508 817 c 1
 252.508 813 181.872 811 126.508 811 c 0
 34.5078 811.001 26.5078 972 130.508 972 c 0x40
 156.891 972 409.068 972 452.508 972 c 0
 538.508 972 530 782 478.508 757 c 0x80
EndSplineSet
EndChar

StartChar: uni0289
Encoding: 649 649 352
Width: 1073
VWidth: 0
Flags: W
HStem: 458.834 150.038<-4.17419 90.2575 278.723 711.839 971 1099.68>
VStem: 80.2285 192<621.098 947.707> 95.6806 183.043<233.223 454.208 615.042 974.833> 751.841 213.716<613.41 976.438> 779.229 184<617.677 952.75> 799.229 171.771<81.9484 346>
LayerCount: 2
Fore
SplineSet
80.2285 917 m 0xc0
 72.2285 1045 277.229 1001 272.229 919 c 0
 269.91 877.84 270.772 745.258 273.959 610.503 c 1
 418.25 608.251 600.158 607.461 751.841 608.872 c 1xd0
 770.259 702.412 780.327 808.179 779.229 923 c 0
 778.004 1051 968.229 1006 963.229 924 c 0x88
 960.072 867.979 961.586 747.522 965.557 613.41 c 1x90
 991.235 614.495 1012.14 615.763 1027 617.229 c 0
 1108.84 625.299 1159.04 454.35 1031 457.229 c 0
 1014.74 457.594 994.492 457.892 971 458.13 c 1
 977.378 299.477 985.928 148.248 993.229 83 c 0
 1005.23 -25 807.229 -64 805.229 79 c 0
 804.229 142 803.229 198 799.229 346 c 1
 757.229 169 624.229 6 473.229 -7 c 0
 222.229 -29 117.229 130 104.229 293 c 0
 100.964 333.932 98.1567 390.904 95.6806 454.208 c 1xa4
 77.3814 453.885 61.9725 453.557 50 453.229 c 0
 -92.8447 449.318 -60.0361 624.738 48 617.229 c 0
 59.0297 616.463 73.2803 615.732 90.2575 615.042 c 1
 86.3651 744.337 83.3214 868.03 80.2285 917 c 0xc0
711.839 458.834 m 1
 569.255 458.612 408.97 457.701 278.723 456.485 c 1xa0
 280.348 415.582 282.194 378.32 284.229 348 c 0
 294.229 199 396.265 168.063 483.229 182 c 0
 571.48 196.143 655.89 297.654 711.839 458.834 c 1
EndSplineSet
EndChar

StartChar: theta
Encoding: 952 952 354
Width: 1113
VWidth: 0
Flags: W
HStem: 0 185<434.385 719.763> 708.69 177.245<250.004 750.727> 723.484 171.498<372.667 870.996>
VStem: 884 174.48<403.105 723.484 894.981 1012.36>
LayerCount: 2
Fore
SplineSet
514.937 1279.5 m 1xb0
 506.82 1266.61 494.105 1255.28 476 1247 c 0
 335.547 1182.74 271.731 1032.4 250.004 885.935 c 1xd0
 405.176 880.816 708.63 885.513 870.996 894.981 c 1
 839.223 1104.84 743.206 1259.1 514.937 1279.5 c 1xb0
452.807 1412.59 m 1
 458.154 1435.18 471.079 1451.53 493.297 1451.6 c 0
 921.61 1453 1060.61 1139 1058.48 681.215 c 0
 1056.01 150.906 783.61 0 579.61 0 c 0
 363.61 0 104.61 185 60.3457 625.23 c 0
 30.665 920.416 137.61 1312 400.541 1408.72 c 0
 419.102 1415.55 436.826 1416.27 452.807 1412.59 c 1
242.427 708.69 m 1
 243.09 697.8 243.955 687.217 245 677 c 0
 281 325 398.388 185.466 578 185 c 0
 754.59 184.542 880.686 332.003 884 680 c 0
 884.139 694.617 884.117 709.118 883.917 723.484 c 1xb0
 704.514 723.972 396.929 713.378 242.427 708.69 c 1
EndSplineSet
EndChar

StartChar: dagger
Encoding: 8224 8224 359
Width: 925
VWidth: 0
Flags: W
HStem: 855 112<38.7272 405.424>
VStem: 400.91 105.051<440.697 868.873 968.442 1407.13> 426.393 109.012<11.3889 514.711>
LayerCount: 2
Fore
SplineSet
400.91 1361.2 m 0xc0
 395.618 1489.16 512.482 1441.74 505.961 1359.77 c 0xc0
 501.991 1309.88 502.864 1154.88 506.22 968.442 c 1
 648.319 972.442 781.381 978.224 830 982 c 0
 911.984 988.368 960.06 889.438 832 888 c 0
 789.368 887.521 653.807 880.847 508.08 873.583 c 1
 515.013 545.181 527.888 162.098 535.405 77.0938 c 0
 544.945 -30.7822 425.175 -66.4414 426.393 76.4521 c 0xa0
 427.136 163.611 420.537 540.94 413.531 868.873 c 1
 285.879 862.538 164.033 856.672 103 855 c 0
 -39.8447 851.088 -7.03613 974.505 101 967 c 0
 161.993 962.764 283.623 963.373 411.409 966.089 c 1
 407.374 1146.94 403.435 1300.16 400.91 1361.2 c 0xc0
EndSplineSet
EndChar

StartChar: guilsinglleft
Encoding: 8249 8249 360
Width: 453
VWidth: 0
Flags: W
LayerCount: 2
Fore
SplineSet
295.434 141 m 0
 236.434 213 137.434 335 80.0205 402.298 c 0
 9.53711 484.915 2.46484 495.326 84.0205 596.298 c 0
 152.434 681 222.434 769 314.434 873 c 0
 355.082 918.951 469.832 827.504 412.434 755 c 0
 355.434 683 279.434 587 209.021 500.298 c 1
 266.434 429 350.434 323 405.434 261 c 0
 466.327 192.355 350.804 73.4287 295.434 141 c 0
EndSplineSet
EndChar

StartChar: guilsinglright
Encoding: 8250 8250 361
Width: 453
VWidth: 0
Flags: W
LayerCount: 2
Fore
SplineSet
157.768 141 m 0
 102.396 73.4287 -13.127 192.355 47.7676 261 c 0
 102.768 323 186.768 429 244.181 500.298 c 1
 173.768 587 97.7676 683 40.7676 755 c 0
 -16.6318 827.504 98.1182 918.951 138.768 873 c 0
 230.768 769 300.768 681 369.181 596.298 c 0
 450.734 495.326 443.662 484.915 373.181 402.298 c 0
 315.768 335 216.768 213 157.768 141 c 0
EndSplineSet
EndChar

StartChar: perthousand
Encoding: 8240 8240 362
Width: 1731
VWidth: 0
Flags: W
LayerCount: 2
Fore
SplineSet
883.08 1295.93 m 0
 950.239 1404.98 1098.11 1294.7 1046.87 1230.39 c 0
 957.96 1118.79 340.99 153.32 271.138 27 c 0
 218.734 -67.7715 26.792 -13.0371 107.696 104.754 c 0
 190.389 225.145 789.718 1144.33 883.08 1295.93 c 0
36.3096 1186 m 0
 87.3096 1393 369.31 1420 480.31 1267 c 0
 595.347 1108.44 519.31 877 327.31 844 c 0
 135.788 811.082 -18.8623 962.065 36.3096 1186 c 0
204.138 1206.34 m 0
 116.138 1138.34 152.138 1004.34 242.138 984.343 c 0
 313.747 968.433 389.641 1012.61 400.138 1098.34 c 0
 412.138 1196.34 279.924 1264.9 204.138 1206.34 c 0
821.138 349 m 0
 733.138 281 769.138 147 859.138 127 c 0
 930.747 111.087 1006.64 155.27 1017.14 241 c 0
 1029.14 339 896.924 407.562 821.138 349 c 0
651.31 331 m 0
 702.31 538 984.31 565 1095.31 412 c 0
 1210.35 253.436 1134.31 22 942.31 -11 c 0
 750.788 -43.918 596.138 107.066 651.31 331 c 0
1365.83 353 m 0
 1277.83 285 1313.83 151 1403.83 131 c 0
 1475.44 115.087 1551.33 159.27 1561.83 245 c 0
 1573.83 343 1441.61 411.562 1365.83 353 c 0
1196 335 m 0
 1247 542 1529 569 1640 416 c 0
 1755.04 257.436 1679 26 1487 -7 c 0
 1295.48 -39.918 1140.83 111.066 1196 335 c 0
EndSplineSet
EndChar

StartChar: uni2031
Encoding: 8241 8241 363
Width: 2263
VWidth: 0
Flags: W
LayerCount: 2
Fore
SplineSet
883.08 1295.93 m 0
 950.239 1404.98 1098.11 1294.7 1046.87 1230.39 c 0
 957.96 1118.79 340.99 153.32 271.138 27 c 0
 218.734 -67.7715 26.792 -13.0371 107.696 104.754 c 0
 190.389 225.145 789.718 1144.33 883.08 1295.93 c 0
36.3096 1186 m 0
 87.3096 1393 369.31 1420 480.31 1267 c 0
 595.347 1108.44 519.31 877 327.31 844 c 0
 135.788 811.082 -18.8623 962.065 36.3096 1186 c 0
204.138 1206.34 m 0
 116.138 1138.34 152.138 1004.34 242.138 984.343 c 0
 313.747 968.433 389.641 1012.61 400.138 1098.34 c 0
 412.138 1196.34 279.924 1264.9 204.138 1206.34 c 0
821.138 349 m 0
 733.138 281 769.138 147 859.138 127 c 0
 930.747 111.087 1006.64 155.27 1017.14 241 c 0
 1029.14 339 896.924 407.562 821.138 349 c 0
651.31 331 m 0
 702.31 538 984.31 565 1095.31 412 c 0
 1210.35 253.436 1134.31 22 942.31 -11 c 0
 750.788 -43.918 596.138 107.066 651.31 331 c 0
1365.83 353 m 0
 1277.83 285 1313.83 151 1403.83 131 c 0
 1475.44 115.087 1551.33 159.27 1561.83 245 c 0
 1573.83 343 1441.61 411.562 1365.83 353 c 0
1196 335 m 0
 1247 542 1529 569 1640 416 c 0
 1755.04 257.436 1679 26 1487 -7 c 0
 1295.48 -39.918 1140.83 111.066 1196 335 c 0
1912.83 354 m 0
 1824.83 286 1860.83 152 1950.83 132 c 0
 2022.44 116.087 2098.33 160.27 2108.83 246 c 0
 2120.83 344 1988.61 412.562 1912.83 354 c 0
1743 336 m 0
 1794 543 2076 570 2187 417 c 0
 2302.04 258.436 2226 27 2034 -6 c 0
 1842.48 -38.918 1687.83 112.066 1743 336 c 0
EndSplineSet
EndChar

StartChar: minute
Encoding: 8242 8242 364
Width: 381
VWidth: 0
Flags: W
HStem: 990.893 556.747
VStem: 43.0928 137.912<999.704 1167.94>
LayerCount: 2
Fore
SplineSet
338.927 1456.44 m 0
 265.966 1276.55 232.033 1186.71 181.005 1056.64 c 0
 159.802 1002.11 114.577 978.396 77.3955 990.893 c 0
 45.0908 1001.75 29.085 1038.03 43.0928 1079.51 c 0
 88.0244 1217.3 127.047 1337.38 174.979 1492.16 c 0
 193.774 1553.24 252.181 1563.83 292.844 1547.64 c 0
 326.221 1534.35 356.078 1499 338.927 1456.44 c 0
EndSplineSet
EndChar

StartChar: radical
Encoding: 8730 8730 367
Width: 1216
VWidth: 0
Flags: W
LayerCount: 2
Fore
SplineSet
108.392 906 m 0
 90.1494 944 -11.6514 981.461 49.1494 996 c 0
 141.149 1018 217.149 981 230.393 954 c 0
 273.203 866.717 459.149 454 594.393 180 c 1
 713.149 504 963.906 1276 1068.15 1585 c 0
 1097.71 1672.62 1204.11 1609.01 1184.15 1551 c 0
 1068.91 1216 794.149 408 663.393 39 c 0
 632.599 -47.9004 549.393 -31 517.393 35 c 0
 353.729 372.56 273.149 569 108.392 906 c 0
EndSplineSet
EndChar

StartChar: uni221B
Encoding: 8731 8731 368
Width: 1216
VWidth: 0
Flags: W
HStem: 927.498 75.162<350.686 675.955>
LayerCount: 2
Fore
SplineSet
108.392 906 m 0
 90.1494 944 -11.6514 981.461 49.1494 996 c 0
 141.149 1018 217.149 981 230.393 954 c 0
 273.203 866.717 459.149 454 594.393 180 c 1
 713.149 504 963.906 1276 1068.15 1585 c 0
 1097.71 1672.62 1204.11 1609.01 1184.15 1551 c 0
 1068.91 1216 794.149 408 663.393 39 c 0
 632.599 -47.9004 549.393 -31 517.393 35 c 0
 353.729 372.56 273.149 569 108.392 906 c 0
726.086 1324.8 m 0
 714.933 1287.65 685.08 1249.87 640.479 1236.01 c 1
 682.76 1227.45 728.591 1193.23 749.471 1133.76 c 0
 774.002 1063.89 752.812 981.893 675.974 939.766 c 0
 613.221 905.363 459.68 892.568 371.126 927.498 c 0
 319.68 947.791 339.4 1019.18 386.96 1002.66 c 0
 450.502 980.59 533.12 967.85 615.48 993.811 c 0
 659.98 1007.84 699 1046.91 682.76 1100.01 c 0
 656.906 1184.54 576.634 1199.83 496 1195 c 0
 436.84 1191.46 433.36 1272.29 492.521 1266.39 c 0
 560.72 1259.59 626.702 1292.59 647.96 1326.57 c 0
 664.2 1352.53 651.44 1396.19 620.12 1415.07 c 0
 576.951 1441.09 490.2 1431.5 405.521 1392.06 c 0
 356.354 1369.16 322 1426.19 379.061 1457.96 c 0
 470.312 1508.78 589.804 1506.24 652.171 1479.03 c 0
 723.162 1448.05 741.954 1377.66 726.086 1324.8 c 0
EndSplineSet
EndChar

StartChar: angle
Encoding: 8736 8736 369
Width: 1030
VWidth: 0
Flags: W
HStem: -1 164<274.004 922.75>
LayerCount: 2
Fore
SplineSet
891.004 1 m 0
 652.004 -9 381.004 1 153.004 -1 c 0
 79.8359 -1.6416 19.0039 110 80.0039 179 c 0
 245.004 364 662.004 764 856.004 966 c 0
 898.139 1009.87 1021 902 955 838 c 0
 770 658 423.004 337 274.004 163 c 1
 467.004 158 656.004 150 889.004 166 c 0
 980.337 172.271 978.295 4.65234 891.004 1 c 0
EndSplineSet
EndChar

StartChar: uni2221
Encoding: 8737 8737 370
Width: 1030
VWidth: 0
Flags: W
HStem: -3.05729 160.419<274.004 502.096 651.937 945.995>
LayerCount: 2
Fore
SplineSet
264 426 m 0
 203.483 465.717 281.023 549.055 366 506 c 0
 372.901 502.504 379.635 498.976 386.207 495.416 c 1
 556.047 665.171 743.514 848.871 856.004 966 c 0
 898.139 1009.87 1021 902 955 838 c 0
 840.14 726.245 662.835 560.137 509.241 408.605 c 1
 583.084 338.808 619.608 256.93 639.393 156.672 c 1
 717.986 157.296 800.307 159.909 889.004 166 c 0
 980.337 172.271 978.295 4.65234 891.004 1 c 0
 814.745 -2.19074 735.229 -3.34532 654.891 -3.50323 c 1
 637.854 -66.1976 533.371 -85.6402 525.253 -3.05729 c 1
 396.619 -2.07908 269.225 0.0194848 153.004 -1 c 0
 79.8359 -1.6416 19.0039 110 80.0039 179 c 0
 131.932 237.222 208.82 316.74 295.861 404.678 c 1
 285.7 411.628 275.087 418.723 264 426 c 0
502.096 157.362 m 1
 485.261 218.733 457.984 265.738 412.376 311.593 c 1
 358.017 256.146 310.176 205.241 274.004 163 c 1
 349.685 161.039 424.751 158.617 502.096 157.362 c 1
EndSplineSet
EndChar

StartChar: uni2226
Encoding: 8742 8742 372
Width: 960
VWidth: 0
Flags: W
VStem: 150.633 171.044<-236.986 520.312 609.271 616.176 697.886 1520.61> 630.533 170.311<-236.986 733.685 813.836 827.086 912.266 1520.61>
LayerCount: 2
Fore
SplineSet
145.447 1493.2 m 0
 140.155 1621.16 333.02 1573.74 326.498 1491.77 c 0
 321.058 1423.41 319.717 1066.33 321.204 697.886 c 1
 423.291 741.043 534.777 789.237 630.404 832.268 c 1
 629.903 1141.8 628.505 1419.27 625.447 1493.2 c 0
 620.155 1621.16 813.02 1573.74 806.498 1491.77 c 0
 802.13 1436.88 800.405 1195.85 800.664 912.266 c 1
 818.639 921.358 833.638 929.359 845 936 c 0
 915.994 977.496 1006.11 896.808 888.567 845.968 c 0
 865.591 836.03 835.668 823.06 800.843 807.928 c 1
 801.915 378.86 807.105 -104.761 814.321 -186.358 c 0
 823.861 -294.234 628.091 -329.894 629.309 -187 c 0
 629.982 -108.037 630.949 324.693 630.533 733.685 c 1
 530.092 689.757 419.346 641.057 321.677 597.535 c 1
 323.646 233.031 328.272 -117.949 334.321 -186.358 c 0
 343.861 -294.234 148.091 -329.894 149.309 -187 c 0
 149.865 -121.758 150.622 184.99 150.633 520.312 c 1
 121.208 506.747 96.8749 495.28 79.3838 486.656 c 0
 -48.7822 423.463 -65.3398 542.872 35.9639 581.157 c 0
 61.3501 590.752 101.434 606.736 150.611 626.848 c 1
 150.434 1011.03 149.172 1403.14 145.447 1493.2 c 0
EndSplineSet
EndChar

StartChar: similar
Encoding: 8764 8764 379
Width: 1278
VWidth: 0
Flags: W
LayerCount: 2
Fore
SplineSet
1196.76 499.335 m 0
 1026.6 357.721 833.242 369.403 638.446 453.027 c 0
 443.971 536.515 293.45 548.202 139.521 430.162 c 0
 104.33 403.174 63.8301 409.479 42.4834 438.9 c 0
 12.1641 480.69 19.3398 543.848 79.3174 586.955 c 0
 262.788 718.818 471.521 704.908 672.915 621.08 c 0
 842.983 550.292 963.653 531.607 1150.45 656.035 c 0
 1180.05 675.754 1215.12 679.45 1236.66 654.18 c 0
 1272.18 612.51 1249.9 543.57 1196.76 499.335 c 0
EndSplineSet
EndChar

StartChar: uni2243
Encoding: 8771 8771 380
Width: 1125
VWidth: 0
Flags: W
HStem: 245 171<66.258 1035.67>
LayerCount: 2
Fore
SplineSet
1053.94 622.843 m 0
 892.933 488.843 746.244 498.144 555.933 579.843 c 0
 357.934 664.843 266.934 678.843 103.934 553.843 c 0
 35.0283 501.003 -6.21777 660.179 73.5322 717.497 c 0
 247.934 842.843 373.934 830.843 570.933 748.843 c 0
 744.492 676.601 842.933 656.843 1036.94 786.071 c 0
 1113.64 837.169 1123.27 680.552 1053.94 622.843 c 0
1007.43 245 m 0
 829.432 249 266.433 251 120.433 247 c 0
 -22.4131 243.088 10.3955 429.505 118.433 422 c 0
 262.433 412 861.432 402 1003.43 416 c 0
 1085.27 424.066 1135.47 242.123 1007.43 245 c 0
EndSplineSet
EndChar

StartChar: uni2244
Encoding: 8772 8772 381
Width: 1125
VWidth: 0
Flags: W
HStem: 249.065 162.631<66.258 333.484 436.834 470.517 562.973 1035.67> 545.185 149.309<745.796 954.771>
LayerCount: 2
Fore
SplineSet
751 890 m 0
 821 997 895 891 842 828 c 0
 819.328 801.139 785.299 753.264 745.796 694.495 c 1
 833.222 683.13 916.739 706.005 1036.94 786.071 c 0
 1113.64 837.169 1123.27 680.552 1053.94 622.843 c 0
 919.931 511.312 795.842 499.054 648.263 545.185 c 1
 619.718 500.531 590.768 454.57 562.973 409.986 c 1
 748.041 408.005 932.595 409.016 1003.43 416 c 0
 1085.27 424.066 1135.47 242.123 1007.43 245 c 0
 903.909 247.326 670.166 248.976 463.966 249.163 c 1
 435.761 202.738 412.703 164.176 398 139 c 0
 343 45 224 97 308 213 c 0
 315.307 223.026 323.871 235.161 333.484 249.065 c 1
 240.395 248.817 162.831 248.162 120.433 247 c 0
 -22.4131 243.088 10.3955 429.505 118.433 422 c 0
 174.807 418.085 300.914 414.17 442.035 411.695 c 1
 477.134 465.309 514.94 523.657 552.22 581.434 c 1
 356.789 665.013 265.911 678.059 103.934 553.843 c 0
 35.0283 501.003 -6.21777 660.179 73.5322 717.497 c 0
 247.934 842.843 373.934 830.843 570.933 748.843 c 0
 596.055 738.386 619.604 729.028 642.097 721.063 c 1
 685.965 789.311 724.545 849.362 751 890 c 0
EndSplineSet
EndChar

StartChar: congruent
Encoding: 8773 8773 382
Width: 1131
VWidth: 0
Flags: W
HStem: 66 171<65.8254 1035.24> 394 171<71.8254 1041.24>
LayerCount: 2
Fore
SplineSet
1013 394 m 0
 834.999 398 272 400 126 396 c 0
 -16.8457 392.088 15.9629 578.505 124 571 c 0
 268 561 866.999 551 1009 565 c 0
 1090.84 573.066 1141.04 391.123 1013 394 c 0
1007 66 m 0
 828.999 70 266 72 120 68 c 0
 -22.8457 64.0879 9.96289 250.505 118 243 c 0
 262 233 860.999 223 1003 237 c 0
 1084.84 245.066 1135.04 63.123 1007 66 c 0
1060.01 761 m 0
 898.999 627 752.311 636.301 561.999 718 c 0
 364 803 273 817 110 692 c 0
 41.0947 639.16 -0.151367 798.336 79.5986 855.654 c 0
 254 981 380 969 576.999 887 c 0
 750.559 814.758 848.999 795 1043.01 924.229 c 0
 1119.71 975.326 1129.34 818.709 1060.01 761 c 0
EndSplineSet
EndChar

StartChar: uni2246
Encoding: 8774 8774 383
Width: 1131
VWidth: 0
Flags: W
HStem: 70.0481 162.695<65.8254 327.029 435.281 469.128 560.659 1035.24> 398.023 160.27<71.8254 548.926 640.525 681.903 783.514 1079.99>
LayerCount: 2
Fore
SplineSet
679 597 m 0
 740.888 691.6 805.902 619.708 783.514 558.238 c 1
 883.27 558.775 966.551 560.815 1009 565 c 0
 1090.84 573.066 1141.04 391.123 1013 394 c 0
 942.326 395.588 810.964 396.861 669.107 397.568 c 1
 633.711 345.442 596.172 287.4 560.659 231.006 c 1
 746.356 228.998 931.923 229.993 1003 237 c 0
 1084.84 245.066 1135.04 63.123 1007 66 c 0
 903.198 68.3326 668.478 69.985 461.873 70.1642 c 1
 450.302 50.8286 439.9 33.24 431 18 c 0
 379.603 -69.8416 272.318 -30.1868 327.029 70.0481 c 1
 236.621 69.7886 161.48 69.1365 120 68 c 0
 -22.8457 64.0879 9.96289 250.505 118 243 c 0
 174.01 239.11 298.855 235.221 438.871 232.744 c 1
 474.083 284.827 511.926 341.825 548.926 398.023 c 1
 370.684 398.484 197.849 397.968 126 396 c 0
 -16.8457 392.088 15.9629 578.505 124 571 c 0
 207.256 565.218 442.608 559.437 653.795 558.293 c 1
 662.546 571.726 670.972 584.668 679 597 c 0
1060.01 761 m 0
 898.999 627 752.311 636.301 561.999 718 c 0
 364 803 273 817 110 692 c 0
 41.0947 639.16 -0.151367 798.336 79.5986 855.654 c 0
 254 981 380 969 576.999 887 c 0
 750.559 814.758 848.999 795 1043.01 924.229 c 0
 1119.71 975.326 1129.34 818.709 1060.01 761 c 0
EndSplineSet
EndChar

StartChar: uni2247
Encoding: 8775 8775 384
Width: 1131
VWidth: 0
Flags: W
HStem: 68 175<65.8254 242.084 348.277 380.992 471.078 1035.24> 396 175<71.8254 450.684 542.682 584.976 667.632 1041.24>
LayerCount: 2
Fore
SplineSet
796 955 m 0
 866 1062 940 956 887 893 c 0
 876.113 880.101 861.347 859.949 843.652 834.233 c 1
 902.021 844.206 964.736 872.092 1043.01 924.229 c 0
 1119.71 975.326 1129.34 818.709 1060.01 761 c 0
 950.548 669.902 847.708 645.034 733.28 664.119 c 1
 712.157 630.424 690.081 594.782 667.632 558.225 c 1
 816.282 557.561 950.895 559.272 1009 565 c 0
 1090.84 573.066 1141.04 391.123 1013 394 c 0
 926.081 395.953 747.367 397.43 570.231 397.963 c 1
 535.308 339.993 501.516 283.42 471.078 232.203 c 1
 683.37 228.833 920.433 228.86 1003 237 c 0
 1084.84 245.066 1135.04 63.123 1007 66 c 0
 888.34 68.6665 598.594 70.4442 375.342 70.1482 c 1
 366.26 54.6761 358.721 41.7964 353 32 c 0
 304.141 -51.5046 204.776 -19.7919 242.084 69.6522 c 1
 190.1 69.2979 147.599 68.7561 120 68 c 0
 -22.8457 64.0879 9.96289 250.505 118 243 c 0
 161.521 239.978 246.603 236.955 348.068 234.596 c 1
 378.486 282.371 413.604 338.481 450.684 398.176 c 1
 309.907 398.242 184.49 397.602 126 396 c 0
 -16.8457 392.088 15.9629 578.505 124 571 c 0
 193.799 566.153 370.498 561.306 550.237 559.192 c 1
 577.837 603.972 605.219 648.468 631.368 690.918 c 1
 608.85 698.724 585.765 707.797 561.999 718 c 0
 364 803 273 817 110 692 c 0
 41.0947 639.16 -0.151367 798.336 79.5986 855.654 c 0
 254 981 380 969 576.999 887 c 0
 630.906 864.562 677.567 847.187 722.095 837.766 c 1
 752.911 887.376 778.55 928.195 796 955 c 0
EndSplineSet
EndChar

StartChar: equivalence
Encoding: 8801 8801 386
Width: 1116
VWidth: 0
Flags: W
HStem: 69 171<65.8254 1044.73> 397 171<71.8254 1050.73> 717 171<69.8254 1048.73>
LayerCount: 2
Fore
SplineSet
1013 397 m 0
 834.999 401 272 397 126 393 c 0
 -16.8457 389.088 15.9629 575.505 124 568 c 0
 268 558 866.999 554 1009 568 c 0
 1090.84 576.066 1141.04 394.123 1013 397 c 0
1007 69 m 0
 828.999 73 266 69 120 65 c 0
 -22.8457 61.0879 9.96289 247.505 118 240 c 0
 262 230 860.999 226 1003 240 c 0
 1084.84 248.066 1135.04 66.123 1007 69 c 0
1011 717 m 0
 832.999 721 270 717 124 713 c 0
 -18.8457 709.088 13.9629 895.506 122 888 c 0
 266 878 864.999 874 1007 888 c 0
 1088.84 896.066 1139.04 714.123 1011 717 c 0
EndSplineSet
EndChar

StartChar: notequal
Encoding: 8800 8800 387
Width: 1116
VWidth: 0
Flags: W
HStem: 249.079 162.527<66.259 339.007 442.052 475.718 567.931 1035.67> 603.961 160.237<72.8258 571.904 662.435 703.296 799.577 1080.99>
LayerCount: 2
Fore
SplineSet
751 882 m 0
 821 989 895 883 842 820 c 0
 830.517 806.396 816.122 787.401 799.577 764.331 c 1
 892.622 764.987 969.708 767.028 1010 771 c 0
 1091.84 779.066 1142.04 597.123 1014 600 c 0
 946.807 601.51 824.752 602.735 690.977 603.46 c 1
 650.882 541.807 608.297 474.599 567.931 409.934 c 1
 751.328 408.023 933.229 409.079 1003.43 416 c 0
 1085.27 424.066 1135.47 242.123 1007.43 245 c 0
 904.723 247.308 673.828 248.95 468.827 249.158 c 1
 438.411 199.167 413.539 157.607 398 131 c 0
 343 37 224 89 308 205 c 0
 316.679 216.909 327.13 231.791 339.007 249.079 c 1
 243.467 248.843 163.667 248.184 120.434 247 c 0
 -22.4121 243.088 10.3965 429.505 118.434 422 c 0
 175.496 418.037 304.004 414.075 447.211 411.605 c 1
 487.08 472.57 530.19 539.225 571.904 603.961 c 1
 386.048 604.524 201.799 604.049 127 602 c 0
 -15.8447 598.088 16.9639 784.506 125 777 c 0
 210.917 771.034 458.809 765.067 674.968 764.198 c 1
 705.117 811.087 731.39 851.877 751 882 c 0
EndSplineSet
EndChar

StartChar: lessequal
Encoding: 8804 8804 388
Width: 1112
VWidth: 0
Flags: W
HStem: 112 171<66.8254 1039.48> 333 155.001<742.078 1042.2>
LayerCount: 2
Fore
SplineSet
991.515 333 m 0
 781.511 365 323.511 457 83.5107 505 c 0
 11.5869 519.385 -1.79199 676.087 87.5107 699 c 0
 391.511 777 747.511 843 997.515 917 c 0
 1056.33 934.413 1129.07 789.033 1039.51 766 c 0
 814 708 504 652 283.511 601 c 1
 496 566 779.511 522 1039.51 488.001 c 0
 1130.5 476.104 1077.88 319.84 991.515 333 c 0
1008 112 m 0
 829.999 116 267 117 121 113 c 0
 -21.8457 109.088 10.9629 295.505 119 288 c 0
 263 278 861.999 269 1004 283 c 0
 1085.84 291.066 1136.04 109.123 1008 112 c 0
EndSplineSet
EndChar

StartChar: greaterequal
Encoding: 8805 8805 389
Width: 1112
VWidth: 0
Flags: W
HStem: 112 171<72.563 1045.22> 333 155.001<69.8508 369.968>
LayerCount: 2
Fore
SplineSet
120.531 333 m 0
 34.1709 319.84 -18.4492 476.104 72.5312 488.001 c 0
 332.535 522 616.046 566 828.535 601 c 1
 608.046 652 298.046 708 72.5312 766 c 0
 -17.0244 789.033 55.7109 934.413 114.531 917 c 0
 364.535 843 720.535 777 1024.54 699 c 0
 1113.84 676.087 1100.46 519.385 1028.54 505 c 0
 788.535 457 330.535 365 120.531 333 c 0
104.049 112 m 0
 -23.9912 109.123 26.209 291.066 108.049 283 c 0
 250.047 269 849.046 278 993.046 288 c 0
 1101.08 295.505 1133.89 109.088 991.046 113 c 0
 845.046 117 282.047 116 104.049 112 c 0
EndSplineSet
EndChar

StartChar: pi
Encoding: 960 960 390
Width: 1089
VWidth: 0
Flags: W
HStem: 0 174<818.83 1017.51> 810.993 174.007<77.5967 231.701 406.564 661.711 831.973 1012.81>
VStem: 183.999 188<31.9581 362.821>
LayerCount: 2
Fore
SplineSet
976.999 810 m 0
 942.761 810.769 895.404 811.058 840.204 810.993 c 1
 809.44 659.648 794.495 421.422 799.999 291 c 0
 805.95 150 912.999 153 984.999 174 c 0
 1085.96 203.448 1097.82 16.7568 978.999 0 c 0
 744.999 -33 638.108 93 625.999 261 c 0
 615.027 413.205 643.635 676.911 661.711 809.922 c 1
 577.408 809.111 488.605 807.921 406.564 806.627 c 1
 417.697 593.961 404.826 202.513 371.999 63 c 0
 347.194 -42.418 145.993 -50.751 183.999 87 c 0
 229.713 252.688 254.522 579.218 228.355 803.457 c 1
 183.222 802.55 145.931 801.699 120.433 801 c 0
 -22.4131 797.088 10.3955 987.506 118.433 980 c 0
 262.433 970 830.999 971 972.999 985 c 0
 1054.83 993.069 1105.04 807.123 976.999 810 c 0
EndSplineSet
EndChar

StartChar: uni0292
Encoding: 658 658 392
Width: 1049
VWidth: 0
Flags: W
HStem: 788 173<95.8466 665.2>
LayerCount: 2
Fore
SplineSet
288.683 213 m 0
 192.811 208.052 168.839 354.436 220.645 397 c 0
 405.645 549 535.645 667 665.2 799 c 1
 409.2 809 336.645 796 128.2 788 c 0
 34.2705 784.395 38.1309 958.497 108.201 961 c 0
 388.201 971 475.201 982 759.201 972 c 0
 879.276 967.771 944.704 839.856 884.645 779 c 0
 733.645 626 638.089 517 449.645 378 c 1
 726.683 411 917.627 327.703 999.683 78 c 0
 1092.68 -205 914.119 -449.679 657.645 -531 c 0
 493.645 -583 264.645 -570 96.6445 -506 c 0
 -5.99609 -466.898 4.85254 -296.597 108.683 -327 c 0
 289.683 -380 427.88 -402.619 597.683 -357 c 0
 798.683 -303 867.394 -114.938 828.683 27 c 0
 774.683 225 598.683 229 288.683 213 c 0
EndSplineSet
EndChar

StartChar: uniFB00
Encoding: 64256 64256 393
Width: 1486
VWidth: 0
Flags: W
HStem: 438 190<38.9033 186.163> 456.229 172<378.37 801.719 993.059 1247.86>
VStem: 168.433 182<629.027 1168.81> 784 182<627.572 1169.41>
LayerCount: 2
Fore
SplineSet
168.433 930 m 0xb0
 159.353 1113.58 183.003 1334.6 361.433 1413 c 0
 550.081 1495.89 759.855 1418.11 883.667 1343.11 c 1
 908.665 1370.62 939.395 1393.48 977 1410 c 0
 1175 1497 1396.27 1407 1517 1329 c 0
 1615.27 1265.51 1518.23 1099.34 1443 1152 c 0
 1353 1215 1210.51 1298.35 1095 1248 c 0
 978 1197 961.601 1047.91 966 937 c 0
 970.496 823.626 975.774 721.996 981.834 622.926 c 1
 1105.02 624.118 1199.49 625.937 1229 628.229 c 0
 1310.98 634.598 1359.06 457.666 1231 456.229 c 0x70
 1205.69 455.944 1114.29 454.671 993.059 452.903 c 1
 1001.8 328.298 1011.78 199.404 1023 48 c 0
 1029 -33 847 -54 841 42 c 0
 831.123 200.025 821.956 328.673 813.446 450.242 c 1
 669.5 448.079 511.55 445.631 378.37 443.426 c 1
 386.904 322.679 396.592 197.356 407.433 51 c 0
 413.433 -30 231.433 -51 225.433 45 c 0
 215.906 197.432 207.038 322.53 198.785 440.307 c 1
 149.137 439.383 110.992 438.591 89.4326 438 c 0
 -53.4121 434.088 -20.6035 635.506 87.4326 628 c 0
 107.347 626.617 141.617 625.468 186.163 624.536 c 1
 179.857 720.308 173.956 818.34 168.433 930 c 0xb0
784 927 m 0
 780.048 1006.9 782.296 1093.89 800.805 1173.13 c 1
 710.957 1232.45 584.119 1296.63 479.433 1251 c 0
 362.433 1200 346.034 1050.91 350.433 940 c 0
 354.985 825.209 360.338 722.457 366.494 622.212 c 1
 498.642 621.209 656.688 621.097 801.719 621.711 c 1
 795.417 717.428 789.519 815.408 784 927 c 0
EndSplineSet
LCarets2: 1 0 
Ligature2: "'liga' Standard Ligatures lookup 0-1" f f
EndChar

StartChar: uniFB01
Encoding: 64257 64257 394
Width: 1116
VWidth: 0
Flags: W
HStem: 788 188<52.6811 166.974 356.71 758.026> 815.205 171.024<363.875 762.051>
VStem: 166.974 182.839<973.123 1169.48> 225.433 182<12.1414 559.688> 762.051 183.949<397.376 815.205>
LayerCount: 2
Fore
SplineSet
946 907 m 0x68
 935.306 764.713 962.664 221.984 976.009 78.2559 c 0
 986.021 -29.5771 785.408 -65.8965 786 77 c 0
 786.554 211.142 770.35 643.781 762.051 815.205 c 1x68
 677.479 812.508 509.325 805.125 356.71 798.646 c 1
 369.117 546.971 386.026 339.989 407.433 51 c 0
 413.433 -30 231.433 -51 225.433 45 c 0
 206.391 349.672 189.984 545.145 175.85 791.217 c 1
 138.254 789.767 106.307 788.638 83 788 c 0
 -59.8447 784.088 -27.0361 983.505 81 976 c 0x98
 102.881 974.48 132.356 973.503 166.974 972.962 c 1
 163.909 1146.75 196.733 1340.63 361.433 1413 c 0
 559.432 1500 780.703 1410 901.432 1332 c 0
 999.703 1268.51 902.664 1102.34 827.432 1155 c 0
 737.432 1218 594.947 1301.35 479.433 1251 c 0
 373.747 1204.93 350.146 1078.83 349.812 973.123 c 1
 531.394 975.29 737.143 982.055 801 986.229 c 0
 874 991 949.689 956.09 946 907 c 0x68
EndSplineSet
LCarets2: 1 0 
Ligature2: "'liga' Standard Ligatures lookup 0-1" f i
EndChar

StartChar: uniFB03
Encoding: 64259 64259 395
Width: 1750
VWidth: 0
Flags: W
HStem: 791.357 178.569<84.251 213.627 403.738 831.26> 801.259 172.348<409.834 837.392 1026.81 1432.48>
VStem: 213.627 182.755<970.544 1175.37> 272 182<14.1414 567.924> 837.392 182.866<976.15 1167.49> 895.862 182<12.1414 565.083> 1432.48 183.949<397.376 815.205>
LayerCount: 2
Fore
SplineSet
1616.43 907 m 0xaa
 1605.74 764.713 1633.09 221.984 1646.44 78.2559 c 0
 1656.45 -29.5771 1455.84 -65.8965 1456.43 77 c 0
 1456.98 211.142 1440.78 643.781 1432.48 815.205 c 1
 1380.47 813.546 1219.32 809.742 1026.81 805.355 c 1
 1039.25 550.637 1056.27 342.553 1077.86 51 c 0
 1083.86 -30 901.862 -51 895.862 45 c 0
 876.562 353.805 859.969 550.427 845.705 801.259 c 1x46
 691.749 797.797 533.343 794.273 403.738 791.357 c 1
 416.102 543.854 432.857 338.426 454 53 c 0
 460 -28 278 -49 272 47 c 0x96
 253.113 349.199 236.818 543.964 222.761 787.234 c 1
 179.761 786.233 147.894 785.463 131 785 c 0
 -11.8447 781.088 20.9639 980.505 129 973 c 0
 145.583 971.848 174.781 971.048 213.627 970.544 c 1
 209.929 1145.45 241.903 1342.02 408 1415 c 0
 599.104 1498.97 811.889 1418.05 935.027 1342.18 c 1
 960.641 1371.45 992.482 1395.7 1031.86 1413 c 0
 1229.86 1500 1451.13 1410 1571.86 1332 c 0
 1670.13 1268.51 1573.09 1102.34 1497.86 1155 c 0
 1407.86 1218 1265.38 1301.35 1149.86 1251 c 0
 1045.18 1205.37 1021.03 1081.22 1020.26 976.15 c 1
 1243.97 979.573 1431.63 983.627 1471.43 986.229 c 0
 1544.43 991 1620.12 956.09 1616.43 907 c 0xaa
837.392 973.607 m 1x6a
 836.274 1038.92 840.238 1107.04 854.375 1170.46 c 1
 764.203 1231 633.437 1299.83 526 1253 c 0
 418.576 1206.17 395.96 1076.66 396.382 969.926 c 1xaa
 524.88 970.242 682.549 971.668 837.392 973.607 c 1x6a
EndSplineSet
LCarets2: 2 0 0 
Ligature2: "'liga' Standard Ligatures lookup 0-1" f f i
EndChar

StartChar: ti
Encoding: 65538 -1 396
Width: 1201
VWidth: 0
Flags: W
HStem: 777 185<30.251 325.048> 797.268 168.198<-1.17981 326.355 516.752 858.451>
VStem: 326.355 186.747<965.466 1393.71> 330.2 186.552<270.447 788.049> 341.864 201.013<30.6406 608.831> 861.922 186.138<377.417 813.606>
LayerCount: 2
Fore
SplineSet
315.433 1363 m 0xa4
 310.141 1490.96 519.004 1443.54 512.482 1361.57 c 0
 508.478 1311.24 509.52 1154.02 513.102 965.466 c 1x64
 679.294 970.46 839.565 977.374 898.156 981.427 c 0
 952.065 985.156 1052.03 957.053 1048.06 904.163 c 0
 1037.36 761.876 1057.66 216.984 1071.01 73.2559 c 0
 1081.02 -34.5771 878.408 -70.8965 879 72 c 0
 879.557 206.865 869.823 606.273 861.922 813.606 c 1
 788.827 810.787 655.129 804.153 516.752 797.268 c 1x54
 524.193 488.889 535.95 157.645 542.877 79.3242 c 0
 552.416 -28.5518 340.646 -64.2109 341.864 78.6826 c 0x4c
 342.545 158.579 336.773 482.173 330.2 788.049 c 1x54
 220.071 782.692 124.61 778.304 77 777 c 0
 -65.8447 773.088 -33.0361 969.505 75 962 c 0
 122.253 958.719 216.886 958.883 326.355 960.868 c 1
 322.115 1144.75 317.99 1301.16 315.433 1363 c 0xa4
799 1326 m 0
 810 1405 932 1452 991 1398 c 0
 1055 1339 1043 1207 961 1176 c 0
 880 1146 788 1241 799 1326 c 0
EndSplineSet
LCarets2: 1 0 
Ligature2: "'liga' Standard Ligatures lookup 0-1" t i
EndChar

StartChar: uni02D1
Encoding: 721 721 398
Width: 462
VWidth: 0
Flags: W
LayerCount: 2
Fore
SplineSet
104 879 m 0
 115 958 237 1005 296 951 c 0
 360 892 348 760 266 729 c 0
 185 699 93 794 104 879 c 0
EndSplineSet
EndChar

StartChar: Ohorn
Encoding: 416 416 400
Width: 1397
VWidth: 0
Flags: W
VStem: 1179.32 182.601<1180.87 1575.38>
LayerCount: 2
Fore
SplineSet
1179.32 1533.44 m 0
 1166.9 1617.36 1346.9 1627.36 1361.92 1557.12 c 0
 1393.67 1408.68 1352.84 1183.35 1292.58 1100.06 c 0
 1270.23 1069.17 1234.71 1062.99 1203.21 1071.17 c 1
 1236.32 990.048 1256.87 898.841 1263.38 800.816 c 0
 1304 189 997.5 17 692.508 -10.3008 c 0
 421.246 -34.582 111.497 148.087 38.1514 559.473 c 0
 -13.9209 851.541 74.084 1315.15 567.356 1455.05 c 0
 592.66 1462.23 614.874 1454.24 630.688 1442.6 c 1
 860.747 1456.04 1041.34 1350.87 1150.16 1175.68 c 1
 1219.32 1286.45 1198.34 1404.94 1179.32 1533.44 c 0
572.172 1263.04 m 0
 244 1170 196.27 790.384 226 612 c 0
 274 324 496 154 685 181 c 0
 879.882 208.84 1106.25 348.013 1085 756 c 0
 1070 1044 868 1296 598 1275 c 0
 596.844 1274.91 573.235 1263.34 572.172 1263.04 c 0
EndSplineSet
EndChar

StartChar: ohorn
Encoding: 417 417 401
Width: 1171
VWidth: 0
Flags: W
VStem: 952.921 182.601<771.435 1174>
LayerCount: 2
Fore
SplineSet
952.921 1132.06 m 0
 940.498 1215.98 1120.5 1225.98 1135.52 1155.74 c 0
 1167.27 1007.3 1126.44 781.966 1066.18 698.678 c 0
 1042.26 665.626 1003.28 660.861 970.269 671.714 c 1
 980.28 646.335 988.08 619.715 993.526 592 c 0
 1060.93 249 874.526 -8 564.526 -18 c 0
 292.322 -26.7812 48.5264 148 26.5264 450 c 0
 4.97168 745.891 214.552 964.184 476.526 988 c 0
 502.719 990.381 523.656 981.899 538.072 968.562 c 1
 705.164 952.073 838.443 878.1 918.685 766.384 c 1
 918.948 766.803 919.218 767.223 919.494 767.642 c 0
 993.766 880.318 972.324 1000.99 952.921 1132.06 c 0
486.932 795 m 0
 340.932 775 203.932 621.229 219.932 472 c 0
 238.912 294.97 376.951 146.652 554.932 157 c 0
 726.932 167 850.856 384.508 810.932 529 c 0
 768.932 681 706.932 789 490.317 794.816 c 0
 489.159 794.848 488.025 795.149 486.932 795 c 0
EndSplineSet
EndChar

StartChar: Uhorn
Encoding: 431 431 402
Width: 1439
VWidth: 0
Flags: W
VStem: 34.834 200.001<862.558 1433.47> 967.83 195<1085.63 1438.33> 1220.43 182.602<1078.08 1474.25>
LayerCount: 2
Fore
SplineSet
1220.43 1432.31 m 0
 1208.01 1516.23 1388.01 1526.23 1403.03 1455.99 c 0
 1434.78 1307.55 1393.95 1082.22 1333.69 998.929 c 0
 1296.4 947.395 1222.47 964.627 1191.69 1002.61 c 1
 1197.03 699.757 1164.15 382.615 1030.83 197.449 c 0
 814.835 -102.55 399.835 -48.5498 204.834 176.449 c 0
 -6.46094 420.251 19.834 1106.45 34.834 1400.45 c 0
 39.4609 1491.13 238.905 1494.11 234.835 1397.45 c 0
 222.835 1112.45 102.031 183.93 607.833 183.449 c 0
 1080.06 183 1015.83 1001.45 967.83 1388.45 c 0
 954.46 1496.29 1154.74 1500.25 1162.83 1427.45 c 0
 1174.66 1320.95 1185.22 1198.86 1189.81 1072.22 c 1
 1260.73 1183.66 1239.59 1302.91 1220.43 1432.31 c 0
EndSplineSet
EndChar

StartChar: uhorn
Encoding: 432 432 403
Width: 1146
VWidth: 0
Flags: W
VStem: 25.2285 192<389.017 957.233> 49.2285 180<232.408 810.357> 724.229 182.828<540.691 768.565 861.983 962.312> 928.007 182.602<867.003 1248.54>
LayerCount: 2
Fore
SplineSet
928.007 1206.6 m 0x70
 915.584 1290.52 1095.58 1300.52 1110.61 1230.28 c 0
 1142.36 1081.84 1101.53 856.507 1041.26 773.219 c 0
 1006.83 725.629 941.15 736.682 907.056 768.565 c 1
 910.117 546.16 925.942 192.811 938.229 83 c 0
 950.23 -25 752.229 -64 750.229 79 c 0
 749.229 142 748.229 198 744.229 346 c 1
 702.229 169 569.229 6 418.229 -7 c 0
 167.229 -29 62.2285 130 49.2285 293 c 0x70
 37.0439 445.779 31.2285 822 25.2285 917 c 0
 17.2285 1045 222.229 1001 217.229 919 c 0xb0
 213.229 848 218.694 504.965 229.229 348 c 0
 239.229 199 341.265 168.063 428.229 182 c 0
 584.229 207 728.229 505 724.229 923 c 0
 723.004 1051 913.229 1006 908.229 924 c 0
 907.334 908.12 906.814 887.062 906.62 861.983 c 1
 966.357 968.973 946.278 1083.17 928.007 1206.6 c 0x70
EndSplineSet
EndChar

